<svg width="32" height="32" viewBox="0 0 32 32" fill="none" xmlns="http://www.w3.org/2000/svg">
    <g clip-path="url(#clip0_1_25)">
        <path d="M16 32C24.8366 32 32 24.8366 32 16C32 7.16344 24.8366 0 16 0C7.16344 0 0 7.16344 0 16C0 24.8366 7.16344 32 16 32Z" fill="#FFFFFF"/>
        <path d="M4.97067 20.7053C4.97067 20.7053 4.97067 16.8773 6.716 14.1053C6.716 14.1053 3.92934 6.44934 6.02667 4.36667C6.02667 4.36667 9.50267 5.056 11.5853 8.884C11.5853 8.884 16.1027 7.13867 20.2827 8.884C20.2827 8.884 23.0693 4.71867 26.1933 4.71867C26.1933 4.71867 27.9387 7.84267 25.152 14.1053C25.152 14.1053 27.2347 17.9333 26.8973 20.7053C26.56 23.4773 21.3387 28.6987 16.1173 28.3613C10.896 28.024 5.67467 24.5333 4.97067 20.7053Z" fill="#020202" stroke="#020202" stroke-width="0.5" stroke-miterlimit="10"/>
        <path d="M4.97067 21.0427C4.97067 21.0427 7.40534 18.96 11.2333 22.788C11.2333 22.788 12.2747 18.6227 16.1027 18.96C19.9307 19.2973 20.62 22.788 20.62 22.788C20.62 22.788 24.096 19.664 26.8827 21.0427C26.8827 21.0427 24.8 28.3467 16.1027 28.6987C7.40534 29.0507 4.97067 21.0427 4.97067 21.0427Z" fill="white" stroke="#1E1B1B" stroke-width="0.25" stroke-miterlimit="10"/>
        <path d="M18.6693 18.0213C18.9773 17.5373 19.9307 16.3933 22.3653 15.5867C22.5707 15.5133 22.8053 15.6307 22.8933 15.836C23.04 16.2027 23.1573 16.7747 22.7173 17.2147C22.072 17.86 20.1947 18.52 18.816 18.3147C18.6693 18.3 18.596 18.1533 18.6693 18.0213Z" fill="white"/>
        <path d="M13.5947 18.0213C13.2867 17.5373 12.3333 16.3933 9.89866 15.5867C9.69332 15.5133 9.45866 15.6307 9.37066 15.836C9.22399 16.2027 9.10666 16.7747 9.54666 17.2147C10.192 17.86 12.0693 18.52 13.448 18.3147C13.5947 18.3 13.668 18.1533 13.5947 18.0213Z" fill="white"/>
        <path d="M17.496 20.676C17.496 20.3093 17.2027 20.016 16.836 20.016H15.0467C14.68 20.016 14.3867 20.3093 14.3867 20.676V21.424C14.3867 21.512 14.4013 21.6147 14.4453 21.688C14.548 22.0253 14.856 22.5533 15.78 22.788H16.132C16.132 22.788 17.5107 22.3333 17.5107 21.512C17.5107 21.4827 17.5253 21.4533 17.5253 21.424V20.676H17.496Z" fill="black"/>
        <path d="M16.1467 24.5333H15.56L15.7507 22.436H16.1027L16.1467 24.5333Z" fill="black"/>
        <path d="M17.4667 26L17.32 25.12L17.5693 25.208L17.4667 26Z" fill="black"/>
        <path d="M17.32 25.7067L17.1733 25.12L17.4227 25.1787L17.32 25.7067Z" fill="black"/>
        <path d="M14.3427 25.7067L14.4893 25.12L14.24 25.1787L14.3427 25.7067Z" fill="black"/>
        <path d="M14.196 26L14.3427 25.12H14.0933L14.196 26Z" fill="black"/>
        <path d="M16.0293 24.2547C16.2053 24.4307 16.4107 24.6067 16.6307 24.7533C16.8507 24.9 17.0853 25.0173 17.3493 25.1053C17.5987 25.1787 17.8773 25.208 18.1413 25.1787C18.4053 25.1493 18.6547 25.032 18.8893 24.8853C18.6693 25.0467 18.4347 25.1933 18.156 25.252C17.8773 25.3107 17.5987 25.3107 17.32 25.252C17.0413 25.1933 16.7773 25.0907 16.528 24.9587C16.2787 24.8267 16.044 24.6653 15.824 24.4747L16.0293 24.2547Z" fill="black"/>
        <path d="M16.0293 24.3427C15.8093 24.5333 15.5747 24.6947 15.3253 24.8267C15.076 24.9587 14.812 25.0613 14.5333 25.12C14.2547 25.1787 13.976 25.1787 13.6973 25.12C13.4187 25.0613 13.184 24.9147 12.964 24.7533C13.1987 24.9 13.448 25.0173 13.712 25.0467C13.976 25.076 14.24 25.0467 14.504 24.9733C14.7533 24.9 14.988 24.768 15.2227 24.6213C15.4427 24.4747 15.648 24.2987 15.824 24.1227L16.0293 24.3427Z" fill="black"/>
        <path d="M10.192 9.22133C10.192 9.22133 8.44666 6.09733 6.71599 5.74533C6.71599 5.74533 6.36399 10.6147 7.40533 12.3453C7.40533 12.36 8.79866 9.57333 10.192 9.22133Z" fill="#3F3D3D"/>
        <path d="M21.6027 9.57332C21.6027 9.57332 23.348 6.44932 25.0787 6.09732C25.0787 6.09732 25.4307 10.9667 24.3893 12.6973C24.3893 12.6973 22.996 9.92532 21.6027 9.57332Z" fill="#3F3D3D"/>
        <path d="M25.0787 6.09732C24.8587 6.14132 24.6387 6.22932 24.4187 6.36132C24.4627 7.57865 24.5067 10.336 23.92 11.876C24.2133 12.3453 24.3893 12.6973 24.3893 12.6973C25.4307 10.9667 25.0787 6.09732 25.0787 6.09732Z" fill="#262424"/>
        <path d="M6.67199 5.716C6.89199 5.76 7.11199 5.848 7.33199 5.98C7.28799 7.19734 7.24399 9.95467 7.83065 11.4947C7.53732 11.964 7.36132 12.316 7.36132 12.316C6.31999 10.5853 6.67199 5.716 6.67199 5.716Z" fill="#262424"/>
        <path d="M15.0613 25.2227C15.34 25.1787 15.6333 25.1786 15.912 25.1786C16.1907 25.1786 16.484 25.1933 16.7627 25.2373C16.484 25.2813 16.1907 25.2813 15.912 25.2813C15.6187 25.2813 15.34 25.2667 15.0613 25.2227Z" fill="#262424"/>
    </g>
    <defs>
        <clipPath id="clip0_1_25">
            <rect width="32" height="32" fill="white"/>
        </clipPath>
    </defs>
</svg>
