<svg width="32" height="32" viewBox="0 0 32 32" fill="none" xmlns="http://www.w3.org/2000/svg">
    <path d="M16 32C24.8366 32 32 24.8366 32 16C32 7.16344 24.8366 0 16 0C7.16344 0 0 7.16344 0 16C0 24.8366 7.16344 32 16 32Z" fill="black"/>
    <path d="M4.67111 21.2171C4.67111 21.2171 4.67111 17.2588 6.47585 14.3924C6.47585 14.3924 3.59433 6.47582 5.76305 4.32227C5.76305 4.32227 9.35737 5.03506 11.5109 8.99336C11.5109 8.99336 16.182 7.18862 20.5043 8.99336C20.5043 8.99336 23.3858 4.68625 26.6161 4.68625C26.6161 4.68625 28.4209 7.91658 25.5394 14.3924C25.5394 14.3924 27.6929 18.3507 27.3441 21.2171C26.9953 24.0834 21.5962 29.4825 16.1972 29.1336C10.7981 28.7848 5.39907 25.1753 4.67111 21.2171Z" fill="white" stroke="#686868" stroke-width="0.75" stroke-miterlimit="10"/>
    <path d="M4.67111 21.5659C4.67111 21.5659 7.18865 19.4123 11.1469 23.3706C11.1469 23.3706 12.2237 19.0635 16.182 19.4123C20.1403 19.7611 20.8531 23.3706 20.8531 23.3706C20.8531 23.3706 24.4474 20.1403 27.3289 21.5659C27.3289 21.5659 25.1754 29.1185 16.182 29.4824C7.18865 29.8464 4.67111 21.5659 4.67111 21.5659Z" fill="#686868" stroke="#686868" stroke-width="0.25" stroke-miterlimit="10"/>
    <path d="M18.8361 18.4417C19.1545 17.9412 20.1403 16.7583 22.6579 15.9242C22.8702 15.8483 23.1128 15.9697 23.2038 16.182C23.3555 16.5611 23.4768 17.1526 23.0218 17.6076C22.3545 18.2749 20.4133 18.9573 18.9877 18.745C18.8361 18.7298 18.7602 18.5782 18.8361 18.4417Z" fill="black"/>
    <path d="M13.5886 18.4417C13.2701 17.9412 12.2843 16.7583 9.76681 15.9242C9.55449 15.8483 9.31184 15.9697 9.22084 16.182C9.06918 16.5611 8.94786 17.1526 9.40283 17.6076C10.0701 18.2749 12.0114 18.9573 13.437 18.745C13.5886 18.7298 13.6644 18.5782 13.5886 18.4417Z" fill="#070707"/>
    <path d="M17.6228 21.1867C17.6228 20.8076 17.3194 20.5042 16.9403 20.5042H15.0901C14.7109 20.5042 14.4076 20.8076 14.4076 21.1867V21.9602C14.4076 22.0512 14.4228 22.1573 14.4683 22.2332C14.5744 22.582 14.8929 23.1279 15.8484 23.3706H16.2123C16.2123 23.3706 17.6379 22.9004 17.6379 22.0512C17.6379 22.0208 17.6531 21.9905 17.6531 21.9602V21.1867H17.6228Z" fill="white" stroke="white" stroke-miterlimit="10"/>
    <path d="M16.2275 25.1753H15.6208L15.818 23.0066H16.182L16.2275 25.1753Z" fill="white"/>
    <path d="M16.2275 25.236C16.0304 25.2512 15.818 25.2512 15.6209 25.2512H15.545L15.5602 25.1753L15.7877 23.0066V22.9763H15.818H16.182H16.2123V23.0066L16.2275 25.1753V25.236ZM16.2275 25.1298L16.1517 23.0218L16.182 23.0521H15.818L15.8484 23.0218L15.6815 25.1905L15.6209 25.1147C15.8029 25.1147 15.9849 25.1147 16.1668 25.1298H16.2275Z" fill="white"/>
    <path d="M17.5924 26.6919L17.4408 25.782L17.6986 25.873L17.5924 26.6919Z" fill="white"/>
    <path d="M17.4408 26.3886L17.2891 25.782L17.5469 25.8426L17.4408 26.3886Z" fill="white"/>
    <path d="M14.3621 26.3886L14.5138 25.782L14.256 25.8426L14.3621 26.3886Z" fill="white"/>
    <path d="M14.2104 26.6919L14.3621 25.782H14.1043L14.2104 26.6919Z" fill="white"/>
    <path d="M16.1062 24.8872C16.2882 25.0692 16.5005 25.2512 16.728 25.4028C16.9555 25.5545 17.1981 25.6758 17.4711 25.7668C17.7289 25.8427 18.0171 25.873 18.2901 25.8427C18.5631 25.8123 18.8209 25.691 19.0635 25.5393C18.836 25.7062 18.5934 25.8578 18.3052 25.9185C18.0171 25.9791 17.7289 25.9791 17.4408 25.9185C17.1526 25.8578 16.8796 25.7517 16.6218 25.6152C16.364 25.4787 16.1213 25.3119 15.8939 25.1147L16.1062 24.8872Z" fill="white"/>
    <path d="M16.1062 24.9782C15.8787 25.1753 15.636 25.3422 15.3782 25.4787C15.1204 25.6152 14.8474 25.7213 14.5592 25.782C14.2711 25.8426 13.9829 25.8426 13.6948 25.782C13.4066 25.7213 13.164 25.5697 12.9365 25.4028C13.1791 25.5545 13.437 25.6758 13.71 25.7062C13.9829 25.7365 14.2559 25.7062 14.5289 25.6303C14.7867 25.5545 15.0294 25.418 15.272 25.2663C15.4995 25.1147 15.7118 24.9327 15.8938 24.7507L16.1062 24.9782Z" fill="white"/>
    <path d="M10.0701 9.34218C10.0701 9.34218 8.26539 6.11184 6.47582 5.74786C6.47582 5.74786 6.11183 10.7829 7.18861 12.5725C7.18861 12.5877 8.62937 9.70616 10.0701 9.34218Z" fill="#686868"/>
    <path d="M21.8692 9.70613C21.8692 9.70613 23.6739 6.4758 25.4635 6.11182C25.4635 6.11182 25.8275 11.1469 24.7507 12.9365C24.7507 12.9365 23.31 10.0701 21.8692 9.70613Z" fill="#686868"/>
    <path d="M25.4635 6.11182C25.236 6.15731 25.0085 6.24831 24.781 6.3848C24.8265 7.64357 24.872 10.4948 24.2654 12.0872C24.5687 12.5725 24.7507 12.9365 24.7507 12.9365C25.8275 11.1469 25.4635 6.11182 25.4635 6.11182Z" fill="#919090"/>
    <path d="M6.43037 5.71753C6.65786 5.76303 6.88535 5.85402 7.11284 5.99052C7.06734 7.24928 7.02185 10.1005 7.62848 11.6929C7.32516 12.1782 7.14317 12.5422 7.14317 12.5422C6.06639 10.7526 6.43037 5.71753 6.43037 5.71753Z" fill="#919090"/>
</svg>
