<svg width="144" height="50" viewBox="0 0 144 50" fill="none" xmlns="http://www.w3.org/2000/svg">
<rect x="0.817139" width="143" height="50" rx="10" fill="black"/>
<path fill-rule="evenodd" clip-rule="evenodd" d="M68.9109 12H69.7996V18.2607H68.9109V12ZM47.6433 12.294C48.0329 12.266 48.4239 12.3249 48.788 12.4663C49.1521 12.6078 49.4803 12.8282 49.7489 13.1119C50.0175 13.3955 50.2198 13.7352 50.3412 14.1065C50.4626 14.4777 50.5001 14.8713 50.4509 15.2588C50.4509 17.1651 49.4207 18.2608 47.6433 18.2608H45.4881V12.294H47.6433ZM46.4148 17.417H47.5398C47.8182 17.4336 48.0968 17.388 48.3554 17.2834C48.6139 17.1788 48.8459 17.0178 49.0344 16.8123C49.2229 16.6067 49.3631 16.3617 49.445 16.0951C49.5269 15.8284 49.5482 15.5469 49.5076 15.271C49.5453 14.9962 49.5217 14.7164 49.4386 14.4517C49.3555 14.1871 49.2149 13.9441 49.0268 13.7401C48.8387 13.5362 48.6079 13.3764 48.3508 13.2722C48.0937 13.1679 47.8168 13.1218 47.5398 13.1372H46.4148V17.417ZM84.4964 32.6391C82.8616 32.6391 81.6653 31.8306 81.5276 30.5991L79.6252 30.599C79.7454 32.8451 81.6047 34.266 84.3586 34.266C87.302 34.266 89.1526 32.811 89.1526 30.4877C89.1526 28.6713 88.094 27.6479 85.5461 27.0453L84.178 26.7094C82.5774 26.3139 81.9231 25.7973 81.9231 24.9194C81.9231 23.8178 82.9475 23.061 84.4446 23.061C85.9417 23.061 86.9661 23.809 87.0784 25.0483H88.9544C88.8938 22.9057 87.095 21.434 84.471 21.434C81.8196 21.434 79.9524 22.9057 79.9524 25.0483C79.9524 26.7788 81.011 27.8452 83.2913 28.396L84.9007 28.7837C86.51 29.1792 87.1897 29.7563 87.1897 30.7202C87.1897 31.8305 86.0628 32.6391 84.4964 32.6391ZM47.386 30.7027H52.1194L53.2551 34.0591H55.2942L50.8108 21.6411H48.7278L44.2444 34.0591H46.2493L47.386 30.7027ZM51.6282 29.1538H47.8762L49.7269 23.7066H49.7786L51.6282 29.1538ZM61.1985 34.1538C63.471 34.1538 64.9768 32.3462 64.9768 29.5327C64.9768 26.7271 63.4621 24.9107 61.1643 24.9107C60.584 24.8919 60.0095 25.0309 59.5018 25.3127C58.9942 25.5946 58.5725 26.0088 58.2815 26.5112H58.2473V25.0054H56.4485V37.0542H58.3069V32.5698H58.3499C58.628 33.0747 59.0428 33.4911 59.5466 33.7712C60.0504 34.0513 60.6229 34.1839 61.1985 34.1538ZM60.6741 26.4946C62.1194 26.4946 63.0667 27.6997 63.0667 29.5327C63.0667 31.3823 62.1194 32.5786 60.6741 32.5786C59.2542 32.5786 58.2991 31.357 58.2991 29.5327C58.2991 27.7251 59.2542 26.4946 60.6741 26.4946ZM74.9417 29.5327C74.9417 32.3462 73.4358 34.1538 71.1633 34.1538C70.5877 34.1839 70.0152 34.0513 69.5114 33.7712C69.0076 33.4911 68.5929 33.0747 68.3147 32.5698H68.2717V37.0542H66.4133V25.0054H68.2121V26.5112H68.2463C68.5373 26.0088 68.959 25.5946 69.4666 25.3127C69.9743 25.0309 70.5488 24.8919 71.1291 24.9107C73.427 24.9107 74.9417 26.7271 74.9417 29.5327ZM73.0315 29.5327C73.0315 27.6997 72.0842 26.4946 70.6389 26.4946C69.219 26.4946 68.2639 27.7251 68.2639 29.5327C68.2639 31.357 69.219 32.5786 70.6389 32.5786C72.0842 32.5786 73.0315 31.3823 73.0315 29.5327ZM93.1633 22.8628V25.0054H94.885V26.4771H93.1633V31.4683C93.1633 32.2437 93.5081 32.605 94.2649 32.605C94.4693 32.6014 94.6734 32.5871 94.8762 32.562V34.0249C94.536 34.0885 94.1901 34.1173 93.844 34.1108C92.011 34.1108 91.2962 33.4223 91.2962 31.6665V26.4771H89.9798V25.0054H91.2961V22.8628H93.1633ZM100.176 24.8941C97.5599 24.8941 95.8821 26.6841 95.8821 29.5327C95.8821 32.3892 97.5432 34.1714 100.176 34.1714C102.81 34.1714 104.471 32.3892 104.471 29.5327C104.471 26.6841 102.801 24.8941 100.176 24.8941ZM100.176 26.4253C101.682 26.4253 102.577 27.5786 102.577 29.5327C102.577 31.4946 101.682 32.6392 100.176 32.6392C98.6702 32.6392 97.7757 31.4946 97.7757 29.5327C97.7757 27.5874 98.6702 26.4253 100.176 26.4253ZM106.003 25.0054H107.776V26.5464H107.819C107.939 26.0651 108.221 25.6398 108.617 25.3419C109.014 25.044 109.501 24.8917 109.996 24.9106C110.211 24.9099 110.424 24.9332 110.633 24.98V26.7183C110.363 26.6357 110.081 26.5977 109.798 26.606C109.528 26.595 109.259 26.6426 109.009 26.7455C108.759 26.8484 108.535 27.0041 108.351 27.202C108.167 27.3999 108.028 27.6353 107.943 27.8919C107.859 28.1486 107.831 28.4205 107.862 28.689V34.0591H106.003L106.003 25.0054ZM115.303 34.1714C117.351 34.1714 118.951 33.0435 119.201 31.3999L117.437 31.3999C117.272 31.809 116.979 32.1539 116.603 32.3833C116.226 32.6128 115.785 32.7145 115.346 32.6733C115.012 32.6857 114.679 32.6267 114.369 32.5004C114.059 32.3741 113.78 32.1833 113.549 31.9408C113.319 31.6982 113.143 31.4094 113.033 31.0936C112.923 30.7778 112.881 30.4421 112.91 30.1089V29.9966H119.305V29.3599C119.305 26.6148 117.73 24.8941 115.225 24.8941C112.678 24.8941 111.034 26.7359 111.034 29.5757C111.034 32.4067 112.669 34.1714 115.303 34.1714ZM117.446 28.6978H112.919C112.918 28.3951 112.978 28.0953 113.093 27.8157C113.209 27.536 113.379 27.2821 113.593 27.0684C113.808 26.8548 114.062 26.6857 114.342 26.571C114.622 26.4563 114.922 26.3981 115.225 26.3999C115.525 26.3935 115.823 26.4491 116.1 26.5633C116.378 26.6775 116.629 26.8479 116.837 27.0636C117.046 27.2794 117.207 27.5359 117.312 27.8172C117.417 28.0984 117.462 28.3982 117.446 28.6978ZM51.5972 15.1308C51.5034 15.4129 51.4695 15.7114 51.4978 16.0073C51.469 16.3036 51.5024 16.6025 51.596 16.8851C51.6896 17.1676 51.8413 17.4274 52.0413 17.6478C52.2413 17.8682 52.4852 18.0444 52.7573 18.1649C53.0294 18.2854 53.3237 18.3477 53.6214 18.3477C53.919 18.3477 54.2133 18.2854 54.4854 18.1649C54.7576 18.0444 55.0014 17.8682 55.2014 17.6478C55.4014 17.4274 55.5531 17.1676 55.6467 16.8851C55.7403 16.6025 55.7737 16.3036 55.7449 16.0073C55.7732 15.7114 55.7393 15.4129 55.6455 15.1308C55.5517 14.8487 55.3999 14.5894 55.2 14.3694C55 14.1494 54.7563 13.9736 54.4845 13.8534C54.2126 13.7331 53.9186 13.671 53.6214 13.671C53.3241 13.671 53.0301 13.7331 52.7582 13.8534C52.4864 13.9736 52.2427 14.1494 52.0427 14.3694C51.8428 14.5894 51.691 14.8487 51.5972 15.1308ZM53.6228 14.4605C54.3923 14.4605 54.8308 15.0313 54.8308 16.0073C54.8308 16.9873 54.3924 17.5576 53.6228 17.5576C52.8504 17.5576 52.4158 16.9912 52.4158 16.0074C52.4158 15.0313 52.8504 14.4605 53.6228 14.4605ZM61.3904 18.2608H60.4685L59.5379 14.9443H59.4676L58.5408 18.2608H57.6277L56.3865 13.7578H57.2879L58.0945 17.1938H58.1609L59.0867 13.7578H59.9392L60.865 17.1938H60.9353L61.7381 13.7578H62.6267L61.3904 18.2608ZM64.5261 13.7578H63.6707L63.6707 18.2608H64.5593V15.6265C64.5436 15.4784 64.56 15.3287 64.6076 15.1875C64.6551 15.0464 64.7326 14.9172 64.8347 14.8088C64.9368 14.7004 65.0612 14.6154 65.1992 14.5596C65.3373 14.5038 65.4858 14.4784 65.6345 14.4854C66.2918 14.4854 66.6062 14.8452 66.6062 15.5689V18.2607H67.4949V15.3457C67.527 15.1284 67.5099 14.9066 67.4447 14.6967C67.3795 14.4869 67.2679 14.2945 67.1182 14.1336C66.9685 13.9728 66.7846 13.8477 66.58 13.7676C66.3754 13.6875 66.1554 13.6544 65.9363 13.6709C65.6567 13.6482 65.3769 13.7133 65.1361 13.8571C64.8952 14.0009 64.7052 14.2162 64.5925 14.4732H64.5261V13.7578ZM71.1344 15.1307C71.0405 15.4128 71.0066 15.7114 71.0349 16.0073C71.0061 16.3036 71.0396 16.6026 71.1332 16.8851C71.2268 17.1676 71.3785 17.4274 71.5785 17.6478C71.7786 17.8682 72.0225 18.0444 72.2946 18.1649C72.5667 18.2854 72.8611 18.3477 73.1587 18.3477C73.4563 18.3477 73.7507 18.2854 74.0228 18.1649C74.2949 18.0444 74.5389 17.8682 74.7389 17.6478C74.9389 17.4274 75.0906 17.1676 75.1842 16.8851C75.2778 16.6026 75.3113 16.3036 75.2825 16.0073C75.3108 15.7114 75.2769 15.4128 75.183 15.1307C75.0892 14.8487 74.9374 14.5893 74.7374 14.3693C74.5375 14.1493 74.2937 13.9736 74.0219 13.8533C73.75 13.733 73.456 13.6709 73.1587 13.6709C72.8614 13.6709 72.5674 13.733 72.2955 13.8533C72.0237 13.9736 71.7799 14.1493 71.58 14.3693C71.38 14.5893 71.2282 14.8487 71.1344 15.1307ZM73.1599 14.4605C73.9294 14.4605 74.3679 15.0313 74.3679 16.0073C74.3679 16.9873 73.9295 17.5576 73.1599 17.5576C72.3875 17.5576 71.9529 16.9912 71.9529 16.0074C71.9529 15.0313 72.3875 14.4605 73.1599 14.4605ZM76.218 16.9873C76.218 16.1768 76.8216 15.7095 77.8928 15.6431L79.1126 15.5728V15.1841C79.1126 14.7085 78.7981 14.44 78.1907 14.44C77.6946 14.44 77.3509 14.6221 77.2522 14.9405H76.3919C76.4827 14.167 77.2102 13.6709 78.2317 13.6709C79.3606 13.6709 79.9973 14.2329 79.9973 15.1841V18.2608H79.1419V17.628H79.0716C78.9288 17.8549 78.7284 18.04 78.4908 18.1642C78.2532 18.2884 77.9869 18.3473 77.719 18.335C77.53 18.3546 77.3389 18.3344 77.1582 18.2757C76.9774 18.2171 76.811 18.1211 76.6695 17.9942C76.5281 17.8672 76.4149 17.712 76.3371 17.5386C76.2593 17.3652 76.2188 17.1774 76.218 16.9873ZM79.1126 16.6026V16.2261L78.013 16.2964C77.3928 16.3379 77.1116 16.5488 77.1116 16.9458C77.1116 17.3511 77.4631 17.5869 77.9466 17.5869C78.0882 17.6013 78.2313 17.587 78.3673 17.5449C78.5033 17.5028 78.6295 17.4338 78.7383 17.3419C78.847 17.2501 78.9362 17.1373 79.0005 17.0103C79.0649 16.8833 79.103 16.7446 79.1126 16.6026ZM83.0344 13.6831C81.8967 13.6831 81.1653 14.5845 81.1653 16.0073C81.1653 17.4336 81.8889 18.335 83.0344 18.3349C83.3194 18.3455 83.6018 18.2778 83.851 18.1393C84.1003 18.0008 84.3069 17.7968 84.4485 17.5493H84.5188V18.2607H85.3704V12H84.4817V14.4731H84.4153C84.2839 14.224 84.0842 14.0173 83.8397 13.8775C83.5951 13.7376 83.3159 13.6702 83.0344 13.6831ZM83.2864 17.5371C82.5335 17.5371 82.0833 16.9624 82.0833 16.0073H82.0833C82.0833 15.0601 82.5383 14.4815 83.2864 14.4815C84.0306 14.4815 84.4983 15.0728 84.4983 16.0112C84.4983 16.9541 84.0354 17.5371 83.2864 17.5371ZM89.0471 16.0073C89.0188 15.7114 89.0527 15.4129 89.1465 15.1308C89.2404 14.8487 89.3921 14.5894 89.5921 14.3694C89.792 14.1494 90.0357 13.9736 90.3076 13.8534C90.5794 13.7331 90.8734 13.671 91.1707 13.671C91.4679 13.671 91.7619 13.7331 92.0338 13.8534C92.3056 13.9736 92.5493 14.1494 92.7493 14.3694C92.9492 14.5894 93.101 14.8487 93.1948 15.1308C93.2887 15.4129 93.3225 15.7114 93.2942 16.0073C93.3231 16.3036 93.2896 16.6025 93.196 16.8851C93.1024 17.1676 92.9508 17.4274 92.7508 17.6478C92.5508 17.8682 92.3069 18.0444 92.0347 18.1649C91.7626 18.2854 91.4683 18.3477 91.1707 18.3477C90.873 18.3477 90.5787 18.2854 90.3066 18.1649C90.0345 18.0444 89.7906 17.8682 89.5906 17.6478C89.3906 17.4274 89.2389 17.1676 89.1453 16.8851C89.0517 16.6025 89.0183 16.3036 89.0471 16.0073ZM92.3801 16.0073C92.3801 15.0313 91.9417 14.4605 91.1721 14.4605C90.3997 14.4605 89.9651 15.0313 89.9651 16.0074C89.9651 16.9912 90.3997 17.5576 91.1721 17.5576C91.9417 17.5576 92.3801 16.9873 92.3801 16.0073ZM95.3421 13.7578H94.4866V18.2608H95.3753V15.6265C95.3595 15.4784 95.3759 15.3287 95.4235 15.1875C95.471 15.0464 95.5485 14.9172 95.6506 14.8088C95.7527 14.7004 95.8771 14.6154 96.0151 14.5596C96.1532 14.5038 96.3017 14.4784 96.4505 14.4854C97.1077 14.4854 97.4221 14.8452 97.4221 15.5689V18.2607H98.3108V15.3457C98.343 15.1284 98.3258 14.9066 98.2606 14.6967C98.1954 14.4869 98.0838 14.2945 97.9342 14.1336C97.7845 13.9728 97.6005 13.8477 97.3959 13.7676C97.1913 13.6875 96.9713 13.6544 96.7522 13.6709C96.4726 13.6482 96.1929 13.7133 95.952 13.8571C95.7111 14.0009 95.5211 14.2162 95.4085 14.4732H95.3421V13.7578ZM103.332 12.6367V13.7783H104.308V14.5269H103.332V16.8423C103.332 17.314 103.527 17.5205 103.969 17.5205C104.082 17.5202 104.195 17.5133 104.308 17.5V18.2402C104.148 18.2688 103.987 18.284 103.824 18.2857C102.836 18.2857 102.443 17.938 102.443 17.0698V14.5268H101.728V13.7783H102.443V12.6367H103.332ZM106.403 12H105.522L105.522 18.2607H106.41V15.6308C106.397 15.4782 106.417 15.3244 106.469 15.1803C106.521 15.0362 106.604 14.9051 106.712 14.7964C106.82 14.6877 106.95 14.6038 107.094 14.5508C107.238 14.4977 107.392 14.4767 107.544 14.4893C108.172 14.4893 108.507 14.8535 108.507 15.5728V18.2607H109.397V15.3535C109.426 15.1372 109.407 14.9171 109.341 14.709C109.275 14.5008 109.164 14.3098 109.016 14.1494C108.868 13.9891 108.686 13.8634 108.484 13.7814C108.282 13.6993 108.064 13.6629 107.846 13.6748C107.562 13.6518 107.278 13.7168 107.032 13.8612C106.786 14.0055 106.591 14.2221 106.473 14.4815H106.403V12ZM114.578 17.0449C114.458 17.4565 114.196 17.8125 113.839 18.0506C113.483 18.2888 113.054 18.3939 112.627 18.3477C112.331 18.3555 112.036 18.2987 111.763 18.1811C111.491 18.0636 111.247 17.8882 111.049 17.6671C110.851 17.4459 110.704 17.1844 110.617 16.9005C110.53 16.6167 110.507 16.3174 110.547 16.0235C110.508 15.7286 110.532 15.4286 110.618 15.144C110.705 14.8593 110.852 14.5965 111.048 14.3734C111.245 14.1504 111.488 13.9722 111.76 13.851C112.031 13.7298 112.326 13.6684 112.623 13.6709C113.876 13.6709 114.632 14.5269 114.632 15.9409V16.251H111.452V16.3008C111.438 16.466 111.459 16.6324 111.513 16.7891C111.568 16.9459 111.654 17.0896 111.767 17.211C111.88 17.3325 112.017 17.429 112.169 17.4944C112.321 17.5598 112.486 17.5926 112.652 17.5908C112.864 17.6163 113.08 17.578 113.27 17.4808C113.461 17.3836 113.619 17.2319 113.723 17.0449L114.578 17.0449ZM111.452 15.5938H113.727C113.738 15.4426 113.717 15.2908 113.667 15.1481C113.616 15.0054 113.535 14.8749 113.431 14.7651C113.327 14.6552 113.2 14.5684 113.06 14.5102C112.92 14.452 112.77 14.4238 112.618 14.4273C112.465 14.4253 112.312 14.4542 112.17 14.5121C112.027 14.5701 111.898 14.6559 111.789 14.7647C111.681 14.8734 111.595 15.0027 111.537 15.1451C111.479 15.2875 111.45 15.4401 111.452 15.5938ZM31.8544 15.7739C32.6659 14.7997 33.0657 13.5475 32.9689 12.2833C31.7291 12.4135 30.5838 13.0061 29.7613 13.9429C29.3592 14.4005 29.0512 14.933 28.8549 15.5098C28.6587 16.0865 28.578 16.6963 28.6176 17.3043C29.2377 17.3107 29.8512 17.1762 30.4119 16.9112C30.9726 16.6461 31.4658 16.2572 31.8544 15.7739ZM34.586 23.8637C34.5968 23.029 34.8185 22.2106 35.2305 21.4847C35.6425 20.7587 36.2315 20.1488 36.9426 19.7116C36.4908 19.0665 35.8949 18.5355 35.2021 18.161C34.5092 17.7864 33.7386 17.5786 32.9514 17.5539C31.9242 17.4461 30.9163 17.8462 30.0925 18.1731C29.5695 18.3807 29.1208 18.5588 28.7885 18.5588C28.4105 18.5588 27.9489 18.3734 27.4317 18.1656C26.7553 17.8939 25.9839 17.5841 25.18 17.6006C24.2623 17.6303 23.368 17.8971 22.5841 18.3752C21.8002 18.8533 21.1536 19.5262 20.7071 20.3285C18.7731 23.6769 20.2157 28.598 22.0683 31.3046C22.9952 32.6299 24.0785 34.1104 25.4959 34.0579C26.1389 34.0312 26.5952 33.8392 27.0664 33.6409C27.6118 33.4114 28.1772 33.1734 29.0753 33.1734C29.9222 33.1734 30.4634 33.4039 30.9827 33.6252C31.4806 33.8373 31.9585 34.0408 32.6663 34.0245C34.1547 34.0003 35.0924 32.6933 35.9868 31.3554C36.6528 30.411 37.1653 29.3673 37.5052 28.2629C36.6405 27.8971 35.9026 27.2849 35.3835 26.5027C34.8644 25.7204 34.587 24.8026 34.586 23.8637Z" fill="white"/>
</svg>
