<svg width="336" height="322" viewBox="0 0 336 322" fill="none" xmlns="http://www.w3.org/2000/svg">
<path d="M25.5228 131.834C38.2478 59.6669 107.27 11.5097 179.693 24.28C215.971 30.6767 252.457 49.8219 278.263 76.3951C304.066 102.965 319.11 136.863 312.771 172.814C311.168 181.901 305.451 189.14 297.155 195.214C288.849 201.294 278.041 206.142 266.43 210.451C259.178 213.142 251.671 215.603 244.292 218.022C239.839 219.482 235.433 220.926 231.158 222.397C219.852 226.286 209.49 230.348 201.943 235.3C194.945 239.893 188.499 246.108 182.246 252.696C179.946 255.119 177.679 257.584 175.419 260.043C171.5 264.304 167.603 268.544 163.591 272.498C150.959 284.951 137.668 294.081 120.619 291.075C48.3757 278.337 12.7628 204.199 25.5228 131.834Z" stroke="white" stroke-width="2"/>
</svg>
