<svg width="332" height="332" viewBox="0 0 332 332" fill="none" xmlns="http://www.w3.org/2000/svg">
<circle cx="166" cy="166" r="166" fill="url(#paint0_linear)"/>
<mask id="mask0" mask-type="alpha" maskUnits="userSpaceOnUse" x="0" y="0" width="332" height="332">
<circle cx="166" cy="166" r="166" fill="url(#paint1_linear)"/>
</mask>
<g mask="url(#mask0)">
<path d="M293 224.916C293 329.343 208.292 414 103.798 414C51.4841 414 -4.25976 396.174 -46.9062 365.285C-89.5489 334.399 -119 290.533 -119 238.454C-119 225.189 -112.727 213.54 -102.594 202.942C-92.4523 192.334 -78.5142 182.854 -63.3542 173.949C-53.886 168.387 -43.9953 163.08 -34.2812 157.867C-28.4253 154.725 -22.6335 151.616 -17.0372 148.508C-2.2092 140.272 11.2166 132.048 20.4928 123.289C29.0972 115.166 36.5463 104.905 43.6511 94.1428C46.2574 90.1947 48.8124 86.1878 51.3617 82.1896C55.7882 75.2474 60.1978 68.3317 64.8304 61.7972C79.4169 41.222 95.8359 25 120.597 25C224.908 25 293 120.285 293 224.916Z" stroke="white" stroke-opacity="0.5" stroke-width="2"/>
<path d="M269 218.432C269 303.797 199.719 373 114.255 373C71.4558 373 25.8476 358.423 -9.04178 333.165C-43.9274 307.911 -68 272.06 -68 229.512C-68 218.718 -62.8947 209.228 -54.6164 200.574C-46.3298 191.911 -34.9342 184.163 -22.5246 176.877C-14.7738 172.327 -6.68157 167.986 1.26981 163.722C6.06568 161.15 10.8103 158.605 15.3979 156.058C27.5398 149.317 38.5515 142.577 46.1654 135.392C53.2269 128.728 59.3358 120.316 65.1552 111.506C67.2929 108.27 69.3865 104.988 71.4745 101.715C75.0971 96.0364 78.703 90.3839 82.4943 85.039C94.4324 68.2082 107.83 55 128.01 55C213.292 55 269 132.866 269 218.432Z" stroke="white" stroke-opacity="0.6" stroke-width="2"/>
<path d="M233 232.296C233 295.645 181.614 347 118.225 347C86.4632 347 52.6126 336.175 26.7214 317.422C0.834002 298.672 -17 272.077 -17 240.537C-17 232.598 -13.2487 225.599 -7.12215 219.191C-0.987257 212.775 7.45896 207.026 16.6782 201.611C22.4369 198.228 28.443 195.005 34.3497 191.836C37.9158 189.922 41.4457 188.028 44.863 186.13C53.889 181.116 62.1003 176.09 67.786 170.722C73.0576 165.744 77.612 159.467 81.9402 152.911C83.5343 150.497 85.0926 148.053 86.6454 145.617C89.3355 141.398 92.0093 137.204 94.8247 133.233C103.691 120.727 113.583 111 128.45 111C191.657 111 233 168.746 233 232.296Z" stroke="white" stroke-width="2"/>
</g>
<defs>
<linearGradient id="paint0_linear" x1="166" y1="0" x2="166" y2="332" gradientUnits="userSpaceOnUse">
<stop stop-color="#DBE8FE"/>
<stop offset="1" stop-color="#A3C4F4"/>
</linearGradient>
<linearGradient id="paint1_linear" x1="166" y1="0" x2="166" y2="332" gradientUnits="userSpaceOnUse">
<stop stop-color="#60FFFF"/>
<stop offset="1" stop-color="#FFF067"/>
</linearGradient>
</defs>
</svg>
