<svg width="97" height="96" viewBox="0 0 97 96" fill="none" xmlns="http://www.w3.org/2000/svg">
<circle cx="48.5764" cy="48" r="48" fill="url(#paint0_linear)"/>
<mask id="mask0" mask-type="alpha" maskUnits="userSpaceOnUse" x="0" y="0" width="97" height="96">
<circle cx="48.5764" cy="48" r="48" fill="url(#paint1_linear)"/>
</mask>
<g mask="url(#mask0)">
<path d="M142.571 29.0812C142.571 58.8842 118.396 83.0453 88.5727 83.0453C73.5938 83.0453 57.6214 77.9372 45.4125 69.0942C33.2074 60.2541 24.8599 47.7626 24.8599 32.996C24.8599 29.4056 26.5521 26.2043 29.4068 23.2185C32.2698 20.224 36.2314 17.5226 40.5995 14.9568C43.3289 13.3535 46.1629 11.8329 48.9606 10.3317C50.6567 9.42157 52.3395 8.51865 53.9775 7.60884C58.2656 5.22704 62.2188 2.812 64.9723 0.212175C67.5224 -2.19547 69.713 -5.21914 71.7739 -8.34101C72.5414 -9.50355 73.2859 -10.6712 74.025 -11.8307C75.297 -13.8258 76.5534 -15.7966 77.8848 -17.6745C82.08 -23.5922 86.6418 -28.0149 93.4301 -28.0149C123.07 -28.0149 142.571 -0.924088 142.571 29.0812Z" stroke="white" stroke-opacity="0.5" stroke-width="2"/>
<path d="M135.631 27.2064C135.631 51.4968 115.917 71.1899 91.5964 71.1899C79.3687 71.1899 66.327 67.0211 56.3611 59.8065C46.399 52.5947 39.6069 42.4207 39.6069 30.4104C39.6069 27.5349 40.9614 24.9575 43.2797 22.534C45.6063 20.1018 48.8327 17.9011 52.4055 15.8035C54.6383 14.4927 56.9524 13.2517 59.2404 12.0246C60.63 11.2795 62.0099 10.5394 63.3562 9.79203C66.8675 7.84266 70.1227 5.85674 72.3956 3.71185C74.4995 1.72646 76.3026 -0.762627 77.9919 -3.32017C78.6239 -4.27698 79.2349 -5.23493 79.8407 -6.18465C80.8802 -7.81437 81.9042 -9.41986 82.9923 -10.9538C86.4217 -15.7887 90.1097 -19.3402 95.5738 -19.3402C119.712 -19.3402 135.631 2.7139 135.631 27.2064Z" stroke="white" stroke-opacity="0.6" stroke-width="2"/>
<path d="M125.221 31.2154C125.221 49.14 110.681 63.6718 92.7443 63.6718C83.7083 63.6718 74.0664 60.588 66.7024 55.2542C59.3422 49.9232 54.3539 42.4258 54.3539 33.5983C54.3539 31.548 55.317 29.6912 57.0131 27.9172C58.7176 26.1345 61.0911 24.5121 63.7414 22.9553C65.3982 21.9821 67.1091 21.0642 68.8059 20.1538C69.8398 19.5991 70.8684 19.0472 71.8763 18.4873C74.4867 17.0374 76.9321 15.547 78.6475 13.9275C80.2338 12.4297 81.5874 10.558 82.8455 8.65223C83.3203 7.933 83.7765 7.21733 84.2275 6.50984C84.9973 5.30221 85.7519 4.11845 86.5578 2.98171C89.0991 -0.602882 91.7735 -3.14746 95.701 -3.14746C113.455 -3.14746 125.221 13.0885 125.221 31.2154Z" stroke="white" stroke-width="2"/>
</g>
<defs>
<linearGradient id="paint0_linear" x1="48.5764" y1="0" x2="48.5764" y2="96" gradientUnits="userSpaceOnUse">
<stop stop-color="#DBE8FE"/>
<stop offset="1" stop-color="#A3C4F4"/>
</linearGradient>
<linearGradient id="paint1_linear" x1="48.5764" y1="0" x2="48.5764" y2="96" gradientUnits="userSpaceOnUse">
<stop stop-color="#60FFFF"/>
<stop offset="1" stop-color="#FFF067"/>
</linearGradient>
</defs>
</svg>
