<svg width="96" height="96" viewBox="0 0 96 96" fill="none" xmlns="http://www.w3.org/2000/svg">
<circle cx="48" cy="48" r="48" fill="url(#paint0_linear)"/>
<mask id="mask0" mask-type="alpha" maskUnits="userSpaceOnUse" x="0" y="0" width="96" height="96">
<circle cx="48" cy="48" r="48" fill="url(#paint1_linear)"/>
</mask>
<g mask="url(#mask0)">
<path d="M141.995 29.0811C141.995 58.8841 117.819 83.0453 87.9965 83.0453C73.0176 83.0453 57.0451 77.9371 44.8362 69.0942C32.6311 60.2541 24.2837 47.7626 24.2837 32.996C24.2837 29.4056 25.9759 26.2042 28.8306 23.2185C31.6936 20.224 35.6551 17.5226 40.0232 14.9568C42.7526 13.3535 45.5867 11.8328 48.3844 10.3316C50.0805 9.42154 51.7633 8.51862 53.4012 7.60881C57.6893 5.22701 61.6425 2.81197 64.3961 0.212145C66.9462 -2.1955 69.1367 -5.21917 71.1977 -8.34104C71.9652 -9.50358 72.7096 -10.6713 73.4488 -11.8307C74.7208 -13.8259 75.9772 -15.7966 77.3085 -17.6745C81.5038 -23.5922 86.0656 -28.0149 92.8539 -28.0149C122.494 -28.0149 141.995 -0.924118 141.995 29.0811Z" stroke="white" stroke-opacity="0.5" stroke-width="2"/>
<path d="M135.055 27.2064C135.055 51.4967 115.341 71.1899 91.0202 71.1899C78.7925 71.1899 65.7508 67.021 55.7849 59.8065C45.8228 52.5947 39.0308 42.4207 39.0308 30.4104C39.0308 27.5348 40.3852 24.9575 42.7035 22.534C45.0302 20.1018 48.2565 17.9011 51.8293 15.8035C54.0622 14.4926 56.3762 13.2516 58.6642 12.0246C60.0538 11.2794 61.4337 10.5394 62.78 9.792C66.2914 7.84264 69.5465 5.85672 71.8195 3.71183C73.9234 1.72644 75.7265 -0.76265 77.4158 -3.32019C78.0477 -4.277 78.6588 -5.23495 79.2645 -6.18467C80.304 -7.81439 81.3281 -9.41989 82.4161 -10.9539C85.8455 -15.7887 89.5336 -19.3402 94.9976 -19.3402C119.136 -19.3402 135.055 2.71388 135.055 27.2064Z" stroke="white" stroke-opacity="0.6" stroke-width="2"/>
<path d="M124.645 31.2153C124.645 49.14 110.105 63.6718 92.1677 63.6718C83.1317 63.6718 73.4898 60.588 66.1258 55.2542C58.7656 49.9232 53.7773 42.4257 53.7773 33.5983C53.7773 31.548 54.7404 29.6912 56.4365 27.9172C58.141 26.1345 60.5145 24.5121 63.1648 22.9553C64.8216 21.9821 66.5325 21.0642 68.2293 20.1538C69.2632 19.5991 70.2918 19.0472 71.2998 18.4873C73.9102 17.0374 76.3556 15.547 78.0709 13.9274C79.6573 12.4297 81.0108 10.558 82.269 8.65222C82.7438 7.93299 83.2 7.21732 83.651 6.50984C84.4208 5.3022 85.1754 4.11844 85.9812 2.9817C88.5225 -0.602889 91.1969 -3.14747 95.1244 -3.14747C112.879 -3.14747 124.645 13.0885 124.645 31.2153Z" stroke="white" stroke-width="2"/>
</g>
<defs>
<linearGradient id="paint0_linear" x1="48" y1="0" x2="48" y2="96" gradientUnits="userSpaceOnUse">
<stop stop-color="#DBE8FE"/>
<stop offset="1" stop-color="#A3C4F4"/>
</linearGradient>
<linearGradient id="paint1_linear" x1="48" y1="0" x2="48" y2="96" gradientUnits="userSpaceOnUse">
<stop stop-color="#60FFFF"/>
<stop offset="1" stop-color="#FFF067"/>
</linearGradient>
</defs>
</svg>
