<svg width="26" height="26" viewBox="0 0 26 26" fill="none" xmlns="http://www.w3.org/2000/svg">
<ellipse cx="9.99859" cy="10.9991" rx="6.0025" ry="2.50104" stroke="#323232" stroke-width="1.5" stroke-linecap="round" stroke-linejoin="round"/>
<path d="M16.0011 14.5C16.0011 15.8813 13.3137 17.001 9.99859 17.001C6.6835 17.001 3.99609 15.8813 3.99609 14.5" stroke="#323232" stroke-width="1.5" stroke-linecap="round" stroke-linejoin="round"/>
<path d="M22.0035 10.998C22.0035 12.3793 19.3161 13.4991 16.001 13.4991" stroke="#323232" stroke-width="1.5" stroke-linecap="round" stroke-linejoin="round"/>
<path d="M16.0011 10.998V18.5012C16.0011 19.8825 13.3137 21.0022 9.99859 21.0022C6.6835 21.0022 3.99609 19.8825 3.99609 18.5012V10.998" stroke="#323232" stroke-width="1.5" stroke-linecap="round" stroke-linejoin="round"/>
<path d="M22.0035 7.49609V14.9992C22.0035 16.3805 19.3161 17.5003 16.001 17.5003" stroke="#323232" stroke-width="1.5" stroke-linecap="round" stroke-linejoin="round"/>
<path d="M10.4992 8.50756C10.2022 8.25262 10.0217 7.88788 9.99902 7.49714C9.99902 6.11656 12.6901 4.99609 16.0015 4.99609C19.3129 4.99609 22.004 6.11656 22.004 7.49714C22.004 8.87771 19.3129 9.99818 16.0015 9.99818C15.8315 9.99818 15.6614 9.99818 15.5013 9.98817" stroke="#323232" stroke-width="1.5" stroke-linecap="round" stroke-linejoin="round"/>
</svg>
