<svg width="148" height="148" viewBox="0 0 148 148" fill="none" xmlns="http://www.w3.org/2000/svg">
<path d="M138.75 36.9971H9.25C4.15325 36.9971 0 41.1503 0 46.2471V129.497C0 134.603 4.15325 138.747 9.25 138.747H138.75C143.856 138.747 148 134.603 148 129.497V46.2471C148 41.1503 143.856 36.9971 138.75 36.9971Z" fill="#DBEBF1"/>
<path d="M148 55.4971H0V83.2471H148V55.4971Z" fill="#A1B9CD"/>
<path d="M41.625 110.997H23.125C20.572 110.997 18.5 108.925 18.5 106.372C18.5 103.819 20.572 101.747 23.125 101.747H41.625C44.178 101.747 46.25 103.819 46.25 106.372C46.25 108.925 44.178 110.997 41.625 110.997Z" fill="#FAFAFA"/>
<path d="M148 82.7476V46.2471C148 41.1503 143.856 36.9971 138.75 36.9971H64.75V46.2471C64.75 75.2181 75.776 92.8578 104.118 109.175C106.208 110.368 108.595 110.997 111 110.997C113.405 110.997 115.791 110.368 117.91 109.156C131.933 101.1 141.701 92.6913 148 82.7476Z" fill="#FAFAFA"/>
<path d="M145.197 23.5026L112.822 9.62755C111.647 9.12805 110.343 9.12805 109.168 9.62755L76.7935 23.5026C75.1008 24.2241 74 25.8983 74 27.7483V46.2483C74 71.6951 83.4073 86.5691 108.697 101.138C109.409 101.545 110.204 101.748 111 101.748C111.796 101.748 112.591 101.545 113.303 101.138C138.593 86.6061 148 71.7321 148 46.2483V27.7483C148 25.8983 146.899 24.2241 145.197 23.5026Z" fill="#15CF74"/>
<path d="M106.375 69.3731C106.31 69.3731 106.236 69.3731 106.18 69.3731C104.71 69.3083 103.35 68.5499 102.527 67.3196L93.2767 53.4446C91.8614 51.3171 92.4349 48.4496 94.5624 47.0343C96.6714 45.6283 99.5482 46.1833 100.973 48.3201L106.717 56.9318L121.258 38.7463C122.858 36.7576 125.772 36.4431 127.761 38.0248C129.759 39.6251 130.073 42.5296 128.482 44.5276L109.982 67.6526C109.103 68.7348 107.771 69.3731 106.375 69.3731Z" fill="#FAFAFA"/>
</svg>
