<svg width="477" height="368" viewBox="0 0 477 368" fill="none" xmlns="http://www.w3.org/2000/svg">
<mask id="path-1-inside-1" fill="white">
<path fill-rule="evenodd" clip-rule="evenodd" d="M293.836 292.084L311.035 277.209L306.364 264.733C307.329 262.929 308.192 261.078 308.952 259.19L322.708 250.78L323.692 228.061L311.019 222.732C310.029 219.174 308.679 215.675 306.958 212.286L310.369 196.66L294.64 180.237L280.271 186.466C279.319 186.024 278.356 185.609 277.383 185.222L267.481 169.016L244.762 168.026L237.951 184.211C236.906 184.569 235.868 184.959 234.837 185.381L216.778 180.168L200.089 195.616L206.401 210.883C205.617 212.334 204.898 213.815 204.245 215.321L187.812 225.461L188.191 248.198L201.727 253.547C202.188 255.155 202.722 256.75 203.331 258.328L199.404 277.133L215.281 293.413L229.244 287.837C230.908 288.738 232.612 289.552 234.348 290.279L244.045 304.836L266.785 304.845L272.42 292.379C275.543 291.454 278.617 290.249 281.607 288.756L293.836 292.084Z"/>
</mask>
<path fill-rule="evenodd" clip-rule="evenodd" d="M293.836 292.084L311.035 277.209L306.364 264.733C307.329 262.929 308.192 261.078 308.952 259.19L322.708 250.78L323.692 228.061L311.019 222.732C310.029 219.174 308.679 215.675 306.958 212.286L310.369 196.66L294.64 180.237L280.271 186.466C279.319 186.024 278.356 185.609 277.383 185.222L267.481 169.016L244.762 168.026L237.951 184.211C236.906 184.569 235.868 184.959 234.837 185.381L216.778 180.168L200.089 195.616L206.401 210.883C205.617 212.334 204.898 213.815 204.245 215.321L187.812 225.461L188.191 248.198L201.727 253.547C202.188 255.155 202.722 256.75 203.331 258.328L199.404 277.133L215.281 293.413L229.244 287.837C230.908 288.738 232.612 289.552 234.348 290.279L244.045 304.836L266.785 304.845L272.42 292.379C275.543 291.454 278.617 290.249 281.607 288.756L293.836 292.084Z" fill="#ECECEC"/>
<path d="M311.035 277.209L313.652 280.234L315.758 278.413L314.781 275.806L311.035 277.209ZM293.836 292.084L292.785 295.944L294.841 296.503L296.452 295.11L293.836 292.084ZM306.364 264.733L302.836 262.848L301.984 264.443L302.618 266.136L306.364 264.733ZM308.952 259.19L306.866 255.777L305.736 256.468L305.242 257.696L308.952 259.19ZM322.708 250.78L324.795 254.192L326.612 253.081L326.704 250.953L322.708 250.78ZM323.692 228.061L327.688 228.234L327.809 225.453L325.242 224.374L323.692 228.061ZM311.019 222.732L307.165 223.803L307.684 225.668L309.468 226.419L311.019 222.732ZM306.958 212.286L303.05 211.433L302.746 212.827L303.392 214.098L306.958 212.286ZM310.369 196.66L314.277 197.513L314.732 195.432L313.258 193.893L310.369 196.66ZM294.64 180.237L297.529 177.471L295.604 175.46L293.05 176.567L294.64 180.237ZM280.271 186.466L278.586 190.094L280.214 190.85L281.862 190.136L280.271 186.466ZM277.383 185.222L273.97 187.307L274.664 188.444L275.902 188.937L277.383 185.222ZM267.481 169.016L270.894 166.93L269.783 165.112L267.655 165.019L267.481 169.016ZM244.762 168.026L244.936 164.03L242.155 163.908L241.075 166.474L244.762 168.026ZM237.951 184.211L239.247 187.995L240.943 187.414L241.638 185.762L237.951 184.211ZM234.837 185.381L233.728 189.224L235.066 189.61L236.354 189.082L234.837 185.381ZM216.778 180.168L217.887 176.325L215.718 175.699L214.06 177.233L216.778 180.168ZM200.089 195.616L197.372 192.68L195.329 194.571L196.393 197.144L200.089 195.616ZM206.401 210.883L209.92 212.786L210.824 211.113L210.098 209.355L206.401 210.883ZM204.245 215.321L206.345 218.725L207.416 218.065L207.915 216.911L204.245 215.321ZM187.812 225.461L185.712 222.057L183.775 223.252L183.813 225.528L187.812 225.461ZM188.191 248.198L184.192 248.265L184.236 250.936L186.721 251.918L188.191 248.198ZM201.727 253.547L205.573 252.446L205.03 250.551L203.197 249.827L201.727 253.547ZM203.331 258.328L207.246 259.146L207.488 257.989L207.062 256.888L203.331 258.328ZM199.404 277.133L195.488 276.315L195.052 278.401L196.54 279.926L199.404 277.133ZM215.281 293.413L212.417 296.206L214.283 298.118L216.764 297.128L215.281 293.413ZM229.244 287.837L231.149 284.32L229.501 283.428L227.761 284.122L229.244 287.837ZM234.348 290.279L237.677 288.062L237.007 287.056L235.893 286.589L234.348 290.279ZM244.045 304.836L240.715 307.054L241.902 308.835L244.043 308.836L244.045 304.836ZM266.785 304.845L266.783 308.845L269.366 308.846L270.43 306.493L266.785 304.845ZM272.42 292.379L271.284 288.543L269.529 289.063L268.775 290.731L272.42 292.379ZM281.607 288.756L282.657 284.897L281.185 284.496L279.82 285.177L281.607 288.756ZM308.419 274.183L291.219 289.059L296.452 295.11L313.652 280.234L308.419 274.183ZM302.618 266.136L307.289 278.612L314.781 275.806L310.11 263.331L302.618 266.136ZM309.892 266.619C310.925 264.687 311.849 262.705 312.663 260.685L305.242 257.696C304.535 259.451 303.733 261.171 302.836 262.848L309.892 266.619ZM311.039 262.603L324.795 254.192L320.622 247.367L306.866 255.777L311.039 262.603ZM326.704 250.953L327.688 228.234L319.696 227.888L318.712 250.607L326.704 250.953ZM325.242 224.374L312.569 219.044L309.468 226.419L322.141 231.748L325.242 224.374ZM314.873 221.66C313.813 217.849 312.367 214.102 310.524 210.475L303.392 214.098C304.992 217.247 306.246 220.498 307.165 223.803L314.873 221.66ZM310.866 213.14L314.277 197.513L306.461 195.807L303.05 211.433L310.866 213.14ZM313.258 193.893L297.529 177.471L291.752 183.004L307.481 199.427L313.258 193.893ZM293.05 176.567L278.68 182.796L281.862 190.136L296.231 183.907L293.05 176.567ZM281.955 182.838C280.936 182.365 279.905 181.921 278.864 181.506L275.902 188.937C276.806 189.298 277.701 189.683 278.586 190.094L281.955 182.838ZM280.796 183.136L270.894 166.93L264.067 171.101L273.97 187.307L280.796 183.136ZM267.655 165.019L244.936 164.03L244.588 172.022L267.307 173.012L267.655 165.019ZM241.075 166.474L234.264 182.659L241.638 185.762L248.449 169.577L241.075 166.474ZM236.655 180.426C235.536 180.81 234.424 181.228 233.32 181.68L236.354 189.082C237.312 188.69 238.277 188.327 239.247 187.995L236.655 180.426ZM235.947 181.538L217.887 176.325L215.668 184.011L233.728 189.224L235.947 181.538ZM214.06 177.233L197.372 192.68L202.807 198.551L219.495 183.104L214.06 177.233ZM196.393 197.144L202.705 212.411L210.098 209.355L203.786 194.087L196.393 197.144ZM202.883 208.98C202.043 210.533 201.273 212.119 200.574 213.732L207.915 216.911C208.522 215.511 209.19 214.134 209.92 212.786L202.883 208.98ZM202.144 211.917L185.712 222.057L189.913 228.865L206.345 218.725L202.144 211.917ZM183.813 225.528L184.192 248.265L192.191 248.132L191.812 225.395L183.813 225.528ZM186.721 251.918L200.257 257.267L203.197 249.827L189.661 244.478L186.721 251.918ZM197.882 254.648C198.375 256.37 198.947 258.078 199.599 259.768L207.062 256.888C206.497 255.422 206 253.94 205.573 252.446L197.882 254.648ZM199.415 257.51L195.488 276.315L203.319 277.951L207.246 259.146L199.415 257.51ZM196.54 279.926L212.417 296.206L218.144 290.62L202.267 274.34L196.54 279.926ZM216.764 297.128L230.728 291.552L227.761 284.122L213.797 289.698L216.764 297.128ZM227.34 291.355C229.121 292.319 230.945 293.191 232.804 293.969L235.893 286.589C234.278 285.914 232.695 285.157 231.149 284.32L227.34 291.355ZM231.019 292.497L240.715 307.054L247.374 302.619L237.677 288.062L231.019 292.497ZM244.043 308.836L266.783 308.845L266.786 300.845L244.046 300.836L244.043 308.836ZM270.43 306.493L276.065 294.026L268.775 290.731L263.14 303.198L270.43 306.493ZM273.555 296.214C276.901 295.223 280.193 293.933 283.393 292.335L279.82 285.177C277.041 286.565 274.185 287.684 271.284 288.543L273.555 296.214ZM294.886 288.225L282.657 284.897L280.556 292.616L292.785 295.944L294.886 288.225Z" fill="#ECECEC" mask="url(#path-1-inside-1)"/>
<circle cx="257.412" cy="236.711" r="35.841" transform="rotate(146.333 257.412 236.711)" stroke="#ECECEC" stroke-width="4"/>
<ellipse cx="251.5" cy="356.5" rx="197.5" ry="10.5" fill="#F5F5F5"/>
<path d="M102.5 351.5C102.5 351.5 98.8206 353.008 96.5 352.5C95.4728 352.275 94.8096 352.171 94 351.5C93.1234 350.774 92.7965 350.099 92.5 349C92.0901 347.48 91.4563 345.309 93 345C94.3539 344.729 95.0103 346.209 95.5 347.5C96.0583 348.972 95.9595 350.252 95 351.5C94.3061 352.403 93.5892 352.669 92.5 353C91.1924 353.398 90.2093 353.637 89 353C87.6072 352.266 87.4025 351.022 87 349.5C86.6006 347.99 85.4962 345.923 87 345.5C88.5155 345.074 88.6245 347.471 89 349C89.326 350.328 89.648 351.297 89 352.5C88.6072 353.23 88.2474 353.643 87.5 354C86.2544 354.596 85.2183 354.15 84 353.5C82.6543 352.783 82.0998 351.902 81.5 350.5C80.957 349.231 79.971 347.921 81 347C82.2348 345.895 83.3207 348.489 84 350C84.487 351.083 84.7346 351.836 84.5 353C84.3275 353.856 84.1741 354.445 83.5 355C82.4449 355.869 81.3339 355.299 80 355C77.674 354.48 75 351.5 75 351.5" stroke="#1B1B1B" stroke-linecap="round" stroke-linejoin="round"/>
<rect x="346.288" y="353.522" width="7.58897" height="4.49613" rx="2.24806" transform="rotate(0.240164 346.288 353.522)" fill="#1D2B31"/>
<circle cx="344.053" cy="355.457" r="5" transform="rotate(-40.8785 344.053 355.457)" fill="#5C7DB3"/>
<path d="M345.768 351.328L342.312 359.558" stroke="#193139" stroke-linecap="round" stroke-linejoin="round"/>
<mask id="path-9-inside-2" fill="white">
<path fill-rule="evenodd" clip-rule="evenodd" d="M428.311 354.115L430.553 350.52L428.561 346.781L424.327 346.637L422.085 350.231L424.077 353.97L428.311 354.115ZM425.072 349.69C424.714 350.437 425.03 351.333 425.777 351.691C426.524 352.049 427.42 351.733 427.778 350.986C428.136 350.239 427.82 349.343 427.073 348.985C426.326 348.628 425.43 348.943 425.072 349.69Z"/>
</mask>
<path fill-rule="evenodd" clip-rule="evenodd" d="M428.311 354.115L430.553 350.52L428.561 346.781L424.327 346.637L422.085 350.231L424.077 353.97L428.311 354.115ZM425.072 349.69C424.714 350.437 425.03 351.333 425.777 351.691C426.524 352.049 427.42 351.733 427.778 350.986C428.136 350.239 427.82 349.343 427.073 348.985C426.326 348.628 425.43 348.943 425.072 349.69Z" fill="#7897C5"/>
<path d="M430.553 350.52L431.401 351.049L431.707 350.559L431.435 350.05L430.553 350.52ZM428.311 354.115L428.277 355.114L428.854 355.134L429.159 354.644L428.311 354.115ZM428.561 346.781L429.443 346.311L429.172 345.801L428.595 345.782L428.561 346.781ZM424.327 346.637L424.361 345.637L423.784 345.618L423.478 346.108L424.327 346.637ZM422.085 350.231L421.236 349.702L420.931 350.192L421.202 350.702L422.085 350.231ZM424.077 353.97L423.194 354.441L423.466 354.95L424.043 354.97L424.077 353.97ZM429.704 349.991L427.462 353.585L429.159 354.644L431.401 351.049L429.704 349.991ZM427.678 347.251L429.67 350.99L431.435 350.05L429.443 346.311L427.678 347.251ZM424.293 347.636L428.527 347.781L428.595 345.782L424.361 345.637L424.293 347.636ZM422.933 350.761L425.175 347.166L423.478 346.108L421.236 349.702L422.933 350.761ZM424.96 353.5L422.968 349.761L421.202 350.702L423.194 354.441L424.96 353.5ZM428.345 353.115L424.111 352.971L424.043 354.97L428.277 355.114L428.345 353.115ZM426.209 350.789C425.96 350.67 425.855 350.371 425.974 350.122L424.17 349.258C423.574 350.504 424.1 351.997 425.345 352.593L426.209 350.789ZM426.876 350.554C426.757 350.803 426.458 350.908 426.209 350.789L425.345 352.593C426.59 353.189 428.083 352.663 428.68 351.418L426.876 350.554ZM426.641 349.887C426.89 350.007 426.995 350.305 426.876 350.554L428.68 351.418C429.276 350.173 428.75 348.68 427.505 348.083L426.641 349.887ZM425.974 350.122C426.093 349.873 426.392 349.768 426.641 349.887L427.505 348.083C426.26 347.487 424.767 348.013 424.17 349.258L425.974 350.122Z" fill="#7897C5" mask="url(#path-9-inside-2)"/>
<mask id="path-11-inside-3" fill="white">
<path fill-rule="evenodd" clip-rule="evenodd" d="M430.547 354.077L432.789 350.482L430.797 346.743L426.563 346.599L424.321 350.193L426.313 353.932L430.547 354.077ZM427.308 349.652C426.95 350.399 427.266 351.295 428.013 351.653C428.76 352.011 429.656 351.695 430.014 350.948C430.372 350.201 430.056 349.305 429.309 348.947C428.562 348.589 427.666 348.905 427.308 349.652Z"/>
</mask>
<path fill-rule="evenodd" clip-rule="evenodd" d="M430.547 354.077L432.789 350.482L430.797 346.743L426.563 346.599L424.321 350.193L426.313 353.932L430.547 354.077ZM427.308 349.652C426.95 350.399 427.266 351.295 428.013 351.653C428.76 352.011 429.656 351.695 430.014 350.948C430.372 350.201 430.056 349.305 429.309 348.947C428.562 348.589 427.666 348.905 427.308 349.652Z" fill="#172C3A"/>
<path d="M432.789 350.482L433.637 351.011L433.943 350.521L433.671 350.012L432.789 350.482ZM430.547 354.077L430.513 355.076L431.09 355.096L431.395 354.606L430.547 354.077ZM430.797 346.743L431.679 346.273L431.408 345.763L430.831 345.744L430.797 346.743ZM426.563 346.599L426.597 345.599L426.02 345.58L425.714 346.07L426.563 346.599ZM424.321 350.193L423.472 349.664L423.167 350.154L423.438 350.664L424.321 350.193ZM426.313 353.932L425.43 354.402L425.702 354.912L426.279 354.932L426.313 353.932ZM431.94 349.953L429.698 353.547L431.395 354.606L433.637 351.011L431.94 349.953ZM429.914 347.213L431.906 350.952L433.671 350.012L431.679 346.273L429.914 347.213ZM426.529 347.598L430.763 347.742L430.831 345.744L426.597 345.599L426.529 347.598ZM425.169 350.723L427.411 347.128L425.714 346.07L423.472 349.664L425.169 350.723ZM427.195 353.462L425.203 349.723L423.438 350.664L425.43 354.402L427.195 353.462ZM430.581 353.077L426.347 352.933L426.279 354.932L430.513 355.076L430.581 353.077ZM428.445 350.751C428.196 350.632 428.091 350.333 428.21 350.084L426.406 349.22C425.81 350.465 426.336 351.958 427.581 352.555L428.445 350.751ZM429.112 350.516C428.992 350.765 428.694 350.87 428.445 350.751L427.581 352.555C428.826 353.151 430.319 352.625 430.916 351.38L429.112 350.516ZM428.877 349.849C429.126 349.968 429.231 350.267 429.112 350.516L430.916 351.38C431.512 350.135 430.986 348.642 429.741 348.045L428.877 349.849ZM428.21 350.084C428.329 349.835 428.628 349.73 428.877 349.849L429.741 348.045C428.496 347.449 427.003 347.975 426.406 349.22L428.21 350.084Z" fill="#232F33" mask="url(#path-11-inside-3)"/>
<mask id="path-13-inside-4" fill="white">
<path fill-rule="evenodd" clip-rule="evenodd" d="M226.478 354.153L223.731 358.843L226.419 363.567L231.854 363.601L234.601 358.912L231.913 354.188L226.478 354.153ZM230.789 359.712C231.222 358.741 230.785 357.604 229.814 357.171C228.843 356.739 227.705 357.176 227.273 358.147C226.841 359.118 227.277 360.255 228.248 360.687C229.219 361.12 230.357 360.683 230.789 359.712Z"/>
</mask>
<path fill-rule="evenodd" clip-rule="evenodd" d="M226.478 354.153L223.731 358.843L226.419 363.567L231.854 363.601L234.601 358.912L231.913 354.188L226.478 354.153ZM230.789 359.712C231.222 358.741 230.785 357.604 229.814 357.171C228.843 356.739 227.705 357.176 227.273 358.147C226.841 359.118 227.277 360.255 228.248 360.687C229.219 361.12 230.357 360.683 230.789 359.712Z" fill="#1A2E35"/>
<path d="M223.731 358.843L222.868 358.338L222.576 358.836L222.862 359.338L223.731 358.843ZM226.478 354.153L226.484 353.154L225.907 353.15L225.615 353.648L226.478 354.153ZM226.419 363.567L225.55 364.062L225.835 364.564L226.413 364.567L226.419 363.567ZM231.854 363.601L231.848 364.601L232.425 364.605L232.717 364.107L231.854 363.601ZM234.601 358.912L235.464 359.417L235.756 358.919L235.47 358.417L234.601 358.912ZM231.913 354.188L232.782 353.693L232.497 353.191L231.919 353.188L231.913 354.188ZM224.594 359.349L227.341 354.659L225.615 353.648L222.868 358.338L224.594 359.349ZM227.288 363.073L224.6 358.349L222.862 359.338L225.55 364.062L227.288 363.073ZM231.86 362.602L226.425 362.567L226.413 364.567L231.848 364.601L231.86 362.602ZM233.738 358.406L230.991 363.096L232.717 364.107L235.464 359.417L233.738 358.406ZM231.044 354.682L233.732 359.406L235.47 358.417L232.782 353.693L231.044 354.682ZM226.472 355.153L231.907 355.188L231.919 353.188L226.484 353.154L226.472 355.153ZM229.407 358.085C229.874 358.292 230.083 358.839 229.876 359.305L231.703 360.119C232.36 358.643 231.696 356.915 230.221 356.258L229.407 358.085ZM228.187 358.553C228.394 358.087 228.941 357.877 229.407 358.085L230.221 356.258C228.745 355.601 227.016 356.264 226.359 357.74L228.187 358.553ZM228.655 359.774C228.189 359.566 227.979 359.02 228.187 358.553L226.359 357.74C225.703 359.215 226.366 360.944 227.842 361.601L228.655 359.774ZM229.876 359.305C229.668 359.772 229.122 359.982 228.655 359.774L227.842 361.601C229.317 362.258 231.046 361.594 231.703 360.119L229.876 359.305Z" fill="#1A2E35" mask="url(#path-13-inside-4)"/>
<mask id="path-15-inside-5" fill="white">
<path fill-rule="evenodd" clip-rule="evenodd" d="M223.15 353.607L220.242 358.571L223.087 363.571L228.84 363.607L231.748 358.643L228.903 353.643L223.15 353.607ZM227.713 359.49C228.171 358.463 227.709 357.259 226.681 356.801C225.653 356.344 224.449 356.806 223.992 357.833C223.534 358.861 223.996 360.065 225.024 360.523C226.052 360.98 227.256 360.518 227.713 359.49Z"/>
</mask>
<path fill-rule="evenodd" clip-rule="evenodd" d="M223.15 353.607L220.242 358.571L223.087 363.571L228.84 363.607L231.748 358.643L228.903 353.643L223.15 353.607ZM227.713 359.49C228.171 358.463 227.709 357.259 226.681 356.801C225.653 356.344 224.449 356.806 223.992 357.833C223.534 358.861 223.996 360.065 225.024 360.523C226.052 360.98 227.256 360.518 227.713 359.49Z" fill="#7897C5"/>
<path d="M220.242 358.571L219.38 358.065L219.088 358.564L219.373 359.065L220.242 358.571ZM223.15 353.607L223.156 352.607L222.579 352.603L222.287 353.102L223.15 353.607ZM223.087 363.571L222.218 364.065L222.504 364.567L223.081 364.571L223.087 363.571ZM228.84 363.607L228.834 364.607L229.411 364.61L229.703 364.112L228.84 363.607ZM231.748 358.643L232.611 359.148L232.902 358.65L232.617 358.148L231.748 358.643ZM228.903 353.643L229.772 353.148L229.486 352.647L228.909 352.643L228.903 353.643ZM221.105 359.076L224.013 354.112L222.287 353.102L219.38 358.065L221.105 359.076ZM223.957 363.076L221.112 358.076L219.373 359.065L222.218 364.065L223.957 363.076ZM228.846 362.607L223.094 362.571L223.081 364.571L228.834 364.607L228.846 362.607ZM230.885 358.138L227.977 363.101L229.703 364.112L232.611 359.148L230.885 358.138ZM228.033 354.138L230.879 359.138L232.617 358.148L229.772 353.148L228.033 354.138ZM223.144 354.607L228.896 354.643L228.909 352.643L223.156 352.607L223.144 354.607ZM226.274 357.715C226.797 357.948 227.033 358.561 226.8 359.084L228.627 359.897C229.309 358.365 228.62 356.57 227.088 355.888L226.274 357.715ZM224.905 358.24C225.138 357.717 225.751 357.482 226.274 357.715L227.088 355.888C225.555 355.205 223.76 355.895 223.078 357.427L224.905 358.24ZM225.431 359.609C224.907 359.376 224.672 358.763 224.905 358.24L223.078 357.427C222.396 358.959 223.085 360.754 224.617 361.436L225.431 359.609ZM226.8 359.084C226.567 359.607 225.954 359.842 225.431 359.609L224.617 361.436C226.149 362.118 227.945 361.429 228.627 359.897L226.8 359.084Z" fill="#7897C5" mask="url(#path-15-inside-5)"/>
<ellipse cx="188" cy="344" rx="30" ry="4" fill="#1B2E35"/>
<ellipse cx="187" cy="348" rx="35" ry="3" fill="#1B2E35"/>
<path d="M361.5 211.5C361.5 211.5 356.904 212.374 354.5 214C352.67 215.238 351.314 215.946 350.5 218C350.133 218.926 349.658 219.565 350 220.5C350.451 221.73 351.754 221.596 353 222C354.682 222.546 355.732 222.5 357.5 222.5C359.268 222.5 360.411 222.775 362 222C362.633 221.691 363.185 221.63 363.5 221C364.13 219.741 361.849 219.402 360.5 219C359.19 218.61 358.358 218.847 357 219C355.4 219.181 354.538 219.523 353 220C352.41 220.183 352.057 220.234 351.5 220.5C350.619 220.921 350.102 221.231 349.5 222C348.852 222.828 348.669 223.462 348.5 224.5C348.374 225.271 348.129 225.813 348.5 226.5C349 227.425 349.989 227.21 351 227.5C352.142 227.828 352.826 227.817 354 228C355.364 228.212 356.12 228.476 357.5 228.5C359.074 228.528 361.444 229.573 361.5 228C361.553 226.514 358 226.5 358 226.5C358 226.5 355.61 225.5 354 225.5C352.39 225.5 351.418 225.737 350 226.5C349.14 226.963 348.69 227.31 348 228C347.31 228.69 346.9 229.11 346.5 230C346.092 230.908 345.738 231.539 346 232.5C346.185 233.179 346.566 233.446 347 234C347.681 234.869 348.031 235.47 349 236C350.211 236.663 351.123 236.403 352.5 236.5C353.863 236.596 354.688 236.883 356 236.5C356.838 236.255 357.679 236.312 358 235.5C358.459 234.337 356.588 234.116 355.5 233.5C354.585 232.982 354.011 232.79 353 232.5C351.858 232.172 351.185 231.913 350 232C348.768 232.091 348.019 232.303 347 233C346.316 233.468 346.043 233.875 345.5 234.5C344.292 235.891 343 238.5 343 238.5" stroke="#1B1B1B" stroke-linecap="round" stroke-linejoin="round"/>
<path d="M299.23 214.978C304.309 247.456 283.365 250.953 263.168 250.953C242.971 250.953 218.472 253.951 226.598 211.98C228.122 194.992 241.447 183 261.644 183C281.841 183 298.214 197.49 299.23 214.978Z" fill="#1B2E35"/>
<path d="M286.5 196.5L292 205" stroke="white" stroke-linecap="round" stroke-linejoin="round"/>
<path d="M294 212.5C294 212.5 295.711 218.836 296 223C296.284 227.095 295.5 233.5 295.5 233.5" stroke="white" stroke-linecap="round" stroke-linejoin="round"/>
<circle cx="255" cy="210" r="19" fill="#7F7F7F" fill-opacity="0.68"/>
<circle cx="255" cy="210" r="19" fill="#1B2E35" stroke="#7897C5" stroke-width="2"/>
<mask id="mask0" mask-type="alpha" maskUnits="userSpaceOnUse" x="231" y="201" width="50" height="29">
<rect x="231" y="201" width="50" height="28.1296" fill="white"/>
</mask>
<g mask="url(#mask0)">
<ellipse cx="255.074" cy="210.074" rx="18.5185" ry="18.1481" fill="white"/>
</g>
<ellipse cx="262.5" cy="206.5" rx="6.5" ry="9.5" fill="#1B2E35"/>
<path d="M189 338.5C189 338.5 160 315 157.5 317C155 319 132 345.5 132 345.5" stroke="#1B2E35" stroke-width="8" stroke-linecap="round" stroke-linejoin="round"/>
<path d="M183 231L326 234L307.809 352L187.042 347.983L183 231Z" fill="#7897C5"/>
<path d="M325.5 235L350 239L340 347L307 351.5L325.5 235Z" fill="#5C7DB3"/>
<path d="M194.166 256.655C193.807 247.936 200.938 240.751 209.659 241.045L295.244 243.934C304.181 244.236 310.871 252.241 309.581 261.09L299.929 327.272C298.83 334.811 292.254 340.328 284.638 340.101L211.464 337.917C203.597 337.682 197.249 331.406 196.924 323.542L194.166 256.655Z" fill="#1B2E35"/>
<path d="M209.772 281.424L218.191 281.736C219.693 281.792 220.684 281.024 220.737 279.601C220.789 278.178 219.831 277.338 218.356 277.283L212.73 277.075L212.843 274.032L218.244 274.232C219.601 274.282 220.471 273.589 220.519 272.311C220.566 271.033 219.723 270.276 218.393 270.227L212.991 270.027L213.104 266.97L218.73 267.178C220.205 267.233 221.223 266.466 221.276 265.043C221.329 263.62 220.397 262.781 218.895 262.725L210.476 262.414C208.698 262.348 207.644 263.364 207.575 265.235L207.087 278.396C207.018 280.267 207.994 281.359 209.772 281.424ZM225.78 282.347C227.559 282.413 228.612 281.397 228.682 279.526L228.822 275.745L231.048 275.827L233.386 280.386C234.309 282.175 234.844 282.683 236.214 282.734C237.835 282.794 239.034 281.77 239.089 280.281C239.113 279.622 239.024 279.183 238.567 278.349L236.698 275.008C238.542 274.02 239.512 272.064 239.59 269.956C239.741 265.885 237.221 263.404 232.148 263.216L226.497 263.007C224.718 262.941 223.664 263.957 223.595 265.828L223.096 279.319C223.026 281.19 224.002 282.281 225.78 282.347ZM228.958 272.056L229.137 267.234L231.456 267.32C232.957 267.376 233.934 268.428 233.882 269.837C233.829 271.273 232.832 272.199 231.264 272.141L228.958 272.056ZM244.172 283.028C245.95 283.094 247.004 282.078 247.073 280.207L247.213 276.426L249.44 276.509L251.777 281.067C252.701 282.856 253.236 283.364 254.606 283.415C256.227 283.475 257.425 282.451 257.481 280.962C257.505 280.303 257.416 279.865 256.959 279.03L255.09 275.689C256.934 274.702 257.904 272.745 257.982 270.638C258.133 266.567 255.612 264.085 250.54 263.898L244.888 263.688C243.11 263.622 242.056 264.639 241.987 266.509L241.487 280C241.418 281.871 242.393 282.963 244.172 283.028ZM247.35 272.737L247.528 267.915L249.847 268.001C251.349 268.057 252.326 269.109 252.274 270.518C252.221 271.955 251.223 272.881 249.655 272.823L247.35 272.737ZM268.887 283.944C274.763 284.162 278.604 280.544 278.829 274.47C279.054 268.397 275.492 264.492 269.616 264.274C263.74 264.057 259.898 267.687 259.673 273.761C259.449 279.834 262.998 283.726 268.887 283.944ZM269.052 279.491C266.707 279.404 265.243 277.252 265.365 273.972C265.487 270.678 267.119 268.641 269.451 268.727C271.783 268.814 273.26 270.966 273.138 274.26C273.016 277.54 271.397 279.578 269.052 279.491ZM283.432 284.483C285.211 284.548 286.264 283.532 286.333 281.661L286.473 277.88L288.7 277.963L291.038 282.522C291.961 284.31 292.496 284.818 293.866 284.869C295.487 284.929 296.686 283.905 296.741 282.416C296.765 281.757 296.676 281.319 296.219 280.484L294.35 277.143C296.194 276.156 297.164 274.2 297.242 272.092C297.393 268.021 294.872 265.54 289.8 265.352L284.148 265.142C282.37 265.076 281.316 266.093 281.247 267.964L280.747 281.454C280.678 283.325 281.653 284.417 283.432 284.483ZM286.61 274.191L286.789 269.369L289.107 269.455C290.609 269.511 291.586 270.563 291.534 271.973C291.481 273.409 290.483 274.335 288.916 274.277L286.61 274.191Z" fill="white"/>
<path d="M207.5 306.5C211.601 302.595 216 296 218 296.5C220 297 225 306 227.5 306.5C230 307 235.5 298 238 298C240.5 298 245.5 308.5 247.5 308.5C249.5 308.5 256 299 258.5 299C261 299 266 308.5 268 308.5C270 308.5 275 301 277.5 300.5C280 300 287.5 310.5 287.5 310.5" stroke="white" stroke-width="3"/>
<path d="M338.034 275C338.034 275 337.361 298.27 342.029 311.752C348.164 329.467 355.46 339.183 370 349" stroke="#1B2E35" stroke-width="6" stroke-linecap="round" stroke-linejoin="round"/>
<path d="M318.5 341C318.5 341 313.492 338.444 310 338C306.895 337.605 305.004 337.622 302 338.5C296.673 340.058 295.632 344.442 291 347.5C285.024 351.446 281.66 355.357 274.5 355.5C271.739 355.556 267.5 354.5 267.5 354.5" stroke="#1B2E35" stroke-width="10"/>
<path d="M245 330L269 331.5L264.5 366L246 365L245 330Z" fill="#7897C5"/>
<path d="M269 331.5L272 339.5L269 362L264.5 366L269 331.5Z" fill="#5C7DB3"/>
<path d="M346.5 267C346.5 274.732 336.642 281.5 332.5 281.5C328.358 281.5 328.5 274.732 328.5 267C328.5 259.268 331.858 252.5 336 252.5C340.142 252.5 346.5 259.268 346.5 267Z" fill="#1C2D34"/>
<circle cx="380" cy="348" r="3" fill="#1B2E35"/>
<path d="M398.16 358.355C397.139 360.621 392.054 360.539 386.802 358.172C381.551 355.805 377.979 353.266 379 351C379.5 347.5 385.248 347.6 390.5 349.967C395.752 352.334 399.181 356.089 398.16 358.355Z" fill="#7897C5"/>
<path d="M413.5 352.5C413.5 355.814 406.389 357 397 357C387.611 357 379.5 352.814 379.5 349.5C379.5 346.186 384.111 343.5 393.5 343.5C402.889 343.5 413.5 349.186 413.5 352.5Z" fill="#7897C5"/>
<path d="M185 257.5C185 257.5 156.5 261.5 155.5 265.5C154.5 269.5 157.853 274.901 159 281C160.603 289.522 162 303 162 303" stroke="#1B2E35" stroke-width="5" stroke-linecap="round" stroke-linejoin="round"/>
<ellipse rx="2.37455" ry="3.67006" transform="matrix(-0.864732 0.502234 0.502234 0.864732 161.694 302.954)" fill="#7897C5"/>
<path d="M155.626 321.127C157.717 323.118 161.147 321.009 163.288 316.418C165.428 311.826 166.312 307.72 164.221 305.729C161.729 302.225 157.856 304.616 155.715 309.208C153.575 313.799 153.535 319.136 155.626 321.127Z" fill="#7897C5"/>
<path d="M141.53 321.03C143.566 324.536 149.162 322.964 155.588 319.232C162.014 315.499 164.994 307.846 162.958 304.341C160.922 300.835 156.115 299.827 149.689 303.559C143.263 307.291 139.494 317.525 141.53 321.03Z" fill="#7897C5"/>
<path d="M117 320L127.5 326L135 349L126.5 354L117 320Z" fill="#5C7DB3"/>
<path d="M114 323L117 320L126.5 354L120 351.5L114 323Z" fill="#7897C5"/>
<line x1="215.163" y1="232.038" x2="217.812" y2="243.741" stroke="#1B2E35"/>
<circle cx="213" cy="235" r="1" fill="#1B2E35"/>
<circle cx="220" cy="239" r="1" fill="#1B2E35"/>
<line x1="226.163" y1="337.89" x2="228.812" y2="349.594" stroke="#1B2E35"/>
<circle cx="224" cy="340.852" r="1" fill="#1B2E35"/>
<circle cx="231" cy="344.852" r="1" fill="#1B2E35"/>
<mask id="path-54-inside-6" fill="white">
<path fill-rule="evenodd" clip-rule="evenodd" d="M393.259 121.999L396.417 103.006L386.626 97.4061C386.278 95.7091 385.839 94.0364 385.313 92.3951L389.725 79.4758L378.077 64.1446L366.939 67.528C364.37 65.7456 361.598 64.1967 358.644 62.9207L352.414 50.8961L333.285 48.7061L327.293 60.5366C326.434 60.7636 325.582 61.0141 324.739 61.2876L309.523 56.0871L294.188 67.7309L298.506 81.9582C298.019 82.7565 297.554 83.5722 297.111 84.4047L282.527 90.7776L280.012 109.867L292.382 116.398C292.655 117.768 292.988 119.121 293.378 120.456L288.158 135.949L300.704 150.555L312.414 146.718C313.584 147.516 314.794 148.266 316.045 148.965L323.658 163.339L342.806 165.355L348.887 154.171C350.458 153.857 352.008 153.466 353.532 153.001L367.722 157.238L382.54 144.944L379.468 133.775C381.002 131.483 382.353 129.036 383.493 126.446L393.259 121.999Z"/>
</mask>
<path fill-rule="evenodd" clip-rule="evenodd" d="M393.259 121.999L396.417 103.006L386.626 97.4061C386.278 95.7091 385.839 94.0364 385.313 92.3951L389.725 79.4758L378.077 64.1446L366.939 67.528C364.37 65.7456 361.598 64.1967 358.644 62.9207L352.414 50.8961L333.285 48.7061L327.293 60.5366C326.434 60.7636 325.582 61.0141 324.739 61.2876L309.523 56.0871L294.188 67.7309L298.506 81.9582C298.019 82.7565 297.554 83.5722 297.111 84.4047L282.527 90.7776L280.012 109.867L292.382 116.398C292.655 117.768 292.988 119.121 293.378 120.456L288.158 135.949L300.704 150.555L312.414 146.718C313.584 147.516 314.794 148.266 316.045 148.965L323.658 163.339L342.806 165.355L348.887 154.171C350.458 153.857 352.008 153.466 353.532 153.001L367.722 157.238L382.54 144.944L379.468 133.775C381.002 131.483 382.353 129.036 383.493 126.446L393.259 121.999Z" fill="white"/>
<path d="M396.417 103.006L400.363 103.662L400.819 100.916L398.403 99.5338L396.417 103.006ZM393.259 121.999L394.917 125.64L396.855 124.757L397.205 122.655L393.259 121.999ZM386.626 97.4061L382.708 98.2096L383.071 99.9807L384.64 100.878L386.626 97.4061ZM385.313 92.3951L381.528 91.1026L381.1 92.3552L381.504 93.6157L385.313 92.3951ZM389.725 79.4758L393.51 80.7684L394.199 78.7523L392.91 77.056L389.725 79.4758ZM378.077 64.1446L381.262 61.7247L379.578 59.5081L376.914 60.3173L378.077 64.1446ZM366.939 67.528L364.659 70.8145L366.249 71.918L368.102 71.3553L366.939 67.528ZM358.644 62.9207L355.092 64.7609L355.749 66.0271L357.058 66.5927L358.644 62.9207ZM352.414 50.8961L355.965 49.0559L354.985 47.1644L352.869 46.9221L352.414 50.8961ZM333.285 48.7061L333.74 44.7321L330.974 44.4155L329.716 46.8989L333.285 48.7061ZM327.293 60.5366L328.315 64.4039L330.051 63.9453L330.862 62.3438L327.293 60.5366ZM324.739 61.2876L323.446 65.0727L324.706 65.5035L325.973 65.0925L324.739 61.2876ZM309.523 56.0871L310.816 52.3021L308.8 51.6131L307.104 52.9014L309.523 56.0871ZM294.188 67.7309L291.769 64.5452L289.552 66.2287L290.361 68.8925L294.188 67.7309ZM298.506 81.9582L301.921 84.0413L302.854 82.5114L302.334 80.7966L298.506 81.9582ZM297.111 84.4047L298.713 88.07L299.989 87.5124L300.642 86.2829L297.111 84.4047ZM282.527 90.7776L280.925 87.1123L278.856 88.0165L278.561 90.2551L282.527 90.7776ZM280.012 109.867L276.046 109.344L275.682 112.104L278.144 113.404L280.012 109.867ZM292.382 116.398L296.304 115.614L295.931 113.749L294.249 112.861L292.382 116.398ZM293.378 120.456L297.168 121.733L297.57 120.541L297.217 119.334L293.378 120.456ZM288.158 135.949L284.367 134.672L283.641 136.829L285.124 138.556L288.158 135.949ZM300.704 150.555L297.669 153.162L299.41 155.188L301.949 154.356L300.704 150.555ZM312.414 146.718L314.669 143.414L313.042 142.303L311.169 142.917L312.414 146.718ZM316.045 148.965L319.579 147.093L319.027 146.049L317.995 145.473L316.045 148.965ZM323.658 163.339L320.123 165.211L321.121 167.094L323.239 167.317L323.658 163.339ZM342.806 165.355L342.388 169.333L345.045 169.613L346.321 167.266L342.806 165.355ZM348.887 154.171L348.105 150.248L346.267 150.614L345.372 152.26L348.887 154.171ZM353.532 153.001L354.677 149.168L353.519 148.822L352.363 149.175L353.532 153.001ZM367.722 157.238L366.578 161.071L368.629 161.683L370.277 160.317L367.722 157.238ZM382.54 144.944L385.094 148.022L387.082 146.373L386.397 143.883L382.54 144.944ZM379.468 133.775L376.144 131.55L375.126 133.071L375.611 134.836L379.468 133.775ZM383.493 126.446L381.835 122.806L380.447 123.438L379.832 124.834L383.493 126.446ZM392.471 102.35L389.313 121.343L397.205 122.655L400.363 103.662L392.471 102.35ZM384.64 100.878L394.431 106.478L398.403 99.5338L388.612 93.9339L384.64 100.878ZM390.545 96.6026C390.168 94.764 389.692 92.9521 389.123 91.1746L381.504 93.6157C381.986 95.1207 382.389 96.6541 382.708 98.2096L390.545 96.6026ZM389.099 93.6877L393.51 80.7684L385.939 78.1833L381.528 91.1026L389.099 93.6877ZM392.91 77.056L381.262 61.7247L374.892 66.5644L386.54 81.8957L392.91 77.056ZM376.914 60.3173L365.776 63.7007L368.102 71.3553L379.24 67.9719L376.914 60.3173ZM369.219 64.2416C366.434 62.3094 363.43 60.6309 360.23 59.2487L357.058 66.5927C359.766 67.7625 362.306 69.1818 364.659 70.8145L369.219 64.2416ZM362.196 61.0805L355.965 49.0559L348.862 52.7363L355.092 64.7609L362.196 61.0805ZM352.869 46.9221L333.74 44.7321L332.83 52.6802L351.959 54.8701L352.869 46.9221ZM329.716 46.8989L323.725 58.7294L330.862 62.3438L336.853 50.5133L329.716 46.8989ZM326.271 56.6693C325.341 56.9152 324.418 57.1865 323.505 57.4827L325.973 65.0925C326.747 64.8416 327.527 64.612 328.315 64.4039L326.271 56.6693ZM326.033 57.5026L310.816 52.3021L308.229 59.8722L323.446 65.0727L326.033 57.5026ZM307.104 52.9014L291.769 64.5452L296.607 70.9166L311.942 59.2728L307.104 52.9014ZM290.361 68.8925L294.678 83.1198L302.334 80.7966L298.016 66.5693L290.361 68.8925ZM295.091 79.875C294.563 80.7403 294.059 81.6244 293.579 82.5265L300.642 86.2829C301.048 85.52 301.474 84.7727 301.921 84.0413L295.091 79.875ZM295.509 80.7394L280.925 87.1123L284.129 94.443L298.713 88.07L295.509 80.7394ZM278.561 90.2551L276.046 109.344L283.978 110.389L286.493 91.3002L278.561 90.2551ZM278.144 113.404L290.514 119.935L294.249 112.861L281.879 106.33L278.144 113.404ZM288.459 117.182C288.756 118.665 289.116 120.132 289.538 121.577L297.217 119.334C296.86 118.111 296.555 116.87 296.304 115.614L288.459 117.182ZM289.587 119.179L284.367 134.672L291.949 137.226L297.168 121.733L289.587 119.179ZM285.124 138.556L297.669 153.162L303.738 147.949L291.192 133.343L285.124 138.556ZM301.949 154.356L313.66 150.519L311.169 142.917L299.458 146.754L301.949 154.356ZM310.159 150.022C311.427 150.887 312.739 151.7 314.094 152.457L317.995 145.473C316.85 144.833 315.741 144.146 314.669 143.414L310.159 150.022ZM312.51 150.837L320.123 165.211L327.193 161.467L319.579 147.093L312.51 150.837ZM323.239 167.317L342.388 169.333L343.225 161.377L324.077 159.361L323.239 167.317ZM346.321 167.266L352.401 156.081L345.372 152.26L339.292 163.445L346.321 167.266ZM349.669 158.093C351.371 157.754 353.05 157.33 354.701 156.826L352.363 149.175C350.966 149.602 349.544 149.961 348.105 150.248L349.669 158.093ZM352.388 156.833L366.578 161.071L368.867 153.405L354.677 149.168L352.388 156.833ZM370.277 160.317L385.094 148.022L379.986 141.865L365.168 154.16L370.277 160.317ZM386.397 143.883L383.325 132.714L375.611 134.836L378.684 146.005L386.397 143.883ZM382.792 136C384.455 133.516 385.918 130.863 387.154 128.058L379.832 124.834C378.787 127.208 377.549 129.451 376.144 131.55L382.792 136ZM391.601 118.359L381.835 122.806L385.15 130.087L394.917 125.64L391.601 118.359Z" fill="#EEEEEE" mask="url(#path-54-inside-6)"/>
<circle cx="339.581" cy="105.63" r="30.0401" transform="rotate(106.627 339.581 105.63)" stroke="#EEEEEE" stroke-width="4"/>
<mask id="path-57-inside-7" fill="white">
<path fill-rule="evenodd" clip-rule="evenodd" d="M395.855 34.5536L393.446 26.2146L385.019 24.1316L379.002 30.3875L381.411 38.7265L389.838 40.8096L395.855 34.5536ZM384.677 33.4317C385.326 35.0002 387.123 35.7457 388.691 35.0968C390.26 34.448 391.005 32.6505 390.357 31.0821C389.708 29.5136 387.91 28.7681 386.342 29.4169C384.773 30.0658 384.028 31.8633 384.677 33.4317Z"/>
</mask>
<path fill-rule="evenodd" clip-rule="evenodd" d="M395.855 34.5536L393.446 26.2146L385.019 24.1316L379.002 30.3875L381.411 38.7265L389.838 40.8096L395.855 34.5536ZM384.677 33.4317C385.326 35.0002 387.123 35.7457 388.691 35.0968C390.26 34.448 391.005 32.6505 390.357 31.0821C389.708 29.5136 387.91 28.7681 386.342 29.4169C384.773 30.0658 384.028 31.8633 384.677 33.4317Z" fill="#E0E0E0"/>
<path d="M393.446 26.2146L394.406 25.937L394.246 25.3824L393.686 25.2438L393.446 26.2146ZM395.855 34.5536L396.576 35.2468L396.976 34.8307L396.816 34.2761L395.855 34.5536ZM385.019 24.1316L385.259 23.1608L384.699 23.0222L384.299 23.4383L385.019 24.1316ZM379.002 30.3875L378.281 29.6943L377.881 30.1104L378.041 30.6651L379.002 30.3875ZM381.411 38.7265L380.451 39.0041L380.611 39.5588L381.171 39.6973L381.411 38.7265ZM389.838 40.8096L389.598 41.7804L390.158 41.9189L390.559 41.5028L389.838 40.8096ZM392.485 26.4922L394.894 34.8312L396.816 34.2761L394.406 25.937L392.485 26.4922ZM384.779 25.1023L393.206 27.1854L393.686 25.2438L385.259 23.1608L384.779 25.1023ZM379.723 31.0807L385.74 24.8248L384.299 23.4383L378.281 29.6943L379.723 31.0807ZM382.372 38.449L379.963 30.11L378.041 30.6651L380.451 39.0041L382.372 38.449ZM390.078 39.8388L381.651 37.7558L381.171 39.6973L389.598 41.7804L390.078 39.8388ZM395.134 33.8604L389.117 40.1164L390.559 41.5028L396.576 35.2468L395.134 33.8604ZM388.309 34.1728C387.251 34.6105 386.038 34.1076 385.601 33.0495L383.753 33.814C384.613 35.8928 386.995 36.8809 389.074 36.0209L388.309 34.1728ZM389.433 31.4643C389.87 32.5224 389.367 33.7351 388.309 34.1728L389.074 36.0209C391.153 35.1609 392.141 32.7786 391.281 30.6998L389.433 31.4643ZM386.724 30.341C387.782 29.9033 388.995 30.4062 389.433 31.4643L391.281 30.6998C390.421 28.621 388.038 27.6329 385.96 28.4929L386.724 30.341ZM385.601 33.0495C385.163 31.9913 385.666 30.7787 386.724 30.341L385.96 28.4929C383.881 29.3528 382.893 31.7352 383.753 33.814L385.601 33.0495Z" fill="#E0E0E0" mask="url(#path-57-inside-7)"/>
<mask id="path-59-inside-8" fill="white">
<path fill-rule="evenodd" clip-rule="evenodd" d="M398.859 31.0942L396.449 22.7551L388.023 20.6721L382.006 26.9281L384.415 35.2671L392.841 37.3501L398.859 31.0942ZM387.68 29.9722C388.329 31.5407 390.127 32.2862 391.695 31.6374C393.264 30.9885 394.009 29.191 393.36 27.6226C392.711 26.0541 390.914 25.3086 389.345 25.9575C387.777 26.6063 387.032 28.4038 387.68 29.9722Z"/>
</mask>
<path fill-rule="evenodd" clip-rule="evenodd" d="M398.859 31.0942L396.449 22.7551L388.023 20.6721L382.006 26.9281L384.415 35.2671L392.841 37.3501L398.859 31.0942ZM387.68 29.9722C388.329 31.5407 390.127 32.2862 391.695 31.6374C393.264 30.9885 394.009 29.191 393.36 27.6226C392.711 26.0541 390.914 25.3086 389.345 25.9575C387.777 26.6063 387.032 28.4038 387.68 29.9722Z" fill="#F0F0F0"/>
<path d="M396.449 22.7551L397.41 22.4776L397.25 21.9229L396.689 21.7844L396.449 22.7551ZM398.859 31.0942L399.579 31.7874L399.98 31.3713L399.819 30.8166L398.859 31.0942ZM388.023 20.6721L388.263 19.7013L387.702 19.5628L387.302 19.9789L388.023 20.6721ZM382.006 26.9281L381.285 26.2348L380.885 26.651L381.045 27.2056L382.006 26.9281ZM384.415 35.2671L383.454 35.5446L383.615 36.0993L384.175 36.2379L384.415 35.2671ZM392.841 37.3501L392.601 38.3209L393.162 38.4595L393.562 38.0433L392.841 37.3501ZM395.489 23.0327L397.898 31.3717L399.819 30.8166L397.41 22.4776L395.489 23.0327ZM387.783 21.6429L396.209 23.7259L396.689 21.7844L388.263 19.7013L387.783 21.6429ZM382.727 27.6213L388.744 21.3653L387.302 19.9789L381.285 26.2348L382.727 27.6213ZM385.376 34.9895L382.967 26.6505L381.045 27.2056L383.454 35.5446L385.376 34.9895ZM393.081 36.3793L384.655 34.2963L384.175 36.2379L392.601 38.3209L393.081 36.3793ZM398.138 30.4009L392.121 36.6569L393.562 38.0433L399.579 31.7874L398.138 30.4009ZM391.313 30.7133C390.255 31.151 389.042 30.6481 388.604 29.59L386.756 30.3545C387.616 32.4333 389.999 33.4214 392.077 32.5614L391.313 30.7133ZM392.436 28.0048C392.874 29.063 392.371 30.2756 391.313 30.7133L392.077 32.5614C394.156 31.7015 395.144 29.3191 394.284 27.2403L392.436 28.0048ZM389.728 26.8815C390.786 26.4438 391.998 26.9467 392.436 28.0048L394.284 27.2403C393.424 25.1615 391.042 24.1734 388.963 25.0334L389.728 26.8815ZM388.604 29.59C388.167 28.5319 388.67 27.3192 389.728 26.8815L388.963 25.0334C386.884 25.8934 385.896 28.2757 386.756 30.3545L388.604 29.59Z" fill="#F1F1F1" mask="url(#path-59-inside-8)"/>
<path fill-rule="evenodd" clip-rule="evenodd" d="M204.472 91.1804C202.065 86.371 199.207 81.8265 195.954 77.6022L199.044 69.8777L190.164 60.9973L183.301 64.4285C180.058 61.7159 176.606 59.245 172.973 57.0434L173.145 47.1855L161.72 41.9716L155.682 49.1102C151.616 47.784 147.413 46.7616 143.099 46.0697L139.178 37.0624L126.619 37.0626L124.193 45.196C118.077 45.5999 112.141 46.6625 106.455 48.3135L99.8667 41.1728L88.3446 46.1693L88.9264 55.6692L88.9519 55.659C85.2017 57.7657 81.6307 60.1537 78.2675 62.7944L69.5258 59.548L60.8177 68.5974L64.9461 75.8981C62.5226 78.8819 60.301 82.0363 58.3021 85.3404L48.6578 84.9485L43.1815 96.2503L50.407 102.556C49.0781 106.625 48.0536 110.833 47.3602 115.151L38.4318 118.935L38.3102 131.494L46.4808 134.018C46.8397 139.505 47.7287 144.848 49.0972 149.995L42.6956 156.467L47.3575 168.129L55.8827 167.356C57.6149 170.643 59.5601 173.8 61.6997 176.809L57.5456 185.606L65.8177 195.056L74.2955 190.86C77.6976 193.888 81.3492 196.642 85.2154 199.088L84.7833 208.367L96.0525 213.91L102.18 207.294C106.784 208.907 111.573 210.127 116.505 210.915L120.195 219.721L132.752 219.895L135.296 211.784C139.697 211.497 144.005 210.868 148.194 209.925L147.537 210.188L154.643 217.038L166.243 212.226L165.392 204.006C170.574 201.558 175.463 198.592 179.994 195.175L188.608 198.328L197.221 189.187L193.547 182.356C195.979 179.48 198.219 176.438 200.249 173.248L209.652 173.265L214.62 161.731L208.214 157.115C210.081 152.001 211.462 146.654 212.301 141.128L220.56 136.663L219.422 124.155L213.051 122.657C212.717 117.808 211.968 113.073 210.841 108.487L217.213 101.977L212.424 90.3672L204.472 91.1804Z" fill="#ECECEC"/>
<circle cx="128" cy="130.265" r="56.8345" fill="white"/>
<path d="M104.518 65.6528C113.396 63.4508 117.582 56.3906 115.305 47.2146C113.029 38.0385 106.024 33.7332 97.1466 35.9353C88.2691 38.1374 84.088 45.2175 86.3642 54.3935C88.6403 63.5695 95.6207 67.8598 104.518 65.6528ZM102.849 58.9251C99.3062 59.8039 96.1924 57.2168 94.963 52.2605C93.7286 47.2844 95.2923 43.537 98.8154 42.663C102.339 41.7891 105.472 44.3714 106.707 49.3475C107.936 54.3037 106.392 58.0462 102.849 58.9251ZM132.817 58.6966C140.003 56.9142 143.36 51.7077 141.513 44.2634C139.711 36.9982 134.176 33.8495 127.09 35.6072C120.044 37.3551 116.612 42.7703 118.404 49.9957C120.246 57.4201 125.652 60.474 132.817 58.6966ZM131.371 52.8645C129.32 53.3731 127.603 51.644 126.689 47.9616C125.801 44.3788 126.546 41.933 128.537 41.4393C130.547 40.9406 132.349 42.7544 133.238 46.3372C134.151 50.0196 133.401 52.3609 131.371 52.8645ZM152.817 61.5535C155.206 60.961 156.567 59.2077 155.851 56.3215L153.989 48.8175L154.149 48.778C155.801 51.0939 158.574 52.054 161.819 51.2492C167.273 49.8963 169.311 45.0804 167.514 37.8351C165.711 30.5699 161.644 27.2897 156.11 28.6622C152.946 29.4473 151.012 31.6173 150.623 34.5661L150.484 34.6007L150.43 34.3817C149.709 31.4757 147.666 30.5667 145.278 31.1591C142.889 31.7516 141.528 33.5049 142.244 36.3911L147.69 58.3458C148.406 61.232 150.428 62.1459 152.817 61.5535ZM156.915 45.7888C154.765 46.322 152.957 44.742 152.172 41.6617C151.432 38.5915 152.296 36.2852 154.426 35.7569C156.556 35.2286 158.398 36.8634 159.154 39.9088C159.914 42.9741 159.064 45.2556 156.915 45.7888ZM183.096 46.2248C189.466 44.6448 192.985 40.6026 191.8 35.8255C190.975 32.5014 188.391 31.1985 183.417 31.5027L179.253 31.7537C177.169 31.8692 176.513 31.5248 176.32 30.7486C176.074 29.7533 176.921 28.9093 178.394 28.544C180.444 28.0354 181.745 29.0226 183.092 29.5971C183.877 29.9517 185.136 29.9988 185.972 29.7914C188.121 29.2582 188.8 27.9065 188.42 26.3738C188.321 25.9758 188.143 25.5974 187.91 25.2538C186.471 23.1174 182.504 21.8616 177.07 23.2095C170.681 24.7944 167.496 28.5638 168.631 33.1418C169.476 36.5455 172.352 38.3463 176.909 38.0612L181.072 37.8102C183.008 37.6894 183.753 37.9694 183.951 38.7655C184.178 39.6811 183.346 40.5003 181.773 40.8904C180.002 41.3298 178.475 41.138 176.955 40.2896C175.489 39.4911 174.27 39.2651 173.017 39.5761C171.205 40.0254 170.227 41.6202 170.662 43.3718C170.756 43.75 170.974 44.2031 171.266 44.6164C172.889 46.8129 176.986 47.7406 183.096 46.2248Z" fill="#1B2E35"/>
<path d="M200.283 34.952C202.682 34.9055 203.865 33.4877 203.899 31.0257L204.107 19.5351C204.119 19.1041 204.131 18.6321 204.124 18.2836C204.073 15.6386 202.546 14.1503 199.901 14.2016C197.256 14.2529 195.748 15.8 195.799 18.4451C195.806 18.7936 195.836 19.2648 195.865 19.695L196.518 31.1689C196.648 33.6277 197.864 34.9989 200.283 34.952ZM200.481 45.122C202.859 45.0758 204.793 43.2333 204.748 40.9369C204.704 38.6609 202.7 36.8948 200.322 36.9409C197.903 36.9878 195.99 38.83 196.034 41.1059C196.078 43.4023 198.061 45.1689 200.481 45.122Z" fill="#1B2E35"/>
<path fill-rule="evenodd" clip-rule="evenodd" d="M457.912 53.5138C457.054 51.7991 456.035 50.1787 454.875 48.6725L455.977 45.9179L452.81 42.7512L450.363 43.9748C449.207 43.0076 447.976 42.1265 446.68 41.3415L446.742 37.8258L442.668 35.9666L440.515 38.5124C439.065 38.0396 437.566 37.675 436.028 37.4283L434.629 34.2162L430.151 34.2163L429.286 37.1168C427.105 37.2608 424.988 37.6397 422.961 38.2283L420.612 35.6819L416.503 37.4636L416.71 40.8511L416.721 40.8469C415.383 41.5982 414.11 42.4499 412.91 43.3917L409.792 42.2339L406.687 45.4608L408.159 48.0645C407.295 49.1285 406.503 50.2534 405.79 51.4317L402.351 51.292L400.398 55.3221L402.975 57.5704C402.501 59.0216 402.136 60.5218 401.888 62.0615L398.705 63.4109L398.661 67.889L401.575 68.7892C401.703 70.7459 402.02 72.651 402.508 74.4865L400.225 76.7944L401.887 80.9527L404.927 80.6774C405.545 81.8495 406.239 82.9753 407.002 84.0484L405.52 87.1853L408.47 90.555L411.493 89.0588C412.706 90.1387 414.008 91.1208 415.387 91.9929L415.233 95.3015L419.251 97.2781L421.436 94.9192C423.078 95.4941 424.786 95.9292 426.545 96.2102L427.86 99.3503L432.338 99.4123L433.245 96.5202C434.814 96.4178 436.35 96.1938 437.843 95.8576L437.61 95.9508L440.144 98.3934L444.281 96.6776L443.977 93.7466C445.825 92.8736 447.569 91.8159 449.184 90.5975L452.256 91.7215L455.327 88.4622L454.017 86.0262C454.884 85.0008 455.683 83.9159 456.407 82.7785L459.76 82.7845L461.531 78.6715L459.247 77.0255C459.913 75.202 460.405 73.2952 460.704 71.3249L463.65 69.7325L463.244 65.2726L460.972 64.7382C460.853 63.0091 460.586 61.3206 460.183 59.6853L462.456 57.3638L460.748 53.2238L457.912 53.5138Z" fill="#ECECEC"/>
<circle cx="430.5" cy="66.5" r="7.5" fill="white"/>
<path fill-rule="evenodd" clip-rule="evenodd" d="M395.617 81.417L426.725 86.267L426.045 86.8824L414.358 165.435L430.459 167.888L426.271 195.524L410.234 193.152L406.636 217.335L376.001 212.648L379.618 188.625L315.094 179.083L319.444 150.974L319.632 151.003L319.296 149.866L395.617 81.417ZM383.811 160.781L390.034 119.451L350.028 155.634L383.811 160.781Z" fill="#7897C5"/>
<path d="M424 86.5L400 215" stroke="#1B1B1B"/>
<path d="M411.5 142C410.865 145.853 411.5 152 411.5 152L415 132C415 132 412.173 137.918 411.5 142Z" fill="black" stroke="#1B1B1B"/>
<circle cx="420" cy="87" r="1" fill="black"/>
<circle cx="420" cy="87" r="1" fill="black"/>
<circle cx="420" cy="87" r="1" fill="black"/>
<circle cx="420" cy="87" r="1" fill="black"/>
<circle cx="417" cy="105" r="1" fill="black"/>
<circle cx="417" cy="105" r="1" fill="black"/>
<circle cx="417" cy="105" r="1" fill="black"/>
<circle cx="417" cy="105" r="1" fill="black"/>
<circle cx="413" cy="123" r="1" fill="black"/>
<circle cx="413" cy="123" r="1" fill="black"/>
<circle cx="413" cy="123" r="1" fill="black"/>
<circle cx="413" cy="123" r="1" fill="black"/>
<circle cx="407" cy="158" r="1" fill="black"/>
<circle cx="407" cy="158" r="1" fill="black"/>
<circle cx="407" cy="158" r="1" fill="black"/>
<circle cx="407" cy="158" r="1" fill="black"/>
<circle cx="403" cy="176" r="1" fill="black"/>
<circle cx="403" cy="176" r="1" fill="black"/>
<circle cx="403" cy="176" r="1" fill="black"/>
<circle cx="403" cy="176" r="1" fill="black"/>
<circle cx="400" cy="193" r="1" fill="black"/>
<circle cx="400" cy="193" r="1" fill="black"/>
<circle cx="400" cy="193" r="1" fill="black"/>
<circle cx="400" cy="193" r="1" fill="black"/>
<circle cx="397" cy="211" r="1" fill="black"/>
<circle cx="397" cy="211" r="1" fill="black"/>
<circle cx="397" cy="211" r="1" fill="black"/>
<circle cx="397" cy="211" r="1" fill="black"/>
<path d="M410 140.5C410 141.052 410 141 407 142C406.448 142 406 141.552 406 141C406 140.448 406.448 140 407 140C409 140 410 139.948 410 140.5Z" fill="black"/>
<path fill-rule="evenodd" clip-rule="evenodd" d="M320.928 38.6351L318.73 40.0974L319.086 41.602C318.949 41.7958 318.822 41.9965 318.707 42.203L317.001 42.9709L316.556 45.5729L317.938 46.3714C318 46.7954 318.105 47.2179 318.253 47.6329L317.632 49.383L319.204 51.5036L320.95 50.9957C321.053 51.0604 321.158 51.1221 321.264 51.1808L322.169 53.192L324.77 53.6372L325.791 51.8724C325.916 51.8464 326.041 51.8167 326.166 51.7831L328.17 52.6469L330.317 51.1113L329.813 49.2609C329.925 49.1051 330.029 48.945 330.126 48.7809L332.166 47.8529L332.454 45.229L330.973 44.4157C330.944 44.2238 330.905 44.0323 330.858 43.8417L331.585 41.7335L329.994 39.6273L328.304 40.0657C328.126 39.9376 327.941 39.8189 327.752 39.7098L326.848 37.8926L324.229 37.56L323.399 38.9131C323.025 38.9741 322.654 39.0681 322.287 39.1965L320.928 38.6351Z" fill="#7897C5"/>
<circle cx="324.573" cy="45.6291" r="2.75076" transform="rotate(-26.4519 324.573 45.6291)" fill="white"/>
<path d="M307.5 39.4999C307.5 39.4999 309.879 38.3935 311.5 37.9999C313.03 37.6286 313.928 37.5908 315.5 37.4999C316.865 37.421 319 37.4999 319 37.4999" stroke="#7897C5"/>
<path d="M299 45.5C299 45.5 300.18 44.24 301 43.5C302.45 42.1918 305 40.5 305 40.5" stroke="#7897C5"/>
<path d="M305.5 46.5C305.5 46.5 307.641 43.6937 309.5 42.5C311.423 41.265 315 40.5 315 40.5" stroke="#7897C5"/>
<path d="M200.5 147C200.5 147 197 151.5 196 152C195.751 152.125 195.501 152.218 195.267 152.289C194.45 152.534 193.587 152.362 192.778 152.093L192.342 151.947C191.459 151.653 190.658 151.158 190 150.5L189.163 149.663C189.056 149.556 188.975 149.425 188.927 149.282V149.282C188.717 148.651 189.186 148 189.851 148H191.064C191.351 148 191.634 148.067 191.89 148.195L193.488 148.994C194.145 149.322 194.678 149.855 195.006 150.512V150.512C195.327 151.154 195.436 151.881 195.318 152.589L195.152 153.587C195.053 154.181 194.771 154.729 194.346 155.154V155.154C193.804 155.696 193.07 156 192.304 156H191.416C191.139 156 190.863 155.977 190.589 155.932L188.858 155.643C188.289 155.548 187.738 155.369 187.222 155.111L186.325 154.663C186.111 154.556 185.925 154.4 185.782 154.209L185.231 153.474C184.871 152.995 185.087 152.304 185.655 152.115V152.115C185.876 152.041 186.117 152.058 186.325 152.163L189 153.5L190.178 154.089C190.715 154.357 191.164 154.773 191.473 155.288L191.847 155.911C192.246 156.576 192.226 157.411 191.796 158.057V158.057C191.602 158.347 191.336 158.582 191.023 158.738L190.441 159.029C189.822 159.339 189.14 159.5 188.448 159.5H187.5V159.5C186.17 159.5 184.843 159.369 183.539 159.108L183 159" stroke="black"/>
<path d="M165.5 158.5C167.257 158.695 168.299 159.482 170 159C170.84 158.762 171.282 158.497 172 158C172.908 157.371 174.089 157.101 174 156C173.943 155.298 173.514 154.981 173 154.5C172.362 153.904 171.781 153.891 171 153.5C170.219 153.109 169.803 152.844 169 152.5C167.865 152.014 166.325 150.309 166 151.5C165.743 152.442 166.785 152.835 167.5 153.5C168.334 154.275 168.933 154.602 170 155C171.113 155.415 171.821 155.648 173 155.5C174.043 155.369 174.672 155.148 175.5 154.5C176.269 153.898 176.769 153.449 177 152.5C177.138 151.931 177.185 151.556 177 151C176.738 150.214 176.111 150.059 175.5 149.5C174.578 148.656 174.197 147.863 173 147.5C172.066 147.217 171.002 146.663 170.5 147.5C170.086 148.19 170.568 148.821 171 149.5C171.297 149.966 171.564 150.161 172 150.5C172.689 151.036 173.153 151.288 174 151.5C174.947 151.737 175.54 151.678 176.5 151.5C177.534 151.309 178.08 151.009 179 150.5C179.616 150.159 179.97 149.964 180.5 149.5C181.56 148.573 182.052 147.835 182.5 146.5" stroke="#1B1B1B"/>
<path d="M115 97.5001C114.475 96.3821 114.251 95.7092 114 94.5001C113.564 92.397 113.443 91.0746 114 89.0001C114.521 87.0584 114.743 83.5238 116.5 84.5001C118.036 85.3535 116.681 87.252 116.5 89.0001C116.251 91.4025 116.219 92.9151 115 95.0001C114.369 96.0794 114.247 97.4081 113 97.5001C112.129 97.5643 111.714 97.0028 111 96.5001C109.273 95.2841 108.797 93.9561 108 92.0001C107.249 90.1559 106.857 88.9862 107 87.0001C107.133 85.1524 107.588 84.1122 108.5 82.5001C108.847 81.8873 108.874 81.3225 109.5 81.0001C110.764 80.3491 110.282 83.0953 110.5 84.5001C110.769 86.2366 110.724 87.2571 110.5 89.0001C110.295 90.5971 110.364 91.6416 109.5 93.0001C108.907 93.932 108.585 94.7956 107.5 95.0001C106.467 95.1948 105.828 94.6483 105 94.0001C104.231 93.3982 104.024 92.8237 103.5 92.0001C102.797 90.895 102.521 90.2018 102 89.0001C100.943 86.5634 100.496 85.1092 100 82.5001" stroke="#1B1B1B"/>
<path fill-rule="evenodd" clip-rule="evenodd" d="M120.5 87.5L151.5 82L151.056 82.8028L165.474 160.901L181.5 158L186.5 185.5L170.561 188.457L175 212.5L144.5 218L140.132 194.102L76 206L71 178L71.187 177.966L70.5 177L120.5 87.5ZM135.068 166.404L127.553 125.289L101.442 172.49L135.068 166.404Z" fill="#7897C5"/>
<rect x="77.9568" y="14" width="7.58897" height="4.49613" rx="2.24806" transform="rotate(41.1186 77.9568 14)" fill="#F2F2F2"/>
<circle cx="75" cy="14" r="5" fill="#E1E1E1"/>
<path d="M79 12L71 15.9612" stroke="#F2F2F2" stroke-linecap="round" stroke-linejoin="round"/>
<mask id="path-90-inside-9" fill="white">
<path fill-rule="evenodd" clip-rule="evenodd" d="M93.7219 226.469L89.5115 226L87 229.412L88.6988 233.293L92.9092 233.762L95.4207 230.35L93.7219 226.469ZM91.1307 231.301C91.9591 231.301 92.6307 230.63 92.6307 229.801C92.6307 228.973 91.9591 228.301 91.1307 228.301C90.3022 228.301 89.6307 228.973 89.6307 229.801C89.6307 230.63 90.3022 231.301 91.1307 231.301Z"/>
</mask>
<path fill-rule="evenodd" clip-rule="evenodd" d="M93.7219 226.469L89.5115 226L87 229.412L88.6988 233.293L92.9092 233.762L95.4207 230.35L93.7219 226.469ZM91.1307 231.301C91.9591 231.301 92.6307 230.63 92.6307 229.801C92.6307 228.973 91.9591 228.301 91.1307 228.301C90.3022 228.301 89.6307 228.973 89.6307 229.801C89.6307 230.63 90.3022 231.301 91.1307 231.301Z" fill="#E0E0E0"/>
<path d="M89.5115 226L89.6223 225.006L89.0485 224.942L88.7062 225.407L89.5115 226ZM93.7219 226.469L94.638 226.068L94.4065 225.539L93.8327 225.475L93.7219 226.469ZM87 229.412L86.1947 228.819L85.8524 229.284L86.0839 229.813L87 229.412ZM88.6988 233.293L87.7827 233.694L88.0143 234.222L88.588 234.286L88.6988 233.293ZM92.9092 233.762L92.7984 234.756L93.3722 234.82L93.7145 234.355L92.9092 233.762ZM95.4207 230.35L96.226 230.943L96.5683 230.478L96.3368 229.949L95.4207 230.35ZM89.4008 226.994L93.6111 227.463L93.8327 225.475L89.6223 225.006L89.4008 226.994ZM87.8053 230.005L90.3169 226.593L88.7062 225.407L86.1947 228.819L87.8053 230.005ZM89.6149 232.892L87.9161 229.011L86.0839 229.813L87.7827 233.694L89.6149 232.892ZM93.0199 232.768L88.8096 232.299L88.588 234.286L92.7984 234.756L93.0199 232.768ZM94.6154 229.757L92.1039 233.169L93.7145 234.355L96.226 230.943L94.6154 229.757ZM92.8058 226.87L94.5046 230.751L96.3368 229.949L94.638 226.068L92.8058 226.87ZM91.6307 229.801C91.6307 230.077 91.4068 230.301 91.1307 230.301V232.301C92.5114 232.301 93.6307 231.182 93.6307 229.801H91.6307ZM91.1307 229.301C91.4068 229.301 91.6307 229.525 91.6307 229.801H93.6307C93.6307 228.421 92.5114 227.301 91.1307 227.301V229.301ZM90.6307 229.801C90.6307 229.525 90.8545 229.301 91.1307 229.301V227.301C89.7499 227.301 88.6307 228.421 88.6307 229.801H90.6307ZM91.1307 230.301C90.8545 230.301 90.6307 230.077 90.6307 229.801H88.6307C88.6307 231.182 89.7499 232.301 91.1307 232.301V230.301Z" fill="#E0E0E0" mask="url(#path-90-inside-9)"/>
<mask id="path-92-inside-10" fill="white">
<path fill-rule="evenodd" clip-rule="evenodd" d="M92.7219 224.469L88.5115 224L86 227.412L87.6988 231.293L91.9092 231.762L94.4207 228.35L92.7219 224.469ZM90.1307 229.301C90.9591 229.301 91.6307 228.63 91.6307 227.801C91.6307 226.973 90.9591 226.301 90.1307 226.301C89.3022 226.301 88.6307 226.973 88.6307 227.801C88.6307 228.63 89.3022 229.301 90.1307 229.301Z"/>
</mask>
<path fill-rule="evenodd" clip-rule="evenodd" d="M92.7219 224.469L88.5115 224L86 227.412L87.6988 231.293L91.9092 231.762L94.4207 228.35L92.7219 224.469ZM90.1307 229.301C90.9591 229.301 91.6307 228.63 91.6307 227.801C91.6307 226.973 90.9591 226.301 90.1307 226.301C89.3022 226.301 88.6307 226.973 88.6307 227.801C88.6307 228.63 89.3022 229.301 90.1307 229.301Z" fill="#F0F0F0"/>
<path d="M88.5115 224L88.6223 223.006L88.0485 222.942L87.7062 223.407L88.5115 224ZM92.7219 224.469L93.638 224.068L93.4065 223.539L92.8327 223.475L92.7219 224.469ZM86 227.412L85.1947 226.819L84.8524 227.284L85.0839 227.813L86 227.412ZM87.6988 231.293L86.7827 231.694L87.0143 232.222L87.588 232.286L87.6988 231.293ZM91.9092 231.762L91.7984 232.756L92.3722 232.82L92.7145 232.355L91.9092 231.762ZM94.4207 228.35L95.226 228.943L95.5683 228.478L95.3368 227.949L94.4207 228.35ZM88.4008 224.994L92.6111 225.463L92.8327 223.475L88.6223 223.006L88.4008 224.994ZM86.8053 228.005L89.3169 224.593L87.7062 223.407L85.1947 226.819L86.8053 228.005ZM88.6149 230.892L86.9161 227.011L85.0839 227.813L86.7827 231.694L88.6149 230.892ZM92.0199 230.768L87.8096 230.299L87.588 232.286L91.7984 232.756L92.0199 230.768ZM93.6154 227.757L91.1039 231.169L92.7145 232.355L95.226 228.943L93.6154 227.757ZM91.8058 224.87L93.5046 228.751L95.3368 227.949L93.638 224.068L91.8058 224.87ZM90.6307 227.801C90.6307 228.077 90.4068 228.301 90.1307 228.301V230.301C91.5114 230.301 92.6307 229.182 92.6307 227.801H90.6307ZM90.1307 227.301C90.4068 227.301 90.6307 227.525 90.6307 227.801H92.6307C92.6307 226.421 91.5114 225.301 90.1307 225.301V227.301ZM89.6307 227.801C89.6307 227.525 89.8545 227.301 90.1307 227.301V225.301C88.7499 225.301 87.6307 226.421 87.6307 227.801H89.6307ZM90.1307 228.301C89.8545 228.301 89.6307 228.077 89.6307 227.801H87.6307C87.6307 229.182 88.7499 230.301 90.1307 230.301V228.301Z" fill="#F1F1F1" mask="url(#path-92-inside-10)"/>
<path d="M206.942 104.363L206.972 104.144L206.986 103.923C208.467 81.2138 212.509 64.9944 219.979 54.5254C227.061 44.6001 237.858 39 255.5 39C275.734 39 287.421 44.097 294.382 52.7106C301.58 61.6175 304.963 75.726 305 96.654C301.261 131.244 294.473 148.048 286.244 156.453C278.37 164.496 268.035 166 252.5 166C238.259 166 225.608 161.338 217.226 151.877C208.902 142.482 203.867 127.309 206.942 104.363Z" fill="#1B2E35" stroke="#7897C5" stroke-width="13"/>
<path d="M206.942 104.363L206.972 104.144L206.986 103.923C208.467 81.2138 212.509 64.9944 219.979 54.5254C227.061 44.6001 237.858 39 255.5 39C275.734 39 287.421 44.097 294.382 52.7106C301.58 61.6175 304.963 75.726 305 96.654C301.261 131.244 294.473 148.048 286.244 156.453C278.37 164.496 268.035 166 252.5 166C238.259 166 225.608 161.338 217.226 151.877C208.902 142.482 203.867 127.309 206.942 104.363Z" stroke="#7897C5" stroke-width="13"/>
<path fill-rule="evenodd" clip-rule="evenodd" d="M287.127 135.894C286.655 134.95 286.094 134.058 285.456 133.23L286.062 131.714L284.32 129.971L282.973 130.644C282.336 130.112 281.659 129.627 280.946 129.195L280.98 127.26L278.737 126.237L277.552 127.638C276.754 127.378 275.93 127.177 275.083 127.041L274.314 125.273L271.849 125.273L271.373 126.87C270.172 126.949 269.008 127.157 267.892 127.481L266.599 126.08L264.338 127.061L264.452 128.925L264.457 128.923C263.721 129.336 263.02 129.805 262.36 130.323L260.644 129.686L258.935 131.462L259.746 132.895C259.27 133.481 258.834 134.1 258.442 134.748L256.549 134.671L255.474 136.889L256.892 138.126C256.631 138.925 256.43 139.751 256.294 140.598L254.542 141.341L254.518 143.806L256.122 144.301C256.192 145.378 256.367 146.426 256.635 147.436L255.379 148.706L256.294 150.995L257.967 150.843C258.307 151.489 258.688 152.108 259.108 152.699L258.293 154.425L259.917 156.28L261.58 155.456C262.248 156.051 262.965 156.591 263.723 157.071L263.639 158.892L265.85 159.98L267.052 158.681C267.956 158.998 268.896 159.237 269.864 159.392L270.588 161.12L273.053 161.154L273.552 159.563C274.415 159.506 275.26 159.383 276.082 159.198L275.954 159.249L277.349 160.594L279.625 159.649L279.458 158.036C280.475 157.556 281.434 156.974 282.323 156.303L284.014 156.922L285.704 155.128L284.983 153.787C285.461 153.223 285.9 152.626 286.299 152L288.144 152.003L289.119 149.739L287.862 148.834C288.228 147.83 288.499 146.781 288.664 145.696L290.285 144.82L290.062 142.365L288.811 142.071C288.745 141.12 288.599 140.19 288.377 139.291L289.628 138.013L288.688 135.734L287.127 135.894Z" fill="#5C7DB3"/>
<circle cx="272.5" cy="143.5" r="5.5" fill="#1B2E35"/>
<mask id="path-98-inside-11" fill="white">
<path fill-rule="evenodd" clip-rule="evenodd" d="M237.098 103L229.957 103.901L228.999 108.006C228.428 108.313 227.876 108.649 227.345 109.013L222.245 108.814L218 114.626L220.403 118.253C220.04 119.364 219.781 120.523 219.64 121.717L216 125.235L217.262 132.32L222.14 133.201C222.313 133.484 222.494 133.762 222.682 134.035L222.447 140.041L228.257 144.288L232.891 141.22C233.229 141.309 233.571 141.389 233.917 141.458L237.759 146L244.865 144.859L245.881 139.73C246.343 139.486 246.792 139.222 247.228 138.939L253.336 139.151L257.225 133.096L254.598 129.312C254.759 128.808 254.898 128.294 255.015 127.771L259.349 123.507L258.023 116.433L253.366 115.452C253.086 114.922 252.78 114.409 252.451 113.913V108.377L246.462 104.385L242.791 106.68C241.806 106.376 240.785 106.154 239.735 106.023L237.098 103Z"/>
</mask>
<path fill-rule="evenodd" clip-rule="evenodd" d="M237.098 103L229.957 103.901L228.999 108.006C228.428 108.313 227.876 108.649 227.345 109.013L222.245 108.814L218 114.626L220.403 118.253C220.04 119.364 219.781 120.523 219.64 121.717L216 125.235L217.262 132.32L222.14 133.201C222.313 133.484 222.494 133.762 222.682 134.035L222.447 140.041L228.257 144.288L232.891 141.22C233.229 141.309 233.571 141.389 233.917 141.458L237.759 146L244.865 144.859L245.881 139.73C246.343 139.486 246.792 139.222 247.228 138.939L253.336 139.151L257.225 133.096L254.598 129.312C254.759 128.808 254.898 128.294 255.015 127.771L259.349 123.507L258.023 116.433L253.366 115.452C253.086 114.922 252.78 114.409 252.451 113.913V108.377L246.462 104.385L242.791 106.68C241.806 106.376 240.785 106.154 239.735 106.023L237.098 103Z" fill="#1B2E35"/>
<path d="M229.957 103.901L229.832 102.908L229.142 102.995L228.983 103.673L229.957 103.901ZM237.098 103L237.851 102.343L237.501 101.941L236.973 102.008L237.098 103ZM228.999 108.006L229.472 108.888L229.87 108.674L229.973 108.234L228.999 108.006ZM227.345 109.013L227.306 110.012L227.636 110.025L227.909 109.838L227.345 109.013ZM222.245 108.814L222.284 107.815L221.752 107.794L221.438 108.224L222.245 108.814ZM218 114.626L217.193 114.036L216.782 114.598L217.166 115.178L218 114.626ZM220.403 118.253L221.354 118.565L221.504 118.105L221.237 117.701L220.403 118.253ZM219.64 121.717L220.335 122.436L220.592 122.188L220.633 121.834L219.64 121.717ZM216 125.235L215.305 124.516L214.922 124.886L215.015 125.41L216 125.235ZM217.262 132.32L216.277 132.496L216.399 133.181L217.084 133.304L217.262 132.32ZM222.14 133.201L222.993 132.679L222.759 132.296L222.317 132.217L222.14 133.201ZM222.682 134.035L223.681 134.074L223.694 133.742L223.505 133.467L222.682 134.035ZM222.447 140.041L221.448 140.002L221.427 140.534L221.857 140.849L222.447 140.041ZM228.257 144.288L227.667 145.096L228.229 145.506L228.809 145.122L228.257 144.288ZM232.891 141.22L233.146 140.253L232.713 140.139L232.339 140.386L232.891 141.22ZM233.917 141.458L234.68 140.812L234.455 140.547L234.114 140.478L233.917 141.458ZM237.759 146L236.996 146.646L237.36 147.077L237.918 146.987L237.759 146ZM244.865 144.859L245.024 145.846L245.711 145.736L245.846 145.053L244.865 144.859ZM245.881 139.73L245.413 138.847L244.993 139.069L244.901 139.536L245.881 139.73ZM247.228 138.939L247.263 137.94L246.949 137.929L246.685 138.1L247.228 138.939ZM253.336 139.151L253.301 140.151L253.87 140.171L254.177 139.692L253.336 139.151ZM257.225 133.096L258.067 133.636L258.428 133.074L258.047 132.526L257.225 133.096ZM254.598 129.312L253.646 129.008L253.496 129.478L253.777 129.882L254.598 129.312ZM255.015 127.771L254.313 127.058L254.103 127.265L254.039 127.554L255.015 127.771ZM259.349 123.507L260.05 124.22L260.43 123.846L260.331 123.323L259.349 123.507ZM258.023 116.433L259.006 116.249L258.883 115.592L258.229 115.454L258.023 116.433ZM253.366 115.452L252.483 115.919L252.702 116.333L253.16 116.43L253.366 115.452ZM252.451 113.913H251.451V114.215L251.618 114.467L252.451 113.913ZM252.451 108.377H253.451V107.842L253.005 107.545L252.451 108.377ZM246.462 104.385L247.017 103.553L246.48 103.195L245.932 103.537L246.462 104.385ZM242.791 106.68L242.495 107.636L242.933 107.771L243.321 107.528L242.791 106.68ZM239.735 106.023L238.982 106.68L239.233 106.967L239.611 107.015L239.735 106.023ZM230.082 104.893L237.223 103.992L236.973 102.008L229.832 102.908L230.082 104.893ZM229.973 108.234L230.931 104.128L228.983 103.673L228.025 107.779L229.973 108.234ZM228.526 107.125C227.924 107.449 227.341 107.803 226.78 108.187L227.909 109.838C228.411 109.494 228.933 109.177 229.472 108.888L228.526 107.125ZM227.383 108.013L222.284 107.815L222.207 109.814L227.306 110.012L227.383 108.013ZM221.438 108.224L217.193 114.036L218.808 115.216L223.053 109.404L221.438 108.224ZM217.166 115.178L219.57 118.806L221.237 117.701L218.834 114.074L217.166 115.178ZM219.453 117.942C219.069 119.116 218.796 120.339 218.647 121.6L220.633 121.834C220.767 120.706 221.011 119.613 221.354 118.565L219.453 117.942ZM218.946 120.998L215.305 124.516L216.695 125.954L220.335 122.436L218.946 120.998ZM215.015 125.41L216.277 132.496L218.246 132.145L216.985 125.059L215.015 125.41ZM217.084 133.304L221.962 134.185L222.317 132.217L217.439 131.336L217.084 133.304ZM221.286 133.722C221.469 134.021 221.66 134.315 221.859 134.603L223.505 133.467C223.327 133.21 223.157 132.947 222.993 132.679L221.286 133.722ZM221.683 133.996L221.448 140.002L223.446 140.081L223.681 134.074L221.683 133.996ZM221.857 140.849L227.667 145.096L228.847 143.481L223.037 139.234L221.857 140.849ZM228.809 145.122L233.443 142.054L232.339 140.386L227.705 143.454L228.809 145.122ZM232.636 142.187C232.993 142.281 233.354 142.365 233.719 142.439L234.114 140.478C233.788 140.412 233.465 140.337 233.146 140.253L232.636 142.187ZM233.153 142.104L236.996 146.646L238.523 145.354L234.68 140.812L233.153 142.104ZM237.918 146.987L245.024 145.846L244.707 143.872L237.601 145.013L237.918 146.987ZM245.846 145.053L246.862 139.924L244.901 139.536L243.884 144.665L245.846 145.053ZM246.35 140.614C246.837 140.355 247.311 140.077 247.772 139.779L246.685 138.1C246.273 138.366 245.849 138.616 245.413 138.847L246.35 140.614ZM247.194 139.939L253.301 140.151L253.37 138.152L247.263 137.94L247.194 139.939ZM254.177 139.692L258.067 133.636L256.384 132.555L252.494 138.611L254.177 139.692ZM258.047 132.526L255.42 128.742L253.777 129.882L256.404 133.666L258.047 132.526ZM255.551 129.616C255.721 129.083 255.868 128.54 255.991 127.989L254.039 127.554C253.929 128.047 253.797 128.532 253.646 129.008L255.551 129.616ZM255.716 128.484L260.05 124.22L258.647 122.794L254.313 127.058L255.716 128.484ZM260.331 123.323L259.006 116.249L257.04 116.617L258.366 123.691L260.331 123.323ZM258.229 115.454L253.573 114.473L253.16 116.43L257.817 117.411L258.229 115.454ZM254.25 114.984C253.954 114.425 253.631 113.883 253.283 113.359L251.618 114.467C251.929 114.935 252.218 115.42 252.483 115.919L254.25 114.984ZM253.451 113.913V108.377H251.451V113.913H253.451ZM253.005 107.545L247.017 103.553L245.908 105.217L251.896 109.209L253.005 107.545ZM245.932 103.537L242.261 105.832L243.321 107.528L246.992 105.233L245.932 103.537ZM243.086 105.725C242.046 105.403 240.967 105.169 239.86 105.03L239.611 107.015C240.602 107.139 241.566 107.348 242.495 107.636L243.086 105.725ZM236.344 103.657L238.982 106.68L240.489 105.365L237.851 102.343L236.344 103.657Z" fill="white" mask="url(#path-98-inside-11)"/>
<circle cx="236.976" cy="123.976" r="11.4764" stroke="white"/>
<path fill-rule="evenodd" clip-rule="evenodd" d="M276.132 88.9894L270.698 92.6055L271.578 96.3267C271.238 96.8058 270.926 97.3017 270.641 97.8118L266.42 99.7111L265.321 106.145L268.738 108.12C268.892 109.169 269.15 110.214 269.518 111.241L267.983 115.568L271.87 120.812L276.187 119.556C276.442 119.716 276.701 119.869 276.964 120.015L279.2 124.987L285.634 126.088L288.157 121.725C288.468 121.66 288.778 121.587 289.086 121.503L294.041 123.639L299.351 119.842L298.104 115.266C298.38 114.881 298.638 114.485 298.878 114.08L303.923 111.785L304.635 105.296L300.973 103.285C300.9 102.81 300.805 102.337 300.689 101.865L302.485 96.6519L298.55 91.4434L294.373 92.5277C293.932 92.2112 293.476 91.9179 293.008 91.6483L290.771 87.1533L284.296 86.3308L282.241 89.6778C281.319 89.8286 280.4 90.0609 279.495 90.3781L276.132 88.9894Z" fill="white"/>
<circle cx="285.145" cy="106.285" r="6.80232" transform="rotate(-26.4519 285.145 106.285)" fill="#1B2E35"/>
<path fill-rule="evenodd" clip-rule="evenodd" d="M270.528 63.9972C269.851 62.6433 269.046 61.364 268.13 60.1748L269 58.0001L266.5 55.5001L264.568 56.4661C263.655 55.7024 262.683 55.0069 261.661 54.3871L261.709 51.6117L258.493 50.1439L256.793 52.1537C255.648 51.7804 254.465 51.4926 253.251 51.2978L252.147 48.7619L248.611 48.762L247.928 51.0518C246.206 51.1655 244.535 51.4646 242.935 51.9294L241.08 49.919L237.836 51.3257L238 54.0001L238.008 53.9969C236.952 54.59 235.946 55.2624 234.999 56.006L232.538 55.092L230.087 57.6396L231.249 59.695C230.567 60.535 229.941 61.423 229.379 62.3532L226.664 62.2429L225.122 65.4246L227.156 67.1996C226.782 68.3453 226.494 69.5297 226.298 70.7453L223.785 71.8107L223.751 75.3461L226.051 76.0567C226.152 77.6015 226.402 79.1055 226.787 80.5545L224.985 82.3767L226.298 85.6596L228.697 85.4422C229.185 86.3674 229.733 87.2562 230.335 88.1033L229.166 90.5799L231.494 93.2402L233.881 92.0589C234.839 92.9115 235.867 93.6868 236.955 94.3752L236.834 96.9875L240.006 98.548L241.731 96.6855C243.027 97.1394 244.375 97.4829 245.764 97.7048L246.803 100.184L250.338 100.233L251.054 97.9495C252.293 97.8687 253.505 97.6918 254.684 97.4264L254.5 97.5001L256.5 99.4284L259.766 98.0739L259.527 95.7599C260.985 95.0706 262.362 94.2356 263.637 93.2736L266.062 94.161L268.487 91.5878L267.453 89.6647C268.137 88.8552 268.768 87.9987 269.34 87.1008L271.987 87.1056L273.385 83.8584L271.582 82.559C272.107 81.1194 272.496 79.6139 272.732 78.0584L275.058 76.8013L274.737 73.2803L272.944 72.8584C272.849 71.4934 272.639 70.1604 272.321 68.8694L274.115 67.0367L272.767 63.7683L270.528 63.9972Z" fill="#7897C5"/>
<circle cx="249" cy="75" r="16" fill="#1B2E35"/>
<path d="M205.942 104.363L205.972 104.144L205.986 103.923C207.467 81.2138 211.509 64.9944 218.979 54.5254C226.061 44.6001 236.858 39 254.5 39C274.734 39 286.421 44.097 293.382 52.7106C300.58 61.6175 303.963 75.726 304 96.654C300.261 131.244 293.473 148.048 285.244 156.453C277.37 164.496 267.035 166 251.5 166C237.259 166 224.608 161.338 216.226 151.877C207.902 142.482 202.867 127.309 205.942 104.363Z" stroke="#7897C5" stroke-width="13"/>
</svg>
