<svg width="147" height="50" viewBox="0 0 147 50" fill="none" xmlns="http://www.w3.org/2000/svg">
<rect x="0.817139" width="146" height="50" rx="10" fill="black"/>
<path d="M73.9811 26.888C71.6291 26.888 69.7121 28.676 69.7121 31.141C69.7121 33.59 71.6291 35.394 73.9811 35.394C76.3331 35.394 78.2501 33.59 78.2501 31.141C78.2501 28.676 76.3331 26.888 73.9811 26.888ZM73.9811 33.719C72.6921 33.719 71.5801 32.656 71.5801 31.141C71.5801 29.61 72.6921 28.563 73.9811 28.563C75.2701 28.563 76.3811 29.61 76.3811 31.141C76.3811 32.655 75.2701 33.719 73.9811 33.719ZM64.6671 26.888C62.3151 26.888 60.3981 28.676 60.3981 31.141C60.3981 33.59 62.3151 35.394 64.6671 35.394C67.0191 35.394 68.9361 33.59 68.9361 31.141C68.9371 28.676 67.0191 26.888 64.6671 26.888ZM64.6671 33.719C63.3781 33.719 62.2671 32.656 62.2671 31.141C62.2671 29.61 63.3791 28.563 64.6671 28.563C65.9561 28.563 67.0671 29.61 67.0671 31.141C67.0681 32.655 65.9561 33.719 64.6671 33.719ZM53.5891 28.193V29.997H57.9071C57.7781 31.012 57.4401 31.753 56.9241 32.269C56.2961 32.897 55.3131 33.59 53.5891 33.59C50.9311 33.59 48.8531 31.447 48.8531 28.789C48.8531 26.131 50.9311 23.988 53.5891 23.988C55.0231 23.988 56.0701 24.552 56.8431 25.277L58.1161 24.004C57.0371 22.973 55.6031 22.183 53.5891 22.183C49.9481 22.183 46.8871 25.147 46.8871 28.788C46.8871 32.429 49.9481 35.393 53.5891 35.393C55.5541 35.393 57.0371 34.749 58.1971 33.54C59.3891 32.348 59.7601 30.672 59.7601 29.319C59.7601 28.9 59.7281 28.513 59.6631 28.191H53.5891V28.193ZM98.8971 29.594C98.5431 28.643 97.4632 26.887 95.2561 26.887C93.0651 26.887 91.2451 28.611 91.2451 31.14C91.2451 33.524 93.0491 35.393 95.4661 35.393C97.4151 35.393 98.5431 34.201 99.0101 33.508L97.5601 32.541C97.0771 33.25 96.4161 33.717 95.4661 33.717C94.5151 33.717 93.8391 33.282 93.4041 32.428L99.0911 30.076L98.8971 29.594ZM93.0971 31.012C93.0491 29.369 94.3701 28.531 95.3201 28.531C96.0611 28.531 96.6891 28.901 96.8991 29.433L93.0971 31.012ZM88.4731 35.136H90.3421V22.635H88.4731V35.136ZM85.4121 27.838H85.3481C84.9291 27.339 84.1241 26.887 83.1091 26.887C80.9821 26.887 79.0331 28.756 79.0331 31.156C79.0331 33.54 80.9821 35.393 83.1091 35.393C84.1241 35.393 84.9291 34.942 85.3481 34.426H85.4121V35.038C85.4121 36.665 84.5421 37.535 83.1401 37.535C81.9961 37.535 81.2871 36.713 80.9971 36.021L79.3701 36.698C79.8371 37.826 81.0781 39.211 83.1401 39.211C85.3311 39.211 87.1841 37.922 87.1841 34.781V27.145H85.4121V27.838ZM83.2701 33.719C81.9811 33.719 80.9021 32.64 80.9021 31.157C80.9021 29.659 81.9811 28.563 83.2701 28.563C84.5431 28.563 85.5411 29.658 85.5411 31.157C85.5411 32.639 84.5431 33.719 83.2701 33.719ZM107.651 22.635H103.18V35.136H105.045V30.4H107.65C109.718 30.4 111.751 28.903 111.751 26.518C111.751 24.133 109.719 22.635 107.651 22.635ZM107.699 28.66H105.045V24.375H107.699C109.094 24.375 109.886 25.53 109.886 26.518C109.886 27.486 109.094 28.66 107.699 28.66ZM119.231 26.865C117.88 26.865 116.481 27.46 115.902 28.779L117.559 29.471C117.913 28.779 118.572 28.554 119.264 28.554C120.229 28.554 121.21 29.133 121.226 30.162V30.291C120.888 30.098 120.164 29.808 119.28 29.808C117.495 29.808 115.677 30.789 115.677 32.623C115.677 34.296 117.141 35.373 118.781 35.373C120.036 35.373 120.727 34.81 121.161 34.151H121.225V35.116H123.026V30.323C123.026 28.103 121.37 26.865 119.231 26.865ZM119.005 33.716C118.394 33.716 117.541 33.41 117.541 32.655C117.541 31.69 118.603 31.32 119.519 31.32C120.339 31.32 120.725 31.497 121.224 31.738C121.08 32.896 120.083 33.716 119.005 33.716ZM129.588 27.138L127.449 32.558H127.385L125.166 27.138H123.156L126.485 34.713L124.587 38.927H126.533L131.664 27.138H129.588ZM112.781 35.136H114.647V22.635H112.781V35.136Z" fill="white"/>
<path d="M16.2801 12.6741C15.9891 12.9821 15.8171 13.4601 15.8171 14.0791V36.1951C15.8171 36.8151 15.9891 37.2921 16.2801 37.6001L16.3541 37.6721L28.7431 25.2831V25.1371V24.9911L16.3541 12.6011L16.2801 12.6741Z" fill="url(#paint0_linear)"/>
<path d="M32.8731 29.4151L28.7441 25.2841V25.1381V24.9921L32.8741 20.8621L32.9671 20.9151L37.8601 23.6951C39.2581 24.4891 39.2581 25.7881 37.8601 26.5831L32.9671 29.3631L32.8731 29.4151Z" fill="url(#paint1_linear)"/>
<path d="M32.9672 29.3611L28.7442 25.1371L16.2802 37.6001C16.7412 38.0881 17.5012 38.1481 18.3582 37.6611L32.9672 29.3611Z" fill="url(#paint2_linear)"/>
<path d="M32.9672 20.913L18.3592 12.613C17.5022 12.126 16.7422 12.187 16.2812 12.674L28.7442 25.137L32.9672 20.913Z" fill="url(#paint3_linear)"/>
<path opacity="0.2" d="M32.8741 29.2681L18.3592 37.5151C17.5472 37.9761 16.8212 37.9461 16.3552 37.5261L16.2802 37.6011L16.3542 37.6731C16.8202 38.0931 17.5462 38.1241 18.3582 37.6621L32.9662 29.3621L32.8741 29.2681Z" fill="black"/>
<path opacity="0.12" d="M16.2801 37.4541C15.9891 37.1461 15.8171 36.6681 15.8171 36.0491V36.1951C15.8171 36.8141 15.9891 37.2921 16.2801 37.6001L16.3551 37.5251L16.2801 37.4541Z" fill="black"/>
<path opacity="0.12" d="M37.8601 26.4351L32.8741 29.2681L32.9671 29.3611L37.8601 26.5811C38.5591 26.1841 38.9081 25.6611 38.9081 25.1381C38.8491 25.6111 38.4931 26.0751 37.8601 26.4351Z" fill="black"/>
<path opacity="0.25" d="M18.3581 12.759L37.8591 23.839C38.4931 24.199 38.8481 24.663 38.9071 25.137C38.9071 24.614 38.5581 24.09 37.8591 23.693L18.3581 12.613C16.9601 11.819 15.8171 12.478 15.8171 14.079V14.226C15.8171 12.625 16.9611 11.965 18.3581 12.759Z" fill="white"/>
<path fill-rule="evenodd" clip-rule="evenodd" d="M79.4542 17.36C78.8642 17.967 78.1312 18.269 77.2542 18.269C76.3772 18.269 75.6442 17.966 75.0552 17.36C74.4652 16.754 74.1712 16.012 74.1712 15.135C74.1712 14.258 74.4652 13.516 75.0552 12.91C75.6442 12.303 76.3772 12 77.2542 12C78.1262 12 78.8582 12.305 79.4502 12.914C80.0422 13.523 80.3382 14.263 80.3382 15.135C80.3382 16.013 80.0432 16.755 79.4542 17.36ZM75.6242 16.858C76.0682 17.308 76.6112 17.532 77.2542 17.532C77.8972 17.532 78.4402 17.307 78.8842 16.858C79.3282 16.408 79.5512 15.834 79.5512 15.136C79.5512 14.438 79.3282 13.863 78.8842 13.414C78.4412 12.964 77.8972 12.74 77.2542 12.74C76.6112 12.74 76.0682 12.965 75.6242 13.414C75.1812 13.864 74.9582 14.438 74.9582 15.136C74.9582 15.834 75.1812 16.408 75.6242 16.858ZM53.2632 15.379C53.2632 16.217 53.0152 16.884 52.5182 17.382C51.9542 17.974 51.2182 18.27 50.3142 18.27C49.4482 18.27 48.7112 17.97 48.1062 17.37C47.5002 16.769 47.1972 16.025 47.1972 15.137C47.1972 14.248 47.5002 13.504 48.1062 12.904C48.7112 12.303 49.4482 12.003 50.3142 12.003C50.7442 12.003 51.1552 12.087 51.5452 12.254C51.9362 12.422 52.2492 12.645 52.4832 12.924L51.9562 13.452C51.5592 12.977 51.0122 12.74 50.3132 12.74C49.6812 12.74 49.1352 12.962 48.6742 13.406C48.2142 13.85 47.9842 14.426 47.9842 15.136C47.9842 15.846 48.2142 16.422 48.6752 16.867C49.1362 17.311 49.6822 17.533 50.3142 17.533C50.9842 17.533 51.5432 17.31 51.9902 16.863C52.2802 16.572 52.4482 16.167 52.4932 15.648H50.3142V14.926H53.2212C53.2502 15.083 53.2632 15.234 53.2632 15.379ZM57.8732 12.873H55.1412V14.775H57.6052V15.496H55.1412V17.398H57.8732V18.136H54.3702V12.136H57.8732V12.873ZM60.3522 18.136H61.1232V12.873H62.7992V12.136H58.6762V12.873H60.3522V18.136ZM65.7832 18.136V12.136H66.5542V18.136H65.7832ZM69.2012 18.136H69.9722V12.873H71.6482V12.136H67.5252V12.873H69.2012V18.136ZM81.4202 12.136V18.136H82.1892V14.398L82.1562 13.242H82.1892L85.2402 18.136H86.0452V12.136H85.2742V15.648L85.3072 16.804H85.2742L82.3582 12.136H81.4202Z" fill="white"/>
<path d="M79.4542 17.36L79.3825 17.2902L79.3825 17.2903L79.4542 17.36ZM75.0552 17.36L75.1269 17.2903L75.1268 17.2902L75.0552 17.36ZM75.0552 12.91L75.1268 12.9798L75.1269 12.9796L75.0552 12.91ZM79.4502 12.914L79.3785 12.9837L79.4502 12.914ZM75.6242 16.858L75.5529 16.9282L75.553 16.9282L75.6242 16.858ZM78.8842 16.858L78.9553 16.9283L78.9554 16.9282L78.8842 16.858ZM78.8842 13.414L78.8129 13.4842L78.8131 13.4843L78.8842 13.414ZM75.6242 13.414L75.5531 13.3437L75.5529 13.3438L75.6242 13.414ZM52.5182 17.382L52.4474 17.3113L52.4458 17.313L52.5182 17.382ZM48.1062 17.37L48.0358 17.441L48.0358 17.441L48.1062 17.37ZM48.1062 12.904L48.1765 12.9751L48.1767 12.9749L48.1062 12.904ZM51.5452 12.254L51.5847 12.1621L51.5845 12.1621L51.5452 12.254ZM52.4832 12.924L52.554 12.9946L52.6186 12.9299L52.5598 12.8597L52.4832 12.924ZM51.9562 13.452L51.8794 13.5161L51.9496 13.6001L52.027 13.5226L51.9562 13.452ZM48.6742 13.406L48.6048 13.334L48.6047 13.334L48.6742 13.406ZM48.6752 16.867L48.6057 16.9389L48.6058 16.939L48.6752 16.867ZM51.9902 16.863L52.0609 16.9337L52.061 16.9336L51.9902 16.863ZM52.4932 15.648L52.5928 15.6566L52.6022 15.548H52.4932V15.648ZM50.3142 15.648H50.2142V15.748H50.3142V15.648ZM50.3142 14.926V14.826H50.2142V14.926H50.3142ZM53.2212 14.926L53.3195 14.9078L53.3044 14.826H53.2212V14.926ZM55.1412 12.873V12.773H55.0412V12.873H55.1412ZM57.8732 12.873V12.973H57.9732V12.873H57.8732ZM55.1412 14.775H55.0412V14.875H55.1412V14.775ZM57.6052 14.775H57.7052V14.675H57.6052V14.775ZM57.6052 15.496V15.596H57.7052V15.496H57.6052ZM55.1412 15.496V15.396H55.0412V15.496H55.1412ZM55.1412 17.398H55.0412V17.498H55.1412V17.398ZM57.8732 17.398H57.9732V17.298H57.8732V17.398ZM57.8732 18.136V18.236H57.9732V18.136H57.8732ZM54.3702 18.136H54.2702V18.236H54.3702V18.136ZM54.3702 12.136V12.036H54.2702V12.136H54.3702ZM57.8732 12.136H57.9732V12.036H57.8732V12.136ZM61.1232 18.136V18.236H61.2232V18.136H61.1232ZM60.3522 18.136H60.2522V18.236H60.3522V18.136ZM61.1232 12.873V12.773H61.0232V12.873H61.1232ZM62.7992 12.873V12.973H62.8992V12.873H62.7992ZM62.7992 12.136H62.8992V12.036H62.7992V12.136ZM58.6762 12.136V12.036H58.5762V12.136H58.6762ZM58.6762 12.873H58.5762V12.973H58.6762V12.873ZM60.3522 12.873H60.4522V12.773H60.3522V12.873ZM65.7832 12.136V12.036H65.6832V12.136H65.7832ZM65.7832 18.136H65.6832V18.236H65.7832V18.136ZM66.5542 12.136H66.6542V12.036H66.5542V12.136ZM66.5542 18.136V18.236H66.6542V18.136H66.5542ZM69.9722 18.136V18.236H70.0722V18.136H69.9722ZM69.2012 18.136H69.1012V18.236H69.2012V18.136ZM69.9722 12.873V12.773H69.8722V12.873H69.9722ZM71.6482 12.873V12.973H71.7482V12.873H71.6482ZM71.6482 12.136H71.7482V12.036H71.6482V12.136ZM67.5252 12.136V12.036H67.4252V12.136H67.5252ZM67.5252 12.873H67.4252V12.973H67.5252V12.873ZM69.2012 12.873H69.3012V12.773H69.2012V12.873ZM81.4202 18.136H81.3202V18.236H81.4202V18.136ZM81.4202 12.136V12.036H81.3202V12.136H81.4202ZM82.1892 18.136V18.236H82.2892V18.136H82.1892ZM82.1892 14.398H82.2892L82.2891 14.3951L82.1892 14.398ZM82.1562 13.242V13.142H82.0533L82.0562 13.2449L82.1562 13.242ZM82.1892 13.242L82.274 13.1891L82.2447 13.142H82.1892V13.242ZM85.2402 18.136L85.1553 18.1889L85.1847 18.236H85.2402V18.136ZM86.0452 18.136V18.236H86.1452V18.136H86.0452ZM86.0452 12.136H86.1452V12.036H86.0452V12.136ZM85.2742 12.136V12.036H85.1742V12.136H85.2742ZM85.2742 15.648H85.1741L85.1742 15.6509L85.2742 15.648ZM85.3072 16.804V16.904H85.4101L85.4071 16.8011L85.3072 16.804ZM85.2742 16.804L85.1894 16.857L85.2187 16.904H85.2742V16.804ZM82.3582 12.136L82.443 12.083L82.4136 12.036H82.3582V12.136ZM77.2542 18.369C78.157 18.369 78.9162 18.0569 79.5259 17.4297L79.3825 17.2903C78.8121 17.8771 78.1054 18.169 77.2542 18.169V18.369ZM74.9835 17.4297C75.5921 18.0559 76.3513 18.369 77.2542 18.369V18.169C76.403 18.169 75.6963 17.8761 75.1269 17.2903L74.9835 17.4297ZM74.0712 15.135C74.0712 16.0369 74.3745 16.8043 74.9835 17.4298L75.1268 17.2902C74.5558 16.7037 74.2712 15.9871 74.2712 15.135H74.0712ZM74.9835 12.8402C74.3745 13.4657 74.0712 14.2331 74.0712 15.135H74.2712C74.2712 14.2829 74.5558 13.5663 75.1268 12.9798L74.9835 12.8402ZM77.2542 11.9C76.3513 11.9 75.592 12.2131 74.9834 12.8404L75.1269 12.9796C75.6963 12.3929 76.4031 12.1 77.2542 12.1V11.9ZM79.5219 12.8443C78.9105 12.2154 78.1524 11.9 77.2542 11.9V12.1C78.0999 12.1 78.8058 12.3946 79.3785 12.9837L79.5219 12.8443ZM80.4382 15.135C80.4382 14.2377 80.1325 13.4725 79.5219 12.8443L79.3785 12.9837C79.9518 13.5735 80.2382 14.2883 80.2382 15.135H80.4382ZM79.5258 17.4298C80.1338 16.8053 80.4382 16.0379 80.4382 15.135H80.2382C80.2382 15.9881 79.9526 16.7047 79.3825 17.2902L79.5258 17.4298ZM77.2542 17.432C76.6373 17.432 76.1201 17.2183 75.6954 16.7878L75.553 16.9282C76.0162 17.3977 76.585 17.632 77.2542 17.632V17.432ZM78.8131 16.7877C78.3882 17.2174 77.8709 17.432 77.2542 17.432V17.632C77.9234 17.632 78.4922 17.3966 78.9553 16.9283L78.8131 16.7877ZM79.4512 15.136C79.4512 15.8106 79.2366 16.3584 78.813 16.7878L78.9554 16.9282C79.4198 16.4576 79.6512 15.8574 79.6512 15.136H79.4512ZM78.8131 13.4843C79.2366 13.9126 79.4512 14.4613 79.4512 15.136H79.6512C79.6512 14.4147 79.4198 13.8134 78.9553 13.3437L78.8131 13.4843ZM77.2542 12.84C77.8711 12.84 78.3892 13.0538 78.8129 13.4842L78.9554 13.3438C78.4931 12.8742 77.9233 12.64 77.2542 12.64V12.84ZM75.6953 13.4843C76.1202 13.0546 76.6374 12.84 77.2542 12.84V12.64C76.5849 12.64 76.0162 12.8754 75.5531 13.3437L75.6953 13.4843ZM75.0582 15.136C75.0582 14.4614 75.2728 13.9135 75.6954 13.4842L75.5529 13.3438C75.0896 13.8145 74.8582 14.4146 74.8582 15.136H75.0582ZM75.6954 16.7878C75.2728 16.3585 75.0582 15.8106 75.0582 15.136H74.8582C74.8582 15.8574 75.0896 16.4575 75.5529 16.9282L75.6954 16.7878ZM52.589 17.4526C53.1082 16.9324 53.3632 16.238 53.3632 15.379H53.1632C53.1632 16.196 52.9222 16.8356 52.4474 17.3114L52.589 17.4526ZM50.3142 18.37C51.2423 18.37 52.0056 18.065 52.5906 17.451L52.4458 17.313C51.9028 17.883 51.1941 18.17 50.3142 18.17V18.37ZM48.0358 17.441C48.6599 18.0599 49.4223 18.37 50.3142 18.37V18.17C49.474 18.17 48.7625 17.88 48.1766 17.299L48.0358 17.441ZM47.0972 15.137C47.0972 16.0505 47.41 16.8204 48.0358 17.441L48.1766 17.299C47.5904 16.7176 47.2972 15.9995 47.2972 15.137H47.0972ZM48.0358 12.8329C47.41 13.4526 47.0972 14.2226 47.0972 15.137H47.2972C47.2972 14.2734 47.5904 13.5554 48.1765 12.9751L48.0358 12.8329ZM50.3142 11.903C49.4223 11.903 48.6598 12.2131 48.0357 12.8331L48.1767 12.9749C48.7625 12.3929 49.474 12.103 50.3142 12.103V11.903ZM51.5845 12.1621C51.182 11.9897 50.7576 11.903 50.3142 11.903V12.103C50.7308 12.103 51.1284 12.1843 51.5058 12.3459L51.5845 12.1621ZM52.5598 12.8597C52.3141 12.5668 51.9875 12.3352 51.5847 12.1621L51.5057 12.3459C51.8849 12.5088 52.1842 12.7232 52.4066 12.9883L52.5598 12.8597ZM52.027 13.5226L52.554 12.9946L52.4124 12.8534L51.8854 13.3814L52.027 13.5226ZM50.3132 12.84C50.9869 12.84 51.504 13.067 51.8794 13.5161L52.0329 13.3879C51.6143 12.887 51.0375 12.64 50.3132 12.64V12.84ZM48.7435 13.478C49.1862 13.0517 49.7074 12.84 50.3132 12.84V12.64C49.6549 12.64 49.0842 12.8723 48.6048 13.334L48.7435 13.478ZM48.0842 15.136C48.0842 14.4499 48.3054 13.901 48.7436 13.4779L48.6047 13.334C48.123 13.799 47.8842 14.4021 47.8842 15.136H48.0842ZM48.7446 16.7951C48.3054 16.371 48.0842 15.8221 48.0842 15.136H47.8842C47.8842 15.8699 48.123 16.473 48.6057 16.9389L48.7446 16.7951ZM50.3142 17.433C49.7084 17.433 49.1872 17.2213 48.7445 16.795L48.6058 16.939C49.0852 17.4007 49.6559 17.633 50.3142 17.633V17.433ZM51.9195 16.7923C51.4925 17.2193 50.9595 17.433 50.3142 17.433V17.633C51.0089 17.633 51.5939 17.4007 52.0609 16.9337L51.9195 16.7923ZM52.3935 15.6394C52.35 16.1413 52.1888 16.5221 51.9193 16.7924L52.061 16.9336C52.3716 16.6219 52.5463 16.1927 52.5928 15.6566L52.3935 15.6394ZM50.3142 15.748H52.4932V15.548H50.3142V15.748ZM50.2142 14.926V15.648H50.4142V14.926H50.2142ZM53.2212 14.826H50.3142V15.026H53.2212V14.826ZM53.3632 15.379C53.3632 15.228 53.3496 15.0709 53.3195 14.9078L53.1228 14.9442C53.1507 15.0951 53.1632 15.24 53.1632 15.379H53.3632ZM55.1412 12.973H57.8732V12.773H55.1412V12.973ZM55.2412 14.775V12.873H55.0412V14.775H55.2412ZM57.6052 14.675H55.1412V14.875H57.6052V14.675ZM57.7052 15.496V14.775H57.5052V15.496H57.7052ZM55.1412 15.596H57.6052V15.396H55.1412V15.596ZM55.2412 17.398V15.496H55.0412V17.398H55.2412ZM57.8732 17.298H55.1412V17.498H57.8732V17.298ZM57.9732 18.136V17.398H57.7732V18.136H57.9732ZM54.3702 18.236H57.8732V18.036H54.3702V18.236ZM54.2702 12.136V18.136H54.4702V12.136H54.2702ZM57.8732 12.036H54.3702V12.236H57.8732V12.036ZM57.9732 12.873V12.136H57.7732V12.873H57.9732ZM61.1232 18.036H60.3522V18.236H61.1232V18.036ZM61.0232 12.873V18.136H61.2232V12.873H61.0232ZM62.7992 12.773H61.1232V12.973H62.7992V12.773ZM62.6992 12.136V12.873H62.8992V12.136H62.6992ZM58.6762 12.236H62.7992V12.036H58.6762V12.236ZM58.7762 12.873V12.136H58.5762V12.873H58.7762ZM60.3522 12.773H58.6762V12.973H60.3522V12.773ZM60.4522 18.136V12.873H60.2522V18.136H60.4522ZM65.6832 12.136V18.136H65.8832V12.136H65.6832ZM66.5542 12.036H65.7832V12.236H66.5542V12.036ZM66.6542 18.136V12.136H66.4542V18.136H66.6542ZM65.7832 18.236H66.5542V18.036H65.7832V18.236ZM69.9722 18.036H69.2012V18.236H69.9722V18.036ZM69.8722 12.873V18.136H70.0722V12.873H69.8722ZM71.6482 12.773H69.9722V12.973H71.6482V12.773ZM71.5482 12.136V12.873H71.7482V12.136H71.5482ZM67.5252 12.236H71.6482V12.036H67.5252V12.236ZM67.6252 12.873V12.136H67.4252V12.873H67.6252ZM69.2012 12.773H67.5252V12.973H69.2012V12.773ZM69.3012 18.136V12.873H69.1012V18.136H69.3012ZM81.5202 18.136V12.136H81.3202V18.136H81.5202ZM82.1892 18.036H81.4202V18.236H82.1892V18.036ZM82.0892 14.398V18.136H82.2892V14.398H82.0892ZM82.0562 13.2449L82.0892 14.4009L82.2891 14.3951L82.2561 13.2391L82.0562 13.2449ZM82.1892 13.142H82.1562V13.342H82.1892V13.142ZM85.325 18.0831L82.274 13.1891L82.1043 13.2949L85.1553 18.1889L85.325 18.0831ZM86.0452 18.036H85.2402V18.236H86.0452V18.036ZM85.9452 12.136V18.136H86.1452V12.136H85.9452ZM85.2742 12.236H86.0452V12.036H85.2742V12.236ZM85.3742 15.648V12.136H85.1742V15.648H85.3742ZM85.4071 16.8011L85.3741 15.6451L85.1742 15.6509L85.2072 16.8069L85.4071 16.8011ZM85.2742 16.904H85.3072V16.704H85.2742V16.904ZM82.2734 12.189L85.1894 16.857L85.359 16.751L82.443 12.083L82.2734 12.189ZM81.4202 12.236H82.3582V12.036H81.4202V12.236Z" fill="white"/>
<defs>
<linearGradient id="paint0_linear" x1="27.6447" y1="13.8459" x2="10.8623" y2="30.6283" gradientUnits="userSpaceOnUse">
<stop stop-color="#00A0FF"/>
<stop offset="0.0066" stop-color="#00A1FF"/>
<stop offset="0.2601" stop-color="#00BEFF"/>
<stop offset="0.5122" stop-color="#00D2FF"/>
<stop offset="0.7604" stop-color="#00DFFF"/>
<stop offset="1" stop-color="#00E3FF"/>
</linearGradient>
<linearGradient id="paint1_linear" x1="39.6794" y1="25.1376" x2="15.4825" y2="25.1376" gradientUnits="userSpaceOnUse">
<stop stop-color="#FFE000"/>
<stop offset="0.4087" stop-color="#FFBD00"/>
<stop offset="0.7754" stop-color="#FFA500"/>
<stop offset="1" stop-color="#FF9C00"/>
</linearGradient>
<linearGradient id="paint2_linear" x1="30.6721" y1="27.4323" x2="7.91375" y2="50.1906" gradientUnits="userSpaceOnUse">
<stop stop-color="#FF3A44"/>
<stop offset="1" stop-color="#C31162"/>
</linearGradient>
<linearGradient id="paint3_linear" x1="13.1424" y1="5.31233" x2="23.305" y2="15.4748" gradientUnits="userSpaceOnUse">
<stop stop-color="#32A071"/>
<stop offset="0.0685" stop-color="#2DA771"/>
<stop offset="0.4762" stop-color="#15CF74"/>
<stop offset="0.8009" stop-color="#06E775"/>
<stop offset="1" stop-color="#00F076"/>
</linearGradient>
</defs>
</svg>
