<svg width="97" height="96" viewBox="0 0 97 96" fill="none" xmlns="http://www.w3.org/2000/svg">
<circle cx="48.5764" cy="48" r="48" fill="url(#paint0_linear)"/>
<mask id="mask0" mask-type="alpha" maskUnits="userSpaceOnUse" x="0" y="0" width="97" height="96">
<circle cx="48.5764" cy="48" r="48" fill="url(#paint1_linear)"/>
</mask>
<g mask="url(#mask0)">
<path d="M100.77 10.8098C128.776 21.003 143.212 51.9838 133.012 80.0082C127.889 94.0837 117.626 107.346 105.14 115.794C92.6588 124.24 78.0657 127.811 64.1895 122.761C60.8157 121.533 58.3862 118.848 56.5568 115.144C54.7221 111.429 53.5386 106.783 52.6215 101.801C52.0484 98.6875 51.5888 95.5042 51.135 92.3618C50.8599 90.4567 50.5869 88.5666 50.2922 86.7163C49.5207 81.8722 48.6033 77.3314 47.1021 73.8547C45.7118 70.6349 43.6197 67.5423 41.391 64.5379C40.5611 63.4191 39.7184 62.3202 38.8817 61.229C37.4419 59.3513 36.0198 57.4967 34.7104 55.6034C30.5845 49.6371 27.9887 43.8378 30.3104 37.4589C40.448 9.6062 72.5746 0.54737 100.77 10.8098Z" stroke="white" stroke-opacity="0.5" stroke-width="2"/>
<path d="M100.698 19.3115C123.524 27.6193 135.286 52.8797 126.968 75.7337C122.786 87.224 114.408 98.0534 104.22 104.951C94.0361 111.845 82.1526 114.748 70.8666 110.64C68.1645 109.657 66.2059 107.503 64.7214 104.495C63.2317 101.477 62.2672 97.6927 61.5181 93.6179C61.0499 91.0714 60.6752 88.4724 60.3047 85.9027C60.0797 84.3421 59.8563 82.7923 59.6144 81.2716C58.9836 77.3052 58.2308 73.5672 56.9926 70.6977C55.8465 68.0416 54.1243 65.496 52.2987 63.0338C51.6158 62.1127 50.9246 61.2109 50.2393 60.3168C49.0634 58.7826 47.905 57.2712 46.8357 55.7241C43.4653 50.8479 41.3893 46.1676 43.2582 41.0331C51.5138 18.3508 77.6826 10.9346 100.698 19.3115Z" stroke="white" stroke-opacity="0.6" stroke-width="2"/>
<path d="M98.2562 35.3564C115.1 41.487 123.782 60.1202 117.648 76.9756C114.557 85.4667 108.361 93.4724 100.831 98.568C93.3039 103.661 84.5524 105.784 76.2573 102.765C74.3307 102.064 72.9153 100.524 71.8284 98.3232C70.7361 96.1118 70.0234 93.3265 69.4669 90.3036C69.1191 88.4139 68.8416 86.4922 68.5665 84.5864C68.3989 83.4251 68.2321 82.2697 68.0507 81.1311C67.581 78.1822 67.0169 75.3745 66.0817 73.2087C65.2168 71.2058 63.9209 69.2937 62.5604 67.4596C62.047 66.7675 61.5305 66.094 61.0199 65.4282C60.1484 64.2918 59.2941 63.1778 58.5016 62.0318C56.0023 58.4178 54.5259 55.0343 55.8692 51.3437C61.9416 34.6599 81.2225 29.1566 98.2562 35.3564Z" stroke="white" stroke-width="2"/>
</g>
<defs>
<linearGradient id="paint0_linear" x1="48.5764" y1="0" x2="48.5764" y2="96" gradientUnits="userSpaceOnUse">
<stop stop-color="#CCE7F3"/>
<stop offset="1" stop-color="#A5C6DF"/>
</linearGradient>
<linearGradient id="paint1_linear" x1="48.5764" y1="0" x2="48.5764" y2="96" gradientUnits="userSpaceOnUse">
<stop stop-color="#60FFFF"/>
<stop offset="1" stop-color="#FFF067"/>
</linearGradient>
</defs>
</svg>
