<svg width="26" height="26" viewBox="0 0 26 26" fill="none" xmlns="http://www.w3.org/2000/svg">
<path fill-rule="evenodd" clip-rule="evenodd" d="M19.9566 22.0043H6.04283C4.93737 22.0043 4.04199 21.1089 4.04199 20.0035V8.99888C4.04199 7.89342 4.93737 6.99805 6.04283 6.99805H19.9566C21.0621 6.99805 21.9575 7.89342 21.9575 8.99888V20.0035C21.9575 21.1089 21.0611 22.0043 19.9566 22.0043Z" stroke="#323232" stroke-width="1.5" stroke-linecap="round" stroke-linejoin="round"/>
<path d="M13.0001 9.99805C14.3816 9.99805 15.5011 11.1175 15.5011 12.4991C15.5011 13.8807 14.3816 15.0001 13.0001 15.0001C11.6185 15.0001 10.499 13.8807 10.499 12.4991C10.499 11.1175 11.6185 9.99805 13.0001 9.99805" stroke="#323232" stroke-width="1.5" stroke-linecap="round" stroke-linejoin="round"/>
<path d="M17.5018 19.0026C17.3707 18.6734 17.1677 18.3773 16.9075 18.1362V18.1362C16.4684 17.728 15.8931 17.502 15.2929 17.502C14.2925 17.502 11.7074 17.502 10.707 17.502C10.1067 17.502 9.53248 17.729 9.09229 18.1362V18.1362C8.83219 18.3773 8.6291 18.6734 8.49805 19.0026" stroke="#323232" stroke-width="1.5" stroke-linecap="round" stroke-linejoin="round"/>
<path d="M5.77832 6.99734V5.99693C5.77832 4.89147 6.67369 3.99609 7.77915 3.99609H18.2185C19.324 3.99609 20.2193 4.89147 20.2193 5.99693V6.99734" stroke="#323232" stroke-width="1.5" stroke-linecap="round" stroke-linejoin="round"/>
</svg>
