<svg width="34" height="34" viewBox="0 0 34 34" fill="none" xmlns="http://www.w3.org/2000/svg">
<path d="M0.073065 0.0844317C3.88456 -0.0281439 7.71213 -0.0281439 11.5236 0.0844317C11.7005 2.17512 11.4754 4.28189 11.6201 6.38866C13.7591 6.51732 15.9141 6.5334 18.053 6.37258C18.1978 4.28189 17.9565 2.17512 18.1495 0.0844317C22.3791 -0.0281439 26.6088 -0.0120617 30.8384 0.0683494C31.0153 2.738 30.8545 5.42373 30.9027 8.10946C30.8867 9.66944 30.9671 11.2294 30.8384 12.7894C28.7477 12.9824 26.657 12.7572 24.5663 12.8698C24.4216 14.4137 24.4538 15.9737 24.5342 17.5336C27.6541 17.7105 30.758 17.5015 33.878 17.6462C33.9584 23.0659 33.9584 28.4856 33.878 33.9214C29.8735 34.0662 25.869 33.9375 21.8806 33.9858C20.4814 33.9858 19.0823 34.0501 17.6831 33.9053C17.5545 29.0646 17.7796 24.2078 17.5866 19.367C15.5924 19.2705 13.5982 19.2705 11.6201 19.367C11.4754 24.2078 11.7166 29.0646 11.5236 33.9214C7.71213 34.0179 3.90064 34.034 0.089147 33.9214C0.0569825 33.455 0.024818 32.9887 0.00873574 32.5062C0.024818 23.2267 0.00873611 13.9634 0.0248184 4.68395C0.0248184 3.14005 -0.055593 1.61224 0.073065 0.0844317Z" fill="#593DD1"/>
</svg>
