<svg width="25" height="24" viewBox="0 0 25 24" fill="none" xmlns="http://www.w3.org/2000/svg">
<path d="M15.0354 15.1914H9.02124" stroke="#C8932B" stroke-width="1.5" stroke-linecap="round" stroke-linejoin="round"/>
<path fill-rule="evenodd" clip-rule="evenodd" d="M8.56123 14.8957C6.78103 13.6407 5.71351 11.4497 6.0894 9.0377C6.49636 6.4307 8.67449 4.3497 11.3017 4.0427C14.9483 3.6157 18.0426 6.4477 18.0426 9.9997C18.0426 12.0247 17.0342 13.8117 15.4936 14.8977C15.2169 15.0927 15.0355 15.3947 15.0355 15.7327V18.4997C15.0355 19.8807 13.9138 20.9997 12.5296 20.9997H11.5272C10.143 20.9997 9.02131 19.8807 9.02131 18.4997V15.7367C9.02131 15.3957 8.83888 15.0917 8.56123 14.8957Z" stroke="#C8932B" stroke-width="1.5" stroke-linecap="round" stroke-linejoin="round"/>
<path d="M20.0472 5.00055L21.2401 3.81055" stroke="#C8932B" stroke-width="1.5" stroke-linecap="round" stroke-linejoin="round"/>
<path d="M4.00946 15L2.81665 16.19" stroke="#C8932B" stroke-width="1.5" stroke-linecap="round" stroke-linejoin="round"/>
<path d="M5.01178 4.00055L3.81897 2.81055" stroke="#C8932B" stroke-width="1.5" stroke-linecap="round" stroke-linejoin="round"/>
<path d="M20.0472 15L21.2401 16.19" stroke="#C8932B" stroke-width="1.5" stroke-linecap="round" stroke-linejoin="round"/>
<path d="M21.0497 10H22.7437" stroke="#C8932B" stroke-width="1.5" stroke-linecap="round" stroke-linejoin="round"/>
<path d="M1.31311 10H3.00711" stroke="#C8932B" stroke-width="1.5" stroke-linecap="round" stroke-linejoin="round"/>
<path d="M9.02124 18H14.9051" stroke="#C8932B" stroke-width="1.5" stroke-linecap="round" stroke-linejoin="round"/>
</svg>
