<svg width="46" height="54" viewBox="0 0 46 54" fill="none" xmlns="http://www.w3.org/2000/svg">
<path d="M23 0L23.0007 26.5727L0 39.8375V13.2792L23 0Z" fill="url(#paint0_linear_1883_55)"/>
<path d="M23 0L46 13.2792V39.8375L23.0007 26.5727L23 0Z" fill="url(#paint1_linear_1883_55)"/>
<path d="M0 39.8379L23.0007 26.573L46 39.8379L23 53.1171L0 39.8379Z" fill="url(#paint2_linear_1883_55)"/>
<path d="M22.9739 47.5978L4.8949 37.0218L5.04275 16.0761L23.0228 5.89676L36.0049 13.2356L30.8234 16.6493L23.0247 12.2032L10.5089 19.2886L10.406 33.8868L22.9889 41.2471L30.8234 36.984L35.9958 40.0603L22.9739 47.5978Z" fill="white"/>
<path d="M10.406 33.887L4.8949 37.0219L14.3851 42.5799L19.6018 39.2411L10.406 33.887Z" fill="url(#paint3_linear_1883_55)"/>
<path d="M23.0228 5.89676L23.0248 12.2032L30.8235 16.6493L36.005 13.2356L23.0228 5.89676Z" fill="url(#paint4_linear_1883_55)"/>
<defs>
<linearGradient id="paint0_linear_1883_55" x1="0" y1="19.9191" x2="23.0007" y2="19.9191" gradientUnits="userSpaceOnUse">
<stop offset="0.03" stop-color="#CAEAF2"/>
<stop offset="0.36" stop-color="#95D6E7"/>
<stop offset="0.55" stop-color="#5BC8E0"/>
<stop offset="0.79" stop-color="#1AB7D7"/>
<stop offset="0.9" stop-color="#00B1D4"/>
</linearGradient>
<linearGradient id="paint1_linear_1883_55" x1="16.207" y1="19.9191" x2="48.1527" y2="19.9191" gradientUnits="userSpaceOnUse">
<stop offset="0.23" stop-color="#0078B6"/>
<stop offset="0.64" stop-color="#00B1D4"/>
<stop offset="0.67" stop-color="#10B5D6"/>
<stop offset="0.74" stop-color="#39C1DC"/>
<stop offset="0.83" stop-color="#7CD4E6"/>
<stop offset="0.93" stop-color="#CAEAF2"/>
</linearGradient>
<linearGradient id="paint2_linear_1883_55" x1="23.2071" y1="51.546" x2="22.6307" y2="18.9652" gradientUnits="userSpaceOnUse">
<stop stop-color="#CAEAF2"/>
<stop offset="0.33" stop-color="#95D6E7"/>
<stop offset="0.56" stop-color="#00B1D4"/>
<stop offset="0.64" stop-color="#00A6CE"/>
<stop offset="0.8" stop-color="#0088BF"/>
<stop offset="0.87" stop-color="#0078B6"/>
</linearGradient>
<linearGradient id="paint3_linear_1883_55" x1="17.6334" y1="46.2881" x2="2.95972" y2="24.0626" gradientUnits="userSpaceOnUse">
<stop offset="0.19" stop-color="white"/>
<stop offset="0.3" stop-color="#FBFBFB"/>
<stop offset="0.39" stop-color="#F0F0F0"/>
<stop offset="0.48" stop-color="#DEDEDE"/>
<stop offset="0.57" stop-color="#C3C3C3"/>
<stop offset="0.66" stop-color="#A2A2A2"/>
<stop offset="0.75" stop-color="#787878"/>
<stop offset="0.84" stop-color="#474747"/>
<stop offset="0.92" stop-color="#0F0F0F"/>
<stop offset="0.94"/>
</linearGradient>
<linearGradient id="paint4_linear_1883_55" x1="33.595" y1="18.8991" x2="18.0419" y2="-4.65845" gradientUnits="userSpaceOnUse">
<stop offset="0.11" stop-color="white"/>
<stop offset="0.22" stop-color="#FBFBFB"/>
<stop offset="0.33" stop-color="#EEEEEE"/>
<stop offset="0.44" stop-color="#D9D9D9"/>
<stop offset="0.56" stop-color="#BCBCBC"/>
<stop offset="0.67" stop-color="#969696"/>
<stop offset="0.79" stop-color="#686868"/>
<stop offset="0.9" stop-color="#333333"/>
<stop offset="1"/>
</linearGradient>
</defs>
</svg>
