<svg width="302" height="290" viewBox="0 0 302 290" fill="none" xmlns="http://www.w3.org/2000/svg">
<path d="M23.2276 118.82C34.6473 54.0564 96.5347 10.8306 161.461 22.2789C193.99 28.0146 226.706 45.1939 249.842 69.0409C272.975 92.8846 286.449 123.297 280.763 155.546C279.33 163.673 274.22 170.156 266.787 175.603C259.345 181.057 249.657 185.409 239.241 189.279C232.734 191.697 226.002 193.907 219.383 196.081C215.387 197.393 211.432 198.691 207.592 200.014C197.447 203.508 188.138 207.162 181.353 211.619C175.063 215.751 169.271 221.342 163.658 227.261C161.592 229.44 159.556 231.656 157.527 233.865C154.012 237.692 150.518 241.496 146.919 245.047C135.586 256.23 123.692 264.399 108.448 261.711C43.7016 250.294 11.7729 183.784 23.2276 118.82Z" stroke="white" stroke-width="2"/>
</svg>
