<svg width="24" height="24" viewBox="0 0 24 24" fill="none" xmlns="http://www.w3.org/2000/svg">
<path d="M9.51001 18V18.512V18.512C9.51001 19.8861 10.6239 21 11.998 21C11.9987 21 11.9993 21 12 21V21C13.3747 21.0006 14.4895 19.8866 14.49 18.512C14.49 18.5117 14.49 18.5113 14.49 18.511V18" stroke="#323232" stroke-width="1.5" stroke-linecap="round" stroke-linejoin="round"/>
<path d="M17.947 18V18C19.0808 18 20 17.0808 20 15.947V15.947V15.9471C19.9996 15.3711 19.7709 14.8188 19.364 14.411L18 13.048V9C18 5.68629 15.3137 3 12 3V3C8.68629 3 6 5.68629 6 9V9V13.048L4.636 14.411V14.411C4.22916 14.8187 4.00046 15.371 4 15.947V15.947V15.947C4 17.0808 4.91916 18 6.053 18L17.947 18Z" stroke="#323232" stroke-width="1.5" stroke-linecap="round" stroke-linejoin="round"/>
</svg>
