<svg width="83" height="77" viewBox="0 0 83 77" fill="none" xmlns="http://www.w3.org/2000/svg">
<path d="M81.3438 0.0742188H1.65625C0.923125 0.0742188 0.328125 0.624785 0.328125 1.30316V75.0397C0.328125 75.718 0.923125 76.2686 1.65625 76.2686H81.3438C82.0769 76.2686 82.6719 75.718 82.6719 75.0397V1.30316C82.6719 0.624785 82.0769 0.0742188 81.3438 0.0742188ZM80.0156 73.8107H2.98438V2.5321H80.0156V73.8107Z" fill="#323232"/>
<path d="M6.96875 27.1112H28.2188C28.9519 27.1112 29.5469 26.5606 29.5469 25.8823V6.21918C29.5469 5.5408 28.9519 4.99023 28.2188 4.99023H6.96875C6.23563 4.99023 5.64062 5.5408 5.64062 6.21918V25.8823C5.64062 26.5606 6.23563 27.1112 6.96875 27.1112ZM8.29688 7.44812H26.8906V24.6533H8.29688V7.44812Z" fill="#323232"/>
<path d="M22.9062 9.90625H12.2812C11.5481 9.90625 10.9531 10.4568 10.9531 11.1352V20.9667C10.9531 21.6451 11.5481 22.1957 12.2812 22.1957H22.9062C23.6394 22.1957 24.2344 21.6451 24.2344 20.9667V11.1352C24.2344 10.4568 23.6394 9.90625 22.9062 9.90625ZM21.5781 19.7378H13.6094V12.3641H21.5781V19.7378Z" fill="#323232"/>
<path d="M6.96875 71.3533H28.2188C28.9519 71.3533 29.5469 70.8028 29.5469 70.1244V50.4614C29.5469 49.783 28.9519 49.2324 28.2188 49.2324H6.96875C6.23563 49.2324 5.64062 49.783 5.64062 50.4614V70.1244C5.64062 70.8028 6.23563 71.3533 6.96875 71.3533ZM8.29688 51.6903H26.8906V68.8955H8.29688V51.6903Z" fill="#323232"/>
<path d="M22.9062 54.1484H12.2812C11.5481 54.1484 10.9531 54.699 10.9531 55.3774V65.2089C10.9531 65.8873 11.5481 66.4379 12.2812 66.4379H22.9062C23.6394 66.4379 24.2344 65.8873 24.2344 65.2089V55.3774C24.2344 54.699 23.6394 54.1484 22.9062 54.1484ZM21.5781 63.98H13.6094V56.6063H21.5781V63.98Z" fill="#323232"/>
<path d="M54.7812 27.1112H76.0312C76.7644 27.1112 77.3594 26.5606 77.3594 25.8823V6.21918C77.3594 5.5408 76.7644 4.99023 76.0312 4.99023H54.7812C54.0481 4.99023 53.4531 5.5408 53.4531 6.21918V25.8823C53.4531 26.5606 54.0481 27.1112 54.7812 27.1112ZM56.1094 7.44812H74.7031V24.6533H56.1094V7.44812Z" fill="#323232"/>
<path d="M70.7188 9.90625H60.0938C59.3606 9.90625 58.7656 10.4568 58.7656 11.1352V20.9667C58.7656 21.6451 59.3606 22.1957 60.0938 22.1957H70.7188C71.4519 22.1957 72.0469 21.6451 72.0469 20.9667V11.1352C72.0469 10.4568 71.4519 9.90625 70.7188 9.90625ZM69.3906 19.7378H61.4219V12.3641H69.3906V19.7378Z" fill="#323232"/>
<path d="M41.5 4.99023H50.7969V7.44818H41.5V4.99023Z" fill="#323232"/>
<path d="M37.5156 12.3639H45.4844V17.2797H48.1406V12.3639H50.7969V9.90601H38.8438V4.99023H36.1875V11.1349C36.1875 11.8133 36.7825 12.3639 37.5156 12.3639Z" fill="#323232"/>
<path d="M32.2031 19.7383H34.8594V22.1961H32.2031V19.7383Z" fill="#323232"/>
<path d="M40.1719 25.8827V22.1959H50.7969V19.738H40.1719V17.2801H42.8281V14.8223H32.2031V17.2801H37.5156V24.6538H32.2031V27.1116H38.8438C39.5769 27.1116 40.1719 26.5611 40.1719 25.8827Z" fill="#323232"/>
<path d="M42.8281 24.6523H50.7969V27.1102H42.8281V24.6523Z" fill="#323232"/>
<path d="M69.3906 49.2324H77.3594V51.6903H69.3906V49.2324Z" fill="#323232"/>
<path d="M66.7344 49.2324H64.0781V55.3771C64.0781 56.0555 64.6731 56.6061 65.4062 56.6061H72.0469V61.5219H74.7031V56.6061H77.3594V54.1482H66.7344V49.2324Z" fill="#323232"/>
<path d="M58.7656 63.9785H61.4219V66.4364H58.7656V63.9785Z" fill="#323232"/>
<path d="M66.7344 61.5204H69.3906V59.0625H58.7656V61.5204H64.0781V68.894H58.7656V71.3519H65.4062C66.1394 71.3519 66.7344 70.8013 66.7344 70.1229V66.4361H77.3594V63.9782H66.7344V61.5204Z" fill="#323232"/>
<path d="M69.3906 68.8945H77.3594V71.3524H69.3906V68.8945Z" fill="#323232"/>
<path d="M16.2656 59.0625H18.9219V61.5204H16.2656V59.0625Z" fill="#323232"/>
<path d="M16.2656 14.8223H18.9219V17.2801H16.2656V14.8223Z" fill="#323232"/>
<path d="M64.0781 14.8223H66.7344V17.2801H64.0781V14.8223Z" fill="#323232"/>
<path d="M50.7969 61.5218V59.0639H42.8281V50.4614C42.8281 49.783 42.2331 49.2324 41.5 49.2324H32.2031V51.6903H34.8594V55.3771C34.8594 56.0555 35.4544 56.6061 36.1875 56.6061H40.1719V59.0639H32.2031V61.5218H40.1719V63.9797H36.1875C35.4544 63.9797 34.8594 64.5303 34.8594 65.2086V68.8955H32.2031V71.3533H41.5C42.2331 71.3533 42.8281 70.8028 42.8281 70.1244V61.5218H50.7969ZM37.5156 54.1482V51.6903H40.1719V54.1482H37.5156ZM37.5156 68.8955V66.4376H40.1719V68.8955H37.5156Z" fill="#323232"/>
<path d="M45.4844 65.2074V71.3521H48.1406V66.4364H50.7969V71.3521H53.4531V66.4364H56.1094V63.9785H46.8125C46.0794 63.9785 45.4844 64.5291 45.4844 65.2074Z" fill="#323232"/>
<path d="M54.7812 51.6903H48.1406V49.2324H45.4844V56.6061H48.1406V54.1482H53.4531V61.5219H56.1094V52.9193C56.1094 52.2409 55.5144 51.6903 54.7812 51.6903Z" fill="#323232"/>
<path d="M58.7656 49.2324H61.4219V56.6061H58.7656V49.2324Z" fill="#323232"/>
<path d="M69.3906 29.5684H77.3594V32.0262H69.3906V29.5684Z" fill="#323232"/>
<path d="M66.7344 29.5684H64.0781V35.7131C64.0781 36.3915 64.6731 36.942 65.4062 36.942H66.7344V39.3999H56.1094V41.8578H58.7656V44.3157H56.1094V46.7736H60.0938C60.8269 46.7736 61.4219 46.223 61.4219 45.5446V41.8578H64.0781V45.5446C64.0781 46.223 64.6731 46.7736 65.4062 46.7736H77.3594V44.3157H66.7344V41.8578H68.0625C68.7956 41.8578 69.3906 41.3072 69.3906 40.6288V36.942H72.0469V41.8578H74.7031V36.942H77.3594V34.4841H66.7344V29.5684Z" fill="#323232"/>
<path d="M58.7656 29.5684H61.4219V36.9421H58.7656V29.5684Z" fill="#323232"/>
<path d="M42.8281 29.5684H50.7969V32.0262H42.8281V29.5684Z" fill="#323232"/>
<path d="M37.5156 29.5684V35.7131C37.5156 36.3915 38.1106 36.942 38.8438 36.942H40.1719V46.7736H42.8281V36.942H45.4844V41.8578H48.1406V36.942H50.7969V34.4841H40.1719V29.5684H37.5156Z" fill="#323232"/>
<path d="M16.2656 45.5446V30.7973C16.2656 30.1189 15.6706 29.5684 14.9375 29.5684H5.64062V32.0262H8.29688V35.7131C8.29688 36.3915 8.89188 36.942 9.625 36.942H13.6094V44.3157H5.64062V46.7736H14.9375C15.6706 46.7736 16.2656 46.223 16.2656 45.5446ZM10.9531 34.4841V32.0262H13.6094V34.4841H10.9531Z" fill="#323232"/>
<path d="M18.9219 29.5684V36.942H21.5781V34.4841H26.8906V41.8578H29.5469V33.2552C29.5469 32.5768 28.9519 32.0262 28.2188 32.0262H21.5781V29.5684H18.9219Z" fill="#323232"/>
<path d="M32.2031 29.5684H34.8594V36.9421H32.2031V29.5684Z" fill="#323232"/>
<path d="M21.5781 39.4004H18.9219V45.5451C18.9219 46.2235 19.5169 46.774 20.25 46.774H33.5312C34.2644 46.774 34.8594 46.2235 34.8594 45.5451V39.4004H32.2031V44.3162H21.5781V39.4004Z" fill="#323232"/>
<path d="M22.9062 35.7129H25.5625V43.0865H22.9062V35.7129Z" fill="#323232"/>
<path d="M36.1875 38.1719H38.8438V46.7745H36.1875V38.1719Z" fill="#323232"/>
<path d="M50.7969 44.3162H45.4844V46.774H52.125C52.8581 46.774 53.4531 46.2235 53.4531 45.5451V39.4004H50.7969V44.3162Z" fill="#323232"/>
<path d="M53.4531 34.4844H56.1094V36.9423H53.4531V34.4844Z" fill="#323232"/>
<path d="M53.4531 29.5684H56.1094V32.0262H53.4531V29.5684Z" fill="#323232"/>
</svg>
