<svg width="265" height="255" viewBox="0 0 265 255" fill="none" xmlns="http://www.w3.org/2000/svg">
<path d="M20.9124 105.008C30.9335 48.1756 85.2055 10.2382 142.135 20.2764C170.666 25.3072 199.362 40.3835 219.651 61.3122C239.938 82.2377 251.74 108.917 246.753 137.2C245.502 144.299 241.04 149.97 234.53 154.745C228.01 159.527 219.517 163.347 210.375 166.748C204.665 168.872 198.759 170.813 192.95 172.722C189.441 173.875 185.967 175.017 182.593 176.181C173.686 179.252 165.5 182.467 159.53 186.392C153.995 190.032 148.902 194.952 143.972 200.154C142.155 202.072 140.366 204.02 138.585 205.962C135.5 209.322 132.436 212.661 129.278 215.779C119.332 225.6 108.929 232.738 95.61 230.389C38.8604 220.383 10.8562 162.04 20.9124 105.008Z" stroke="white" stroke-width="2"/>
</svg>
