<svg width="450" height="578" viewBox="0 0 450 578" fill="none" xmlns="http://www.w3.org/2000/svg">
<g filter="url(#filter0_d)">
<mask id="path-1-inside-1" fill="white">
<path fill-rule="evenodd" clip-rule="evenodd" d="M234.16 27L225.5 12L216.84 27H44C28.536 27 16 39.536 16 55V530C16 545.464 28.536 558 44 558H406C421.464 558 434 545.464 434 530V55C434 39.536 421.464 27 406 27H234.16Z"/>
</mask>
<path fill-rule="evenodd" clip-rule="evenodd" d="M234.16 27L225.5 12L216.84 27H44C28.536 27 16 39.536 16 55V530C16 545.464 28.536 558 44 558H406C421.464 558 434 545.464 434 530V55C434 39.536 421.464 27 406 27H234.16Z" fill="#22303C"/>
<path d="M225.5 12L226.366 11.5L225.5 10L224.634 11.5L225.5 12ZM234.16 27L233.294 27.5L233.583 28H234.16V27ZM216.84 27V28H217.417L217.706 27.5L216.84 27ZM224.634 12.5L233.294 27.5L235.026 26.5L226.366 11.5L224.634 12.5ZM217.706 27.5L226.366 12.5L224.634 11.5L215.974 26.5L217.706 27.5ZM44 28H216.84V26H44V28ZM17 55C17 40.0883 29.0883 28 44 28V26C27.9837 26 15 38.9837 15 55H17ZM17 530V55H15V530H17ZM44 557C29.0883 557 17 544.912 17 530H15C15 546.016 27.9838 559 44 559V557ZM406 557H44V559H406V557ZM433 530C433 544.912 420.912 557 406 557V559C422.016 559 435 546.016 435 530H433ZM433 55V530H435V55H433ZM406 28C420.912 28 433 40.0883 433 55H435C435 38.9837 422.016 26 406 26V28ZM234.16 28H406V26H234.16V28Z" fill="white" fill-opacity="0.04" mask="url(#path-1-inside-1)"/>
</g>
<defs>
<filter id="filter0_d" x="0" y="0" width="450" height="578" filterUnits="userSpaceOnUse" color-interpolation-filters="sRGB">
<feFlood flood-opacity="0" result="BackgroundImageFix"/>
<feColorMatrix in="SourceAlpha" type="matrix" values="0 0 0 0 0 0 0 0 0 0 0 0 0 0 0 0 0 0 127 0" result="hardAlpha"/>
<feOffset dy="4"/>
<feGaussianBlur stdDeviation="8"/>
<feColorMatrix type="matrix" values="0 0 0 0 0 0 0 0 0 0 0 0 0 0 0 0 0 0 0.1 0"/>
<feBlend mode="normal" in2="BackgroundImageFix" result="effect1_dropShadow"/>
<feBlend mode="normal" in="SourceGraphic" in2="effect1_dropShadow" result="shape"/>
</filter>
</defs>
</svg>
