<svg width="24" height="24" viewBox="0 0 24 24" fill="none" xmlns="http://www.w3.org/2000/svg">
<path d="M4 11.9064V8.09139C4 6.84339 4.773 5.72539 5.94 5.28439L14.293 2.13039C15.602 1.63739 17 2.60339 17 4.00239V7.35239" stroke="white" stroke-width="1.5" stroke-linecap="round" stroke-linejoin="round"/>
<path d="M17.249 14.1006C17.111 14.1016 17 14.2136 17 14.3516C17 14.4896 17.112 14.6016 17.25 14.6006C17.388 14.6006 17.5 14.4886 17.5 14.3506C17.5 14.2126 17.388 14.1006 17.249 14.1006" stroke="white" stroke-width="1.5" stroke-linecap="round" stroke-linejoin="round"/>
<path d="M10.662 20.9996H18C19.65 20.9996 21 19.6496 21 17.9996V10.3506C21 8.69359 19.657 7.35059 18 7.35059H6C4.895 7.35059 4 8.24559 4 9.35059V12.2566" stroke="white" stroke-width="1.5" stroke-linecap="round" stroke-linejoin="round"/>
<path d="M7.5 22C4.463 22 2 19.537 2 16.5C2 13.463 4.463 11 7.5 11C10.538 11 13 13.463 13 16.5C13 19.537 10.538 22 7.5 22" stroke="white" stroke-width="1.5" stroke-linecap="round" stroke-linejoin="round"/>
<path d="M7.5 14.3066V18.6936" stroke="white" stroke-width="1.5" stroke-linecap="round" stroke-linejoin="round"/>
<path d="M9.69288 16.5H5.30688" stroke="white" stroke-width="1.5" stroke-linecap="round" stroke-linejoin="round"/>
</svg>
